<?xml version="1.0" encoding="utf-8"?>
<!-- Generator: Adobe Illustrator 16.0.0, SVG Export Plug-In . SVG Version: 6.00 Build 0)  -->
<!DOCTYPE svg PUBLIC "-//W3C//DTD SVG 1.1//EN" "http://www.w3.org/Graphics/SVG/1.1/DTD/svg11.dtd">
<svg version="1.1" id="map" xmlns="http://www.w3.org/2000/svg" xmlns:xlink="http://www.w3.org/1999/xlink" x="0px" y="0px"
	 width="980px" height="800px" viewBox="230 640 980 800" enable-background="new 230 640 980 800" xml:space="preserve">
<path id="philippines" fill="#2882C1" d="M662.153,736.317l5.76,3.84l10.32,5.76l2.398,0.96l7.92,3.12l2.16,0.72l2.4,0.48
	l1.92,0.479h0.72l0.72-0.238l1.92-0.48l0.96-0.72l4.562-3.84l0.72-2.882v-0.72l1.2-3.12l0.479-0.479l2.642-0.24l0.72,0.24l4.08,6.96
	l0.24,0.96l0.72,2.64l-0.24,1.682l-0.72,1.438l-1.44,1.92l-1.438,1.682l-0.48,0.479l-1.198,0.48l-0.48,0.238l-1.439,1.682
	l-0.961,2.159l0.48,1.921l0.72,0.72v0.96l-0.479,3.6l-0.722,2.4l-0.72,2.88l-0.479,1.44v0.96l0.96,8.88l0.238,0.72l1.922,6.24
	l1.438,3.84l0.72,1.68l1.92,0.96l0.961,0.48l1.439-0.48l3.84,3.841l-0.24,5.521l0.48,1.2l1.2,0.72h1.438l0.48-0.24l0.479-0.238
	l0.722-0.24l0.72,1.68l-0.72,2.88l-2.642,8.4l-1.92,4.8l-5.76,11.04l-0.72,1.2l-0.722,0.72l-1.438,0.72l-2.16,4.08v0.479l0.24,0.479
	l0.479,0.721h0.48l-0.24,2.159l-0.72,4.562l-0.24,1.68l-0.479,0.24l-2.16,2.399l-0.722,0.479l-0.72,0.72l-0.96,0.96l-0.72,0.721
	l0.24,0.721l-2.16,2.399l-0.48,0.479l-1.92,1.2l-0.238-0.96l0.238-0.479l0.722-1.439l0.479-0.479l0.48-0.479l1.438-1.921l0.72-0.721
	l0.48-0.72l1.2-1.68l1.198-2.4l-1.92-0.479l-1.198,1.438l-0.24,0.48v0.72l-2.4,1.68l-2.16,1.44l-0.96,0.72l-8.64,3.36l-0.96-0.48
	l-0.96,0.24l-3.6,3.12l-4.562,4.56l-0.72,0.721l-0.24,0.479l-0.24,0.72l-0.238,0.96v1.2v1.2l0.479,1.68l0.48,0.72l0.238,0.48
	l0.722,0.24l0.96-0.24l1.438,0.479l0.24,0.722v0.96l-2.16,3.84l-5.04,6l-4.56,6.96l-0.48,0.24l-0.479,1.438l-0.48,0.721v0.961
	l0.24,0.479l0.96,2.4l0.72,1.438l0.722,0.96l1.198,0.722l1.44,0.96l2.88,7.92l1.44,5.04l0.479,1.92l0.24,0.72l0.72,2.641l1.2,1.439
	l0.479,0.72l2.642,4.08l-3.84,1.44l-0.24,0.479v1.92v0.721l1.438,6.239l1.682,5.04l2.16,2.16l0.479,0.72l1.68,4.32v0.72l-0.479,1.2
	l-0.48,0.479l-0.479,0.721v0.479l1.439,1.921l0.239,0.479l6.96,5.76l1.92,0.96l0.48,0.48l2.398,1.199l1.2,0.479l3.602,1.2
	l1.92,0.479l0.72-0.239l1.439,0.239l2.159,0.96l0.722-1.438l2.88-1.681l0.239-2.159v-0.722l-2.159-1.68l-1.92-1.439l-0.96-0.239
	l-1.2-1.682l-0.721-1.198v-0.722l4.319-4.56h0.96l0.24,0.72l-0.24,0.96l-0.239,0.48l-0.239,0.72l0.239,2.88l1.681,1.44l0.239-0.24
	h0.961l0.96-0.48l0.239-0.96l-0.479-0.96l-0.24-0.72v-0.96v-0.72l1.2-2.16l0.96-0.72l3.36-3.36l1.199-0.96h2.159l1.2,0.24
	l3.12,1.198l3.6-1.198h0.722h0.96l3.12,0.96l3.6,2.16l0.96,0.479l3.12,3.36l5.28,6.72l2.88,5.04v4.08l-0.48,0.72l-0.72,0.48
	l-0.24,0.72l-0.479,1.68l-0.24,0.96v0.96v0.48l2.16,1.2l1.2,0.479l0.479,1.2l-0.479,0.96l-0.96,1.2l1.68-1.92l6.72-1.682l2.4-2.398
	l0.479-0.96l-0.239-1.44l-1.439-4.56l-1.2-0.96l-1.439-0.96l-0.239-0.48l-0.24-1.439l2.4-2.399l3.12-1.92l0.96,0.24l1.438,2.64
	l1.2,2.4l1.92,0.96l6,2.64l5.28,1.68l12,4.32l2.16,1.92l0.238,0.72l0.24,1.2l-0.24,0.48l-8.159,0.96l-0.96-0.24h-0.721l-2.88-0.72
	l-4.8-0.721h-1.2l-0.72,0.239l-0.48,0.48l-0.96,1.68l-0.72,2.64l-0.24,2.642l0.48,0.479l4.56,3.602l1.682,0.479l0.479,0.24
	l1.44,1.92l1.438,3.36l0.96,2.158l1.682,1.2l1.199,0.721l0.479,0.721l-0.24,0.96l0.96,0.72l-0.239-0.72l0.96-0.24l0.961,1.44
	l-0.722,0.239h-0.72l-0.72-0.239h-0.721h-0.721h-0.72l-0.24,0.72l-0.72,1.439l-0.24,0.479v0.96v3.6l0.24,1.44l0.72,0.479l0.48,0.239
	h0.96l1.68-1.92l1.2-1.68l0.24-0.721l0.479-0.479h1.2l3.84,1.68l0.721,0.722l0.96,0.96l0.479,0.96l0.48,0.479l2.398,1.92l0.48-0.239
	l0.479-0.96l0.24-0.721l0.24-0.72l0.72-0.479l2.64-0.239l0.722,0.479l0.238,0.48v0.96l-0.238,0.96l-1.922,2.88l-1.438,2.64
	l1.438,2.642l0.24,2.399l-0.72,5.279l-0.24,1.92l-1.92,5.761l-0.72,0.479l-2.4,0.72l-1.199-0.479l-0.961-0.24l-0.96-0.479
	l-4.8-4.801l-0.72-2.16l-0.72-1.68l-0.48-5.28l1.2-1.92l1.2,0.24l0.72,0.72l1.68,0.24l4.08-1.439l0.24-0.239l0.48-0.722l0.72-1.68
	v-0.479l-0.48-0.721l-0.479-0.72l-6.479-0.479l-0.479,0.239l-0.24,1.44l-1.2,2.16l-1.68,1.199l-0.96,0.479l-3.84,0.479l-4.562-1.681
	l-2.398-0.96l-4.08-3.12l-0.722-0.72l-1.92-2.16l-1.68-0.96h-0.479l-1.682,0.72l-0.72,0.48l-0.96,0.479h-0.96l-0.72-0.96
	l-0.48-1.199l-0.24-3.12v-1.439l0.96-1.68l-3.358-5.761l-1.682-4.561l-0.238-0.96l-0.24-0.96l-0.96-0.96l-0.72-0.721l-1.44-0.721
	l-3.6-1.68l-0.722-0.24l-1.92-0.479l-0.72-0.24h-0.72l-4.562-2.88l-2.64-2.4l-0.24-0.72l-0.239-0.72l1.681-1.682l-0.24-1.198
	l-0.96-1.2l-3.12-2.88l-7.92-5.28l-2.64-2.16l-1.682,0.72l-1.199,4.08l-0.96,6.721v0.721l0.96,2.399l3.601,5.521l1.68,1.92l0.96,1.2
	l0.96,1.438l0.722,1.2l0.238,0.721l0.48,1.681l0.96,6.239l0.24,0.96v0.721l-4.08,2.399l-0.72,0.479h-0.48l-0.72-0.24l-0.96-0.96
	l-1.92-2.399v-2.399v-1.439v-0.721l-0.24-1.2l-1.44-2.88l-4.318-5.76l-3.602-3.36l-0.96-0.479l-2.16-0.48l-0.96,0.24l-1.92-0.24
	l-1.68-3.6l-3.12-4.561l-2.4-0.721l-7.68-3.84l-3.84-2.399l-0.48-0.239l-0.238-0.48l0.238-1.2l-3.358-1.438h-1.681l-0.721,0.239
	l-11.279,6.239l-0.479,0.48l-1.2,1.92l-0.239,0.72v0.721l-2.399,4.8l-1.2,0.479l-1.44,0.96l-2.88,2.16l-2.398-1.681l-2.4-0.96
	l-0.72,0.239l-1.68,0.24l-3.842-1.439l0.48-2.641l-0.72-2.16l-0.48-0.239l-0.96-0.721l-1.2-0.239l-0.96,0.239h-2.398l-0.48-4.319
	l-0.24-0.721l-0.72-0.96l-0.479-0.239l-0.48-0.239l-5.52-1.44l-0.722-0.239h-0.479l-1.2,0.479l-0.479,0.479l-2.399,2.641v1.68
	l0.24,0.96l0.479,0.96v0.721l-0.72,0.479l-1.68-2.16l-0.24-3.359l-0.24-3.601l0.24-0.96l-0.48-7.68l-1.438-0.96l0.479-4.08
	l0.24-0.721l1.68-1.681l0.722-0.479l0.72-0.48h0.479l0.48,0.24l1.68-0.479l2.16-1.439l0.72-0.479l3.602-3.359l3.119-2.88l3.601-1.2
	l0.479-0.72l0.479-1.2v-0.96v-0.722l-1.44-4.079l-0.239-0.479l-0.479-0.72l-0.72-1.2l-0.48-0.24l-0.96-1.2l-0.72-0.72l-2.64-2.16
	h-2.16l-0.96,0.24h-0.96l-3.602-0.72l-3.119-1.92l-2.641-1.2l-0.72,0.24v5.04v0.72l0.479,0.72l0.96,2.16l1.44,6.72l0.24,0.96
	l-0.24,0.721l-0.24,1.199l-1.2,1.44l-1.199,0.479l-0.721,0.24l-2.398-0.479l-1.92-0.48l-3.12-0.96v-0.72l-0.48-1.682l-0.239-1.198
	l-2.881-5.04l-0.72-0.48l-2.399-2.64l-0.239-0.72l0.239-1.44l0.479-1.92l0.72-0.479l0.96-1.439l-2.398-2.16l-1.681,0.96v0.72
	l-0.479,2.16l-0.479,0.96l-0.479,0.48l-1.2,0.239l-1.2-0.721l-0.479-0.238l-1.92-1.44l-1.44-5.28v-2.16l0.24-0.96l0.24-1.68v-1.92
	v-1.44l-0.24-2.398l-0.96-3.36l-1.2-5.04l-0.24-0.96l-1.92-3.358l-1.199-1.682l-1.439-1.199l-0.48-1.199l-0.239-0.48l0.239-2.399
	l0.24-0.479l2.4-1.439l-2.16-5.279l0.72-4.08l-1.439-4.801l1.2-2.159l-0.239-0.721l-2.4-5.521l-2.16,0.72l-0.479,1.2l-1.682,0.24
	l-0.96-1.92l0.48-10.8l1.438-7.44l0.24-0.72l0.72-0.722l0.961-0.96l3.119-1.438l2.16,0.72l0.24,0.96l-0.24,1.68l-0.72,1.922
	l0.72,2.64l3.84,2.88l4.08,3.6v0.722l0.24,1.438l1.2,0.96l1.438,0.96l1.2,0.24h0.96h1.682l1.198-0.24l0.96-0.479l2.881-1.44
	l1.439-0.96l1.44-1.199l0.479-0.479l0.96-1.44v-0.72l-0.239-1.92l-0.479-1.68l-0.72-1.2l-1.2-0.96l-1.2-7.44l-0.96-7.438
	l-0.24-2.642l2.881-11.278l0.96-0.48l0.479-0.479l2.4-4.801l0.238-0.721l0.24-0.72v-0.72v-1.44l-0.24-0.72l-0.96-6.24l-0.238-0.72
	l1.68-8.641l0.24-1.439v-1.2l-1.682-5.04l-1.68-1.438l-0.479,0.239l-0.721,0.239l-0.96-1.438l-0.24-0.722l0.96-3.358l0.722-2.16
	l0.96-0.48l1.438-0.72l0.96-1.439l0.961-4.561l-0.479-5.28l1.68-7.68l1.92-5.52l0.24-0.48l0.48-0.72l1.438-1.92l1.681-3.12
	l0.239-0.96l0.24-1.92l-0.24-1.2l-0.239-1.44l-0.721-1.68l-0.479-0.72v-0.48v-0.72l0.72-0.96l2.4-1.68l1.438,0.479l0.72,0.24
	l1.2,0.24h0.721h0.961l0.72-0.24l0.72-0.24l0.96-0.96l4.32-2.64l1.2,1.68l0.72,0.72l0.96,0.24l0.96-0.24l0.72-0.72l0.721-0.479
	l0.239-0.24l1.92-0.721l3.602-0.721l0.96-0.238l1.438,0.238l0.961,0.24l1.439,0.96l1.2,0.72L662.153,736.317z M898.311,1206.955
	l1.682,1.68l3.12-0.96l0.72-0.479l2.88,0.96l-0.24,1.92l-0.72,5.28l0.96,0.96l2.4,2.398l0.239,0.721l-0.721,0.239l0.24,0.96h0.479
	l1.2,0.24l0.721,0.24l0.961,0.479l0.479,0.48l0.24,0.479l0.96,1.92l0.479,3.84l-0.238,0.962l-1.2,1.92l-0.72,0.479l-4.802,4.08
	l-2.398,1.44l-1.92,0.959l-0.722,0.961l-0.479,1.199l1.92,3.359l0.48,0.24l0.72,0.479l2.64,0.24h1.2l0.479-0.24l-0.96-0.479
	l0.722-0.721l6.72,0.239l1.68,1.921l0.24,1.92l-1.2,3.841l-0.72,1.198l-0.48,0.48l-1.198,6.24l3.6,1.68l0.96-0.96l1.68-0.96
	l0.722,0.24l0.239,0.479l-0.961,5.28l-0.239,0.479l-0.239,0.721l-3.602,9.84v1.2l0.722,1.68l0.479,0.96l0.96,0.24h0.721l1.681,0.72
	l3.6,4.08l1.44,1.68l2.159,9.12l0.239,0.721v0.959l-0.239,1.682l-0.479,0.239l-1.439,2.399v1.92v2.881l0.479,0.479l0.96,0.479
	l-1.2,4.319l-5.04,7.439l-5.52,2.399l-0.96,0.24l-0.48,0.72l-1.92,3.36l0.48,1.199l0.479,0.239l0.48,0.48l0.96,0.72l0.72,0.72
	l0.24,2.641l-1.2,0.239h-0.479l-0.721-0.239l-0.479-0.72l-0.24-1.2l-0.479-1.92l-0.239-1.199l-0.48-1.2l-2.398-1.2l-0.722,0.24
	l-0.72,0.479l-0.96,2.641l0.24,0.72l0.96,1.681l0.96,0.96l0.24,0.479l0.72,0.72l0.96,0.96l0.72,1.2l-0.72,2.4l-0.479,0.959
	l-0.239,0.721l-0.48,1.68l-0.479,10.801l-0.24,5.279l-0.72,2.4l-0.24-2.641v-0.479l-0.479-0.72l-1.681-2.16l-2.159-4.562
	l-0.721-1.92l-0.24-0.479l-0.96-5.761l0.24-1.199l0.72-1.681l0.48-1.921l-0.96-5.52l-0.721-0.721l-0.96-0.239l-0.961-0.24
	l-0.96-0.72l-0.96-1.2l-0.479-0.72l-0.48-1.44l0.24-0.72l0.479-0.96l0.239-0.96l-0.239-0.96l-1.199-1.92l-0.722-0.721l-1.68-0.721
	l-0.479-0.238l-0.722-1.2l-2.398-6.72v-1.2l0.239-2.16l0.239-0.72l0.24-0.721l-0.24-0.479l-1.2-0.24l-0.96-0.239l-2.88,2.16
	l-1.438,0.959l-1.682,1.44l-1.92,1.92l-0.239,1.439l0.239,0.96l0.48,1.439v1.68l-0.24,0.721l-0.24,0.479l-0.479,0.72l-1.92,2.4
	l-1.682,0.24l-1.199-0.24l-0.96,0.72l-1.921,2.642v1.68l0.24,0.72l-0.96,1.682l-1.92,2.398l-1.92,2.4l-0.24,0.479l-0.72,3.601
	l0.479,5.52l0.239,0.721l2.642,0.96l0.238-0.479l2.16,1.2l5.04,4.318l5.04,11.28l1.2,4.32v3.358l-0.48,4.08l-0.72,2.4l-0.24,0.96
	l-0.96,1.92l-1.68,2.64l-1.439,0.721l-3.12,3.601l-1.199,1.92l-0.48,0.72l-0.96,1.682l-1.199,2.398l-1.921,3.12l-0.96,1.2
	l-0.72,0.24l-0.96,0.239l-2.88-0.479l-1.44-0.72l0.24-1.44l0.479-0.96v-0.479l-0.96-2.642l-0.239-0.479l-0.48-0.48l-2.399-1.68
	l-1.681-1.2l-0.72-3.6l1.92-1.92l2.16-2.16l1.439-2.88l0.239-1.44l-0.72-2.88l-0.479-1.439l-0.479-0.239l-4.08-0.72l-1.2,0.238v0.48
	l-3.359,11.04l-0.479,0.479l-0.72,0.479l-1.2,0.239h-4.08l-5.521-1.439l-0.96-0.24l-5.761-2.398l-9.6-4.32l-6.72-3.84l-0.961-0.479
	l-0.479-0.721l-2.16,0.24l-2.88-1.92l-4.319-3.12l-5.761-8.4l-1.438-2.64l-0.48-3.12l0.24-1.92l1.2-0.72l-0.48-4.32l-0.72-5.52
	l-2.4-1.682l-0.479,0.48l-0.48-0.24l-0.479-0.72l-0.721-1.92l0.961-5.28l0.72-2.4l0.72-2.64l0.24-0.721l1.92-3.601l0.72-0.96
	l0.96-0.72h0.48l1.199-0.24l0.479-0.239l2.16-0.96l0.24-0.479l5.278-9.12v-0.72l-0.96-1.681l-0.72-0.479l-1.44,0.479l-1.68,0.239
	l-0.479-0.239l-1.2-1.439l-0.24-0.72l-0.479-1.682l-0.722-2.159l-4.318-5.521l-0.722-0.479l-4.56-2.159l-1.92-0.24l-3.12-0.24h-2.4
	l-1.68-1.199l-0.24-0.961v-1.198l-0.96-0.961l-1.2-0.959l-0.72-0.48l-3.358-0.72l-0.48-0.48l-1.68-0.72l-1.44,0.24l-4.08,1.92
	l-0.479,2.64l1.438,0.96l0.24,0.722v2.158l-0.479,1.44l-0.24,0.479l-0.48,0.721l-0.479,0.479l-1.2,0.48h-0.96l-0.96,0.238
	l-2.4,1.922l-0.239,0.479l0.239,0.479l3.602,4.079l1.198,0.961l0.722,0.479l0.238,3.36l-2.158,0.72h-0.48l-0.96-0.72l-2.64-2.16
	l-2.16-2.4l-0.24-0.479l0.72-0.959l0.48-1.44l-0.48-0.24l-3.358-0.479l-0.72,0.24l-1.44,1.198l-0.24,0.48l0.48,0.72l-0.96,0.96
	l-2.4-2.16l-0.72-0.72l-0.48-1.439l1.44-1.199l1.68-0.24h0.72l0.722-0.48v-1.198l-2.88-5.04l-0.962-0.96l-2.64,2.398l-1.2,1.44
	l-0.479,1.438v1.44l0.239,0.72l-0.479,1.439l-1.2,3.841l-0.479,0.96l-2.16-0.96l-3.601,0.479l-1.681,1.681l-1.68-0.239l-1.68-1.682
	l0.238-10.56l0.48-0.96l0.24-0.48l0.96-0.238v-0.96l-0.48-0.722l-0.96-0.959l-3.6-0.721h-2.88l-1.92,0.48l-3.842,2.16l-1.68,1.92
	l-0.479,0.72l-3.12,4.08l-0.479,0.72l-3.84,5.521l-0.24,0.961l-0.479,0.72l0.238,1.92l0.961,0.24l1.439,0.239l-1.68,2.881
	l-1.44,1.198h-0.24l-0.479-1.438l-0.72,0.24l-0.48,0.479l-0.24,0.72l-0.96,4.08l-0.72,3.601l-0.24,2.641l-3.358,7.92l-1.92,2.16
	l-0.96,0.72l-0.48,0.24l-0.72-0.24l-3.12-0.96l-4.32-1.92l-0.479-0.479l-0.48-0.479l-0.96-1.439l-1.2-4.079l0.24-3.36l0.96-1.68
	l0.24-0.721l0.479-0.479l5.039-6.479l-0.238-1.199l1.199-4.32l1.199-3.359l1.2-1.681l1.2-1.199l0.479-4.08l-0.238-1.439v-0.72
	l-0.722-1.92l-0.479-0.24l0.24-2.4l1.92-3.358l4.08-6.24l1.92-1.681l1.68-0.96l1.68-0.721l0.96-0.479l4.562-1.2l1.2-0.24h0.72
	l0.479,0.24h0.722l13.92-2.399h0.72l1.44-0.479l4.318-1.2l0.721-0.24l3.359-2.64l0.48-0.96l-0.722-5.521v-4.561l2.16-3.36
	l1.92-1.438l5.76-0.96h0.722l1.199,0.479l2.159,0.722h0.722l0.72-0.24l0.72-0.479l0.96-0.961l2.4-5.039l0.479-3.12v-0.96
	l0.722-0.479l1.92,0.72l5.04,4.562l0.96,0.479l3.6-1.92l3.6,1.2l1.92,1.68l2.16,2.642l2.16,3.6l0.96,2.4l1.44,10.318l0.238,1.2v0.96
	l-0.238,1.2l-0.722,0.96l-3.84,3.84l-0.72,0.239l-1.44,0.479h-0.72h-0.72l-0.72,0.24l-0.96,0.72l-0.96,0.96l0.479,0.24l-0.24,1.92
	l0.722,0.72l0.479-0.239l0.48-0.479l3.118-1.92l1.2-0.96l0.722-1.2l3.119-2.88l5.521-3.36l2.64-0.959l0.722-0.239l2.398,0.239h1.2
	l0.96,0.239l1.44,0.24l1.198-0.24l2.882-1.439l1.68-2.88l-0.24-0.721l-0.479-1.92l0.479-0.72l1.2-2.88l0.24-0.721v-0.479v-1.2
	l-0.24-0.96l2.399-4.318l5.279-3.602l2.4,0.48l0.479,1.199l2.881,2.159l1.439,0.961l5.04,2.159l1.2,0.24h0.479l0.48-0.24
	l0.479-0.479l1.2-1.2l0.96-4.08l-0.479-2.399l-0.722-0.239l-0.479-0.96v-0.721v-0.96l1.68-4.561l0.48-5.76l-0.48-2.641v-0.961
	l0.722-0.72l0.72-0.72l0.72-0.48l3.36-0.479l4.318,3.12l2.88,2.399l0.48,1.199l1.92,2.88h0.96h1.2l1.438-0.72l0.722-0.479l6-7.199
	l7.68,0.72h0.479l0.962-0.479l0.96-0.239l1.92-0.721l0.238-0.721l0.722-1.68v-0.721v-1.199l-0.24-5.04l-0.96-4.562l-0.48-1.438
	l-2.64-8.16l-2.16-6.24l-0.96-2.88l0.24-3.359l0.24-1.439l0.238-1.2l1.682-2.159l0.96,0.239l1.92,0.72l2.88,1.44l1.44,1.92
	l1.198,4.561l1.44,1.199l0.479,0.24l5.28,2.16l0.72,0.24l0.96,0.239l2.882,0.479l4.079,2.88l0.961,1.92l-1.92,1.2v0.72
	L898.311,1206.955z M756.952,1171.195l-1.2,1.68l-1.2,2.16l-0.479,0.479l-0.722,3.602l0.48,0.72l0.479,2.88l0.239,2.4v0.72
	l-0.239,1.92l-0.721,0.48l-0.72-0.24h-0.479l-0.479,1.2l2.16,4.318l1.92,3.602l2.399,2.64l3.359,3.6l0.479,0.96v0.722v0.96
	l-0.96,3.358v0.48l-0.721,1.438l-1.68,2.4l-2.88,2.64l-1.44,1.2l-1.68,1.2l-5.76,0.72l-1.44-0.72l-2.16-1.44l-1.68-3.12l-0.96-2.88
	l-0.479-1.92l-0.239-1.68v-0.96v-1.2l-0.48-0.72l-2.88-1.682l-0.96-0.238l-3.12-0.722h-0.96h-0.72l-0.96-0.238l-1.681-0.96
	l-1.921-1.2l-0.239-0.72l-0.96-0.48l-1.92-1.92l-2.881-3.84l-3.358-5.04l-0.961-3.602l0.479-3.6l2.4-8.88l2.398-0.24h1.44l2.16,0.24
	l1.68,0.24h0.72h2.16l1.2-0.48l5.279-2.88l0.961-0.72h0.479l1.681-2.16l0.239-1.2v-1.68l-0.239-8.4l-1.199-5.52l0.239-6h0.479
	l0.72-0.24l0.96-0.96l1.921-2.16l1.681-3.84l0.72-2.64v-3.36l-0.24-0.479l-0.479-0.961l-0.24-0.479v-0.72l0.24-1.921l2.398-1.199
	l9.36-4.08h0.72l1.2,0.24l14.16,2.88l2.88,4.8v0.48v1.92l-4.8,14.16l-0.721,0.72l-1.681,1.2l-0.72,0.238l-0.479,0.24l-1.2,0.96
	l-0.479,0.72l-0.239,0.48l-0.24,0.72l-0.239,0.96l-0.721,6l-0.479,1.68l-1.92,5.762l-0.96,2.16l-1.439,3.119l-0.721,1.199
	L756.952,1171.195z M854.872,1040.396l2.4,1.92l3.6,3.358l0.96,2.16l-0.479,0.96l-0.722,2.641l0.24,2.399l1.92,1.44l1.44-0.96
	l1.198-0.24l3.12,1.438l2.642,2.881l0.72,1.681l-1.92,0.479l-1.681,2.4l0.239,0.479l3.602,2.399l-1.44,1.44l-0.96,0.96l-0.96,0.96
	l-0.96,1.92l-0.24,2.398l0.72,4.08l0.722,8.642l-0.48,2.159l0.24,0.959l3.84,7.2l2.16,2.4l1.2,0.24l2.398,2.159l-0.238,1.439
	l-1.2,1.439l-1.681,0.959l-1.439,1.44l-0.72,1.2l0.479,1.92l3.12-0.24l-0.479-1.68l3.359,1.68l1.2,1.2l3.12,5.04l0.72,2.4
	l-0.479,0.72l-0.722-0.24l-1.199-0.96l-0.96-1.439l-0.721-1.439l0.48-0.96l-1.44-1.438l-4.56-0.48l-2.4,0.48l-3.12,1.92l-9.6-1.44
	l-3.602-2.64l-1.438-3.602l-0.72-0.96l-1.2-0.238l-2.88-0.24l-3.602-3.601l-0.479-3.119l-0.96-1.44l-3.841-1.2l-2.399,0.24
	l-0.96-1.68l0.239-0.96l3.12-2.88l1.92,0.238l1.199-0.479l1.44-1.92l2.64-5.76l-0.239-1.2l-1.681-1.2l-7.199-1.439l-4.32-4.561
	l-4.079-5.76l-1.44-1.2l-0.96-0.479l-2.399-0.961l-4.801-1.198l-1.68-0.96h0.24l-0.48-1.2l-0.96-1.2l-2.399-1.68l-2.641-5.28
	l-3.12-8.64l-1.199-4.562l1.439-0.96l3.12,1.682l5.76,0.959l9.36,0.721l3.84-0.48l1.2-0.238l5.76-0.961l0.96-0.959l7.44,0.959
	l1.92-0.479l1.199-1.438l2.399-0.24L854.872,1040.396z M707.993,1079.516l8.88,5.04l5.76,5.521l3.12,3.358l5.76-2.64l2.4-1.438
	l4.08-0.24l3.12,3.6l0.24,2.4l-1.44,1.92l0.479,0.96h1.44l4.8-2.88l3.36-2.16l1.68-0.96l1.2-1.438l0.96-0.962l0.96,1.682l-0.96,8.64
	l-0.24,1.44l-2.398,6.479l1.198,1.681l0.24,1.921l-8.88,6.238l-3.36,0.962l-4.56,1.92l-2.88,2.16l2.399,1.68l-0.239,2.4l-0.96,1.92
	l-1.2,1.198l-5.521-0.238l-1.438,4.079l-5.28,2.399l-5.04,0.48l-6,0.72l-2.88,0.96l-5.28,2.88l-0.96,1.439l-0.479,1.439l-0.96,1.68
	l-1.2,1.44l-0.96,0.72l-2.16,1.44h-1.2l-0.96-0.48l-0.72-0.96l0.479-2.88l1.44-1.2l0.479-1.438l0.722-2.88l0.238-1.922v-1.68
	l-1.198-2.64l-0.96-2.4l1.198-3.6l1.2-3.84l0.96-0.96l1.681-2.4l0.961-1.68l-0.48-2.881l-0.24-1.681v-2.64l0.48-3.12l-0.48-4.8
	l0.48-3.842l1.2-3.6l1.198-6.24l0.48-2.64l-0.24-2.88l-1.2-1.2l-4.318-1.2l-2.16-0.238h-1.68l-1.682,0.238l-1.438-0.238l1.92-7.2
	l3.358-1.44l0.96,0.24l1.44,0.72l1.44,1.682l1.438,1.438l2.4,0.96l1.68,0.24l3.36,0.72L707.993,1079.516z M571.914,1101.835
	l0.96,0.96l0.96-0.72l0.72,0.72l0.24,1.439v1.439l-0.72,1.92l-3.12,11.76l-0.24,1.44l-0.24,4.08l1.44,2.64l1.2,0.48l1.438-0.722
	l1.44,0.48l0.479,5.04l1.2,2.64l3.12,6.72l1.2,1.682l-1.92,1.2l-5.04,3.84l-4.56,1.68h-1.682l-3.359,1.44l-3.119,1.68l-1.44,1.68
	l-1.92,2.642l-0.72,0.96l-0.721,2.398l0.239,1.44l-1.198,2.64l-0.722,1.44l-2.16,1.198l-9.6,2.16l-1.439,0.48l-1.439-0.24
	l-1.92-0.24l-6,2.642l-3.12,8.16v2.64l0.96,1.68l1.92,1.2h-0.96l-5.28,7.2l-8.88,10.56l-5.52,5.762l-0.96,0.479l-7.44,1.2
	l-2.16,0.24l-2.398,5.04l-2.4,5.04l-2.64,3.6l-1.682,0.24l-2.88,1.438l-0.96,0.72l-4.319,3.602l-0.961,1.68l-1.68,1.44l-6,1.68
	l-5.04,4.08l-4.319,3.6l-3.841,0.722l-2.64,1.92l-4.08,3.6l-2.16,2.641l-1.2-0.479l2.16-9.12l0.96-2.398l0.48-0.24l0.72-2.16
	l4.32-5.76l1.2-1.2l3.84-3.12l1.68-2.16l2.16-3.12l7.438-8.16l6.24-4.8l6.24-4.56h2.399l1.199,0.479h2.4l5.04-4.8l10.56-11.521
	l0.48-1.68l4.32-4.561l1.438-0.959l1.2-0.24l2.16-1.682l4.56-5.52l1.681-2.88l0.961-2.16l0.238-1.44l4.802-6l0.238,2.881
	l-1.198-0.239l1.438,2.64l0.48,0.24h0.238l0.96-0.96l1.2-3.601l-0.96-0.239l-0.24-2.88v-1.2l3.12-0.96l0.96,0.479h2.16l3.601-5.52
	l0.721-2.641l-1.681,0.959l-0.721-1.198l2.4-3.602l4.08,0.96l2.16,1.92l1.68-1.438l7.68-8.64l0.48-0.96l0.96-5.762l-1.682-2.64
	h-1.68l-2.16-5.04l-0.72-4.32l2.4,0.24l7.68,9.601l0.479,1.439l0.24,0.72l1.2-0.239l-0.96-5.279l-0.96-2.16h-1.44l-1.438-0.24
	l-0.96-0.96l-1.44-2.64l-0.479-1.44l0.238-1.68l1.2-4.8l1.2,1.198l0.96,1.682l1.44,0.96l0.96-0.24l0.479-5.521v-4.56v-1.68
	l-0.24-2.16l0.48-1.682l2.16-4.318l1.438,0.479l0.24,1.2v0.96v1.924H571.914z M633.594,993.836l0.96,0.72l8.642-2.159l2.64-0.721
	l1.2,0.24v2.64l1.92,2.4l0.96,0.479l0.96,0.24h3.84l1.682-0.72l1.68,0.72l4.32,3.12l9.84,10.08l0.24,5.04l-0.722,0.72l-0.239,1.2
	l-0.479,12.72l0.479,0.96l1.199,0.96l0.96,0.96l0.96,2.16l0.24,3.12l-2.398,2.4l-0.961,0.96l-1.199,0.72l-1.2,0.72l-1.68,3.12
	l0.238,2.64l1.2,1.921l-2.88-0.239l-1.92,1.68l-6.24,4.562l-4.8-0.721l-1.2-1.681l0.48-1.68l0.479-0.96l-1.438-0.722l-0.48,0.722
	l-4.8-4.562l-2.4-4.08l-0.479-1.438l0.72-1.681l-0.24-2.399l-1.198-2.16l-2.642-3.36l-1.199-0.239l-1.439-0.239l-0.72-2.642
	l-0.24-2.398l0.24-4.562l-1.2-5.04l-0.721-1.198l-0.479-0.96l-2.4-4.08l-1.92-2.642l-2.88-1.68l-1.2-0.24l-1.198-0.239l-7.682-7.199
	l-1.68-0.48l-0.72-0.72l-1.2-1.2l-0.24-1.2l0.72-1.68l0.96-0.96l1.44-0.96l1.439-0.48h1.199l12,1.682l1.921,0.479L633.594,993.836z
	 M825.592,1103.996l2.88,0.72l3.36-0.479l1.68-0.96l0.96-0.722l2.4-2.159l2.4-2.159h4.56l1.2,1.68l0.24,0.96v5.76l2.64,2.88
	l0.72,9.36v1.68l-0.24,1.682l-0.238,1.438l-1.2,2.4v2.88l0.479,3.6l1.92,1.682h1.44l3.12,5.04l1.68,3.358l-0.479,0.722l0.96,4.318
	l2.64,2.4l0.96,0.96l0.72,2.16v1.92l-0.72,1.68l-6.96,4.32l-1.68-1.92l-0.72-1.44l-1.44-3.6l-0.24-1.2l-0.72-1.2l-0.96-0.72
	l-1.44,0.24l0.722,6.72l0.96,4.08l0.96,3.84l0.24,1.92l-0.961,0.722l-1.681-0.48l-6.72-4.561l-4.08-3.119l1.2-5.521v-1.2l-1.2-1.438
	l-1.2-1.2l-0.96-1.438l0.48-3.12l1.198-2.16l0.48-1.2v-1.92l1.92-4.561l-0.48-3.119l-0.238-1.682l-0.722-1.438l-0.72-1.682
	l-3.84-5.52l-0.72-0.96l-2.642-2.16l-1.198-0.96l-1.2-0.24l-0.96,1.44l-0.24,1.199l0.24,1.681l-0.48,1.2l-0.479,0.96l-0.48,0.72
	l-1.68,0.479l-3.36-2.398l-1.2-3.12l0.24-6.96l-0.24-6.48l-1.438-2.64l-1.2-1.2l-2.4-7.92l-0.72-3.12l1.44-1.68l11.04,8.399
	l0.72,3.119L825.592,1103.996z M764.152,1199.995l-0.96,0.24l-1.44-0.24l-0.24-3.601l0.48-3.601l1.92-11.04l1.2-4.8l1.198-0.24
	l0.24-2.399l-1.2-0.959v-2.4l1.682-3.12l0.96-0.72l1.68-1.44l2.16-2.398l2.16-4.32l2.64-6.479l1.2-0.721l1.92-2.16l2.16-4.56v-1.681
	l0.24-1.199l2.398-4.32l1.68-2.398l1.922-3.12l1.438-3.12l0.72-1.2l1.44-4.32l2.88-8.398l-0.24-1.682l-0.72-1.438l0.24-1.44
	l2.88-4.56l2.16-0.48l0.96,1.682l-1.2,1.68l-1.2,4.8l0.48,3.12l0.72,2.4l0.479,6.479l-0.96,4.32v8.88l-0.72,8.4l-0.72,2.398
	l0.72,0.96l-0.72,1.682l-1.92,1.438l-8.4,4.8l-1.438,0.48l-2.642,2.64l-4.08,5.04l-0.479,2.16v2.642v1.68l-1.2,3.6l-1.44,1.2
	l-1.68,2.4l-1.2,4.08l-0.238,2.158l-1.922,5.28l-1.68,2.642l-3.36,4.318L764.152,1199.995z M820.072,1167.355l0.96,0.479l2.16-0.24
	l0.96,0.721l0.72,0.961l0.479,1.438l0.48,4.08l-0.48,1.2l-0.96,0.96l-1.198,0.96l1.438,1.199l1.68,0.721l0.48,2.398l-0.96,1.44
	l-2.4,0.479l-1.68-1.198l-4.561,4.56l-2.641,1.92l-1.92,0.72l-1.439,0.48l-0.96,0.24l-8.641,0.479h-1.92l-5.04-0.72l-4.8-1.68
	l-3.6-5.041l-0.48-1.921l0.24-3.6l5.04-3.6l3.358-1.92l1.2-0.48l3.36-1.92l4.318-5.76l0.24-0.96l0.72-0.96l2.882-0.48h1.68h3.6
	l3.12,0.48l2.16,2.64L820.072,1167.355z M790.313,1058.156l1.439,1.438l6.72,10.562l1.44,6.479l0.479,6.24l-0.72,0.72l-2.88-4.08
	l-1.68-1.438l-2.88-1.92l-2.642-1.682l-1.438-0.72l-1.682-0.479l-9.358-8.642l-0.48-1.199l-0.96-1.681l-2.4-2.88l-3.118-0.24
	l-1.682,0.48l-4.56,5.76l-4.8,5.76l-0.961,0.96l-3.119,2.4h-0.24h-0.24l-0.96-1.44l3.36-6.72l1.68-3.358l2.88-5.521l-1.68-4.8
	l-1.681-12.48l0.479-1.198l4.08,1.68l6.96,3.12l3.84,3.12l6.24,5.278l6.72,5.28L790.313,1058.156z M810.232,970.556l1.198,0.722
	h1.682l2.398,1.68l0.48,0.96l0.479,1.2l0.24,3.12l-4.32,12.479l-0.72-0.479l-0.24-1.682l-0.96-0.238h-0.479h-1.2l-0.72,0.479
	l-1.682,1.44v0.72v1.438l-0.238-0.238l-1.44-0.721l-6-3.841l-0.96-1.92l-0.24-0.72l1.44-1.2l0.72-0.479l0.96-0.24l1.44-2.88
	l0.479-1.682l0.72-6.72l-0.238-0.479l-0.48-0.722l-0.239-1.68v-0.96v-2.399v-0.721l3.841-1.92l2.398,2.641l1.2,2.399
	L810.232,970.556z M707.513,1339.436l0.48,3.359l-2.16,4.32l-1.68,2.64l-4.8,1.681l-0.962,0.479h-0.72l-2.398,0.24l-0.722-0.24
	l-0.96-0.479l-1.68-1.439l-0.48-0.24l-6-7.199v-1.681l0.48-1.2l0.96-0.96l0.479-0.238h0.961l0.479,0.238l0.48,0.48l0.72,0.479
	l2.398-0.72l2.16-1.68l0.722-0.96l0.479-0.96l1.2-0.48h2.88l1.439,1.92l1.921,1.682l2.398,0.479L707.513,1339.436z
	 M880.071,1178.635l-0.722,0.24h-3.119l0.479-1.68l1.44-1.92l-0.48-2.642l-5.76-6l-0.96-1.92l-0.24-0.96v-0.479l1.92-9.36l5.28-7.2
	l0.72-0.479h0.48l1.438,2.398l0.48,1.44l-1.44,6.96v4.56l0.48,2.4l0.479,0.479l1.44,1.921l0.72,8.881l-0.24,1.438l-0.96,0.96
	l-0.72,0.72L880.071,1178.635z M605.274,1062.476l1.198,0.24l1.682-1.2l0.96-2.16l4.56,5.041l0.48,1.199l-0.24,2.16v1.2l-1.92,0.479
	l-3.84-0.238l-1.2-0.722l-1.68-1.438l-1.922,0.479l0.48,0.722l-0.96,1.438l-0.96,0.72l-0.72-0.96v-0.479l-0.48-0.72l-0.72-0.24
	l-0.48,0.479l-0.479,0.24l-1.2,0.48l-2.16-1.922l-1.68-2.398l-3.84-8.88l0.72-3.36l0.72-1.2h0.48l1.199,0.48l0.479,0.24l7.92,6.238
	l1.68,2.16L605.274,1062.476z M702.953,998.156l0.24,0.72h0.96l0.238,0.96l-4.8,6.72l-1.2,1.92h-0.238l-1.2-0.238l-0.96-0.24
	l-5.521-3.84l-1.68-2.642l-0.479-1.92l-0.479-3.12v-0.96l2.88-4.318l6.72-0.24l1.2,0.72l3.84,2.642l0.722,1.198l0.238,0.722
	l-0.479,0.72L702.953,998.156L702.953,998.156z M666.713,1375.194l-1.92,1.68l-0.96,0.24h-0.72l-1.92,1.438l-0.722,0.721
	l-0.72,0.961l-0.24-0.961l-2.158-3.119l-0.48-0.48l-1.68-0.479l-0.721,0.479l-5.039,2.641h-7.682h-0.72l-2.16-1.439l-0.479-1.439
	l0.238-0.479l0.961-2.16l1.439-1.2l4.8-2.88l5.28-0.479h0.479l1.439,0.72l1.44,1.68l3.6,1.2l6.96,0.48l0.72,0.479l0.96,1.2v1.198
	H666.713z M699.113,1060.316l-1.44,4.08l-2.64-2.642l-0.48-1.2l-1.68-6l-0.24-0.72v-0.479l1.2-2.642l1.92-1.92l0.48-0.24l0.72-1.92
	l0.24-1.68v-0.72l-0.24-3.841l-0.48-0.479l0.24-1.2l1.92-1.68l4.32-2.16l0.96,2.16l-0.24,3.359l-1.438,7.681L699.113,1060.316z
	 M699.833,917.517l0.24,1.682l-0.24,0.479l-0.479-0.96l-0.721-0.96l-0.72,0.24l-0.96,1.68l-1.2,2.642v0.72v0.96l0.24,0.479l0.96,1.2
	l1.438,1.44l0.48,4.8l-0.72,1.2l-0.721,0.96l-1.199,1.2l-1.44,0.72l-0.479,0.24l-0.48-0.24l-0.72-0.24l-0.24-0.479l-0.24-0.96v-0.96
	v-1.922l0.48,0.48l0.72,0.24l0.24-0.48v-0.72l-0.24-0.96l-0.96-2.16l-2.16-4.32l-1.92-2.64l-0.96,0.24v-1.2l0.48-1.68v-0.48
	l0.96-1.92l0.479-0.479l4.32-0.962l1.438,0.24l1.44,0.24l0.96,0.48l1.68,1.438L699.833,917.517z M607.194,1411.436l-1.44,5.279
	l-1.439-0.24h-0.961l-0.479-0.72l-2.88-1.438l-3.12-0.48l-0.72,0.24l-1.44,0.96l-0.479,0.72l-0.24,0.96l-0.24,0.722v0.479
	l-0.479,0.72l-0.96,0.48l-0.48-0.722h-0.479l-1.44,1.2l-2.88,0.96h-0.96l-0.48-0.24l-0.72-3.84l0.48-0.96l0.72-0.238h0.96h0.96
	l7.68-4.08l1.2-0.96l1.44-1.2l2.398-1.68l2.4-1.44l1.92-0.24l0.479,0.96l-0.238,1.2l0.72,0.48l1.2,0.479v1.2v1.44H607.194z
	 M728.153,1147.916l-1.2,0.72h-0.72h-1.439l-1.2,1.44l-0.96-0.24l-2.16-3.36v-0.72l1.92-4.8l0.24-0.48l0.96-1.438l3.84-4.32
	l1.92-2.16l0.722,0.24l2.16,1.44l0.479,1.198l0.24,2.642v1.198l-2.16,5.762l-0.96,1.438L728.153,1147.916z M825.592,1095.835
	l-4.8,0.479l-1.44-0.721l-0.72-0.479l-1.92-2.88l-3.6-6.722l4.318-1.68l2.16,0.24h0.722l2.64,1.199l3.84,6.479l0.48,0.72v0.721
	v0.721l-0.48,0.479l-0.24,0.721L825.592,1095.835z M765.592,1033.916l-0.72,0.24l-2.64-2.4l-4.802-4.56l-9.358-8.4l-2.16-0.479
	l-1.92-1.199l-0.96-4.08l3.12-1.92h0.479l2.16,0.479l0.72,1.2l4.32,6.479l3.84,4.079l2.88,3.36l4.562,6.24L765.592,1033.916z
	 M730.553,1053.596l-1.92,2.16l-4.56-4.56l-0.48-0.48l-1.92-0.72l-1.2-0.24l-0.72-0.24l-0.479-0.238l-0.48-0.48l-0.479-0.479
	l-0.479-1.2l0.24-0.96l1.438-1.44l1.44-0.479l2.4-0.48h1.198l2.882,0.24l1.68,0.479l0.96,0.238l1.2,2.642l0.479,0.72l0.24,0.72
	l-0.24,1.92l-0.24,1.682l-0.238,0.479L730.553,1053.596z M594.954,1085.756h-0.48l-0.479-0.96l-0.48-4.319l-3.118-6.721l-0.24-2.16
	l0.479-1.438l0.48-0.48l1.2-0.238l5.278,2.64l0.48,0.48l2.398,2.64l-1.198,0.96l-0.24,0.72l-0.24,1.2l0.96,0.479l0.48,0.722
	l-0.722,2.398l-0.479,0.96l-2.16,2.16l-0.479,0.48L594.954,1085.756z M902.871,1182.715h-4.08l-4.32-4.32l0.96-2.88l3.36-6.96
	l0.72-1.198l0.48-0.24h0.72l0.96,2.64l1.44,4.801l0.238,1.681l1.2,1.68l1.44,1.682l-0.48,1.198l-0.479,0.24L902.871,1182.715z
	 M587.514,1147.436h-0.479l-1.682-0.479l-1.68-3.6v-0.722l0.24-0.96l0.24-0.238l3.84-2.4l3.12-0.24l5.04,0.721l0.479,2.159
	l-0.72,1.44l-3.36,2.64l-2.398,0.96L587.514,1147.436z M780.472,1209.595l1.682,3.84v0.722l-0.48,0.479l-1.2,0.72l-3.358,0.96
	l-1.2,0.24h-0.96l-0.48-0.479l-3.84-3.12l-0.96-0.96l-0.24-0.48l0.24-1.199l0.72-0.479l1.44,0.479l2.16-0.721l0.72-0.238l0.96-0.962
	l0.48-0.479v-0.72l0.479-1.2h1.44l0.96,1.2L780.472,1209.595z M444.236,1279.195l-0.24,0.238l-0.96-0.479l-1.2-2.88l-0.479-2.16
	l-0.48-1.681v-4.561l0.24-0.479l0.239-0.48l5.279-1.2l0.48,0.96l0.72,7.682l-0.72,2.158l-0.722,0.962l-0.238,0.479L444.236,1279.195
	z M785.992,1051.676l-0.24,0.24l-2.64-2.64l-0.48-0.722l-1.92-2.398l-2.88-4.801l-2.4-3.841v-1.198v-0.48l2.642-0.72l3.358,2.399
	l0.96,0.721l0.24,0.479l0.24,0.96l1.44,3.84l1.92,6.96L785.992,1051.676z M887.751,1325.275l-1.2,2.398l-0.24-0.238l-0.238-0.48
	l-4.562-8.88l-0.239-1.2l1.681-4.56l0.72-0.24l3.12,2.16l0.72,0.72l0.48,0.96L887.751,1325.275z M836.151,1217.035h-0.48l-3.36-1.44
	l-1.198-0.72l-0.96-0.72l-0.479-0.48l-0.479-0.72l-0.479-0.72l-0.24-1.92l0.24-0.48l0.72-0.96l1.2-0.72l1.92-0.24l1.2,0.48
	l2.16,1.92l0.479,0.72l0.96,2.4l0.24,1.438v0.722L836.151,1217.035z M861.352,1174.555l-0.479,0.24l-1.2-0.72l-6-6.96l-0.72-1.2
	v-0.96l-0.24-2.16l0.48-0.479l4.318,1.438l3.602,6.48l0.72,3.358v0.722L861.352,1174.555z M738.953,1306.795l-0.96,1.44l-0.72-0.24
	l-0.48-0.48l-1.2-2.398v-0.722l0.48-1.92l0.239-0.96l0.479-0.72l0.96-0.479h3.6l1.682,0.479l0.24,0.48l1.92,2.64l-3.842,2.4
	L738.953,1306.795z M611.994,979.676l-0.24,3.602l-0.24,0.72l-0.96-1.68l-2.88-1.92l-0.72,0.238l-2.64-1.438l-0.961-0.96
	l-0.239-0.24l-0.48-0.72l-0.479-2.642l0.72-0.479l0.72-0.24l1.92,0.72l3.602,1.682l0.72,0.72l0.96,0.96L611.994,979.676z
	 M676.313,701.037l-1.438,0.96l-4.32-2.16l-1.2-1.438l-1.198-1.682v-0.72l1.198-1.44l6.479,0.24l0.24,1.44l0.238,3.6v0.72
	L676.313,701.037L676.313,701.037z M705.593,967.916h-0.479l-1.92-0.96l-6.24-4.32l-0.72-0.479l-3.12-3.602l1.438-1.68l8.642,6.72
	l1.92,1.682l0.72,0.72l0.479,1.2v0.479l-0.479,0.24H705.593L705.593,967.916z M692.633,723.117l-1.438,0.72l-0.48-0.24l-0.479-2.159
	v-0.721l1.92-5.04l0.72-0.479l1.2-0.96l1.2,0.238h0.479l2.4,1.922l-0.48,1.198L692.633,723.117z M588.234,1099.916h-0.24l-0.72-0.24
	l-2.4-0.96l-0.72-0.72l-1.2-1.2l-0.48-1.68l5.04-2.64l1.682,0.479l1.2,0.479l0.238,0.722l-0.238,1.92l-0.24,0.72l-0.722,1.44
	L588.234,1099.916z M894.951,1192.314h-0.48l-0.96-0.721l-1.2-2.16l0.24-4.8l0.24-2.16l1.439-0.239l0.961,0.721l1.198,3.358
	l0.24,0.722v0.96l-0.72,3.358l-0.48,0.48L894.951,1192.314z M886.791,1134.956l-1.68,0.24l-0.96-0.24l-3.842-2.64l-0.72-0.48v-1.68
	l1.2-1.44l0.479-0.479l0.961,0.239l5.278,4.319l0.24,0.72l-0.24,1.2L886.791,1134.956z M458.635,1260.475h-0.24h-0.238l-0.96-1.198
	l-0.24-0.48v-3.84l0.24-0.96l0.238-0.72l2.16-0.48l1.44,1.44l0.479,0.96l-0.72,4.08l-0.72,0.72L458.635,1260.475z M709.913,931.196
	l-0.48,0.479l-1.92-1.92l-1.68-0.72l-2.88-1.44l-0.24-0.479l-0.72-1.44l4.56-0.24h1.2l2.16,2.882V931.196L709.913,931.196z
	 M838.071,1092.716l-0.479,0.24l-0.24-0.24l-0.96-0.24l-1.68-1.438l-2.4-6.96l0.24-1.44l6,6.96v2.4L838.071,1092.716z
	 M623.514,1360.075l-1.198,0.479l-0.722-0.239l-2.64-0.721l3.6-5.76l0.72-0.72l1.682-0.48l0.24,0.722l-1.44,6.479L623.514,1360.075z
	"/>
</svg>
