<?xml version="1.0" encoding="UTF-8" standalone="no"?>
<!-- Created with Inkscape (http://www.inkscape.org/) -->

<svg
   xmlns:dc="http://purl.org/dc/elements/1.1/"
   xmlns:cc="http://creativecommons.org/ns#"
   xmlns:rdf="http://www.w3.org/1999/02/22-rdf-syntax-ns#"
   xmlns:svg="http://www.w3.org/2000/svg"
   xmlns="http://www.w3.org/2000/svg"
   xmlns:sodipodi="http://sodipodi.sourceforge.net/DTD/sodipodi-0.dtd"
   xmlns:inkscape="http://www.inkscape.org/namespaces/inkscape"
   width="728px"
   height="90px"
   id="svg3004"
   version="1.1"
   inkscape:version="0.48.4 r9939"
   sodipodi:docname="unhcr.svg">
  <defs
     id="defs3006" />
  <sodipodi:namedview
     id="base"
     pagecolor="#ffffff"
     bordercolor="#666666"
     borderopacity="1.0"
     inkscape:pageopacity="0.0"
     inkscape:pageshadow="2"
     inkscape:zoom="6.0044805"
     inkscape:cx="27.838684"
     inkscape:cy="34.416905"
     inkscape:document-units="px"
     inkscape:current-layer="layer1"
     showgrid="false"
     inkscape:window-width="1600"
     inkscape:window-height="849"
     inkscape:window-x="0"
     inkscape:window-y="26"
     inkscape:window-maximized="1" />
  <metadata
     id="metadata3009">
    <rdf:RDF>
      <cc:Work
         rdf:about="">
        <dc:format>image/svg+xml</dc:format>
        <dc:type
           rdf:resource="http://purl.org/dc/dcmitype/StillImage" />
        <dc:title></dc:title>
      </cc:Work>
    </rdf:RDF>
  </metadata>
  <g
     id="layer1"
     inkscape:label="Layer 1"
     inkscape:groupmode="layer">
    <path
       inkscape:connector-curvature="0"
       id="path3166"
       d="m 36.17424,48.921403 0,-47.9308737 119.82719,0 119.82718,0 0,47.9308737 0,47.930874 -119.82718,0 -119.82719,0 0,-47.930874 z"
       style="fill:#fefefe" />
    <g
       id="g3113">
      <rect
         y="0.23370022"
         x="36.639305"
         height="88.767044"
         width="239.32127"
         id="rect2984"
         style="fill:#1a1a1a" />
      <path
         style="fill:#ffffff"
         d="m 189.02059,82.507273 c -0.0243,-0.148833 -0.11654,-1.133365 -0.20499,-2.187844 -0.14055,-1.675776 -0.14699,-1.967539 -0.0511,-2.316659 0.24568,-0.894494 0.91816,-2.302975 1.16182,-2.433371 0.0853,-0.04565 0.61578,-0.08389 1.17886,-0.08499 l 1.02378,-0.002 0.39943,-0.530284 c 0.54274,-0.720553 1.39495,-1.623323 1.79244,-1.898781 0.31415,-0.21771 0.32246,-0.234318 0.2061,-0.41191 -0.0667,-0.101773 -0.12125,-0.235189 -0.12125,-0.296469 0,-0.06129 0.22965,-0.35504 0.51034,-0.652786 0.46228,-0.490405 0.53184,-0.536067 0.73893,-0.485061 0.56168,0.138345 1.62658,0.97076 1.62658,1.271471 0,0.243113 -0.51671,0.984835 -0.78001,1.119673 -0.1202,0.06156 -0.40447,0.137106 -0.63171,0.167878 -0.63341,0.08577 -1.33282,0.457764 -1.86924,0.99419 -0.26049,0.260496 -0.47362,0.511039 -0.47362,0.556773 0,0.04573 0.40441,0.321536 0.8987,0.6129 0.49429,0.291356 0.91262,0.543336 0.92963,0.559952 0.0463,0.04521 -0.81701,1.392975 -0.89225,1.392975 -0.0357,0 -0.32687,-0.143792 -0.64709,-0.319539 l -0.58222,-0.319539 -1.69471,0 -1.6947,0 0.0441,0.459338 c 0.0243,0.252635 0.0813,1.121358 0.12669,1.930496 l 0.0826,1.471166 -0.20337,0.406126 c -0.11186,0.223374 -0.34427,0.599807 -0.51646,0.836514 l -0.31308,0.430379 -0.0442,-0.27061 z m -84.16575,-1.807337 c -0.26927,-0.130109 -1.64361,-1.439668 -1.57886,-1.504423 0.0174,-0.01742 0.15489,0.0037 0.30546,0.04684 0.15058,0.04319 0.54688,0.07852 0.88066,0.07852 0.51528,0 0.67969,-0.03639 1.08937,-0.241109 0.55832,-0.278989 1.11948,-0.842816 1.41056,-1.417228 l 0.20341,-0.401405 -1.17527,-0.03349 c -1.34645,-0.03837 -1.62823,-0.122008 -1.98356,-0.588759 -0.20867,-0.274085 -0.22964,-0.358995 -0.22401,-0.90718 0.01,-0.951939 0.55575,-2.135736 1.37351,-2.978009 0.50716,-0.522375 1.0553,-0.624739 1.58669,-0.296325 0.49746,0.307453 1.11264,1.32433 1.34601,2.224943 0.50063,1.931958 -0.0272,3.941979 -1.42243,5.417284 -0.67488,0.713586 -1.21011,0.890963 -1.81154,0.600342 z m 2.15689,-5.404078 c 0,-0.337841 -0.26229,-1.015057 -0.4858,-1.254327 -0.17115,-0.183216 -0.28646,-0.232713 -0.54215,-0.232713 -0.76151,0 -1.35069,1.241649 -0.75392,1.588821 0.0793,0.04614 0.5127,0.085 0.96305,0.08633 0.81032,0.0024 0.81882,7.99e-4 0.81882,-0.188112 z m 3.75458,5.404078 c -0.26927,-0.130109 -1.64361,-1.439668 -1.57885,-1.504423 0.0174,-0.01742 0.15488,0.0037 0.30546,0.04684 0.15058,0.04319 0.54687,0.07852 0.88065,0.07852 0.51529,0 0.6797,-0.03639 1.08937,-0.241109 0.56113,-0.280395 1.11975,-0.843335 1.41494,-1.425863 l 0.20778,-0.410033 -0.95603,0 c -1.52169,0 -2.10396,-0.209194 -2.37274,-0.852466 -0.34507,-0.825865 0.25104,-2.5105 1.27255,-3.59631 0.39661,-0.421576 0.66955,-0.545317 1.13486,-0.514522 0.74395,0.04925 1.63327,1.335522 1.8989,2.746495 l 0.0865,0.459338 3.46089,0 c 1.99736,0 3.46089,-0.0304 3.46089,-0.07189 0,-0.03954 -0.20201,-0.503993 -0.44893,-1.032119 l -0.44892,-0.960223 0.4462,-0.570266 0.4462,-0.570265 0.80196,1.602385 0.80194,1.602377 1.35465,0 1.35465,0 -0.44387,-0.938647 c -0.24412,-0.516255 -0.46237,-0.983749 -0.48498,-1.038877 -0.0226,-0.05513 0.16783,-0.358851 0.42321,-0.674931 l 0.46433,-0.574691 0.77805,1.613569 0.77806,1.613577 0.88688,0 0.88686,0 -0.0532,-0.299568 c -0.0817,-0.460193 -0.32198,-1.109368 -0.50663,-1.36869 -0.0915,-0.128535 -0.16641,-0.258076 -0.16641,-0.287865 0,-0.0298 0.22113,-0.340014 0.4914,-0.689382 l 0.49138,-0.635212 0.26651,0.374844 c 0.4608,0.648113 0.61065,1.164832 0.56474,1.947255 -0.0219,0.373462 -0.0654,0.74193 -0.0967,0.818819 -0.0534,0.131419 0.0969,0.139799 2.50801,0.139799 l 2.56486,0 -8e-4,-0.179741 c -8e-4,-0.09886 -0.10767,-1.419952 -0.2383,-2.935766 -0.13064,-1.515814 -0.23836,-2.809948 -0.23938,-2.875852 -0.001,-0.06591 -0.10948,-0.181067 -0.24101,-0.255911 -0.14838,-0.08443 -0.23915,-0.200783 -0.23915,-0.306542 0,-0.09375 0.21569,-0.514434 0.47931,-0.934852 0.2821,-0.449871 0.47931,-0.697953 0.47931,-0.602931 0,0.304114 0.30913,0.561934 1.04748,0.873605 0.40124,0.169379 0.74445,0.346348 0.76267,0.393272 0.0182,0.04692 -0.0985,0.362478 -0.25936,0.701221 -0.24174,0.50905 -0.31849,0.60766 -0.44233,0.568356 -0.18983,-0.06025 -0.19151,0.08288 -0.0264,2.239922 0.18324,2.393284 0.17408,2.660874 -0.12271,3.583264 -0.13933,0.433008 -0.32104,0.945269 -0.40381,1.138358 l -0.15048,0.351062 -2.7841,0 -2.78409,0 -0.17959,-0.319539 c -0.0988,-0.175747 -0.19454,-0.319539 -0.21281,-0.319539 -0.0183,0 -0.10656,0.143792 -0.19622,0.319539 l -0.16301,0.319539 -1.30435,0 -1.30435,0 -0.14904,-0.330515 -0.14904,-0.330523 -0.28466,0.330523 -0.28466,0.330515 -1.69603,0 -1.69602,0 -0.12785,-0.319539 c -0.0703,-0.175747 -0.15091,-0.317878 -0.17909,-0.315841 -0.0282,0.0021 -0.15909,0.144161 -0.2909,0.315841 l -0.23965,0.312142 -3.51834,0.0037 -3.51833,0.0037 -0.0993,0.379453 c -0.16217,0.619674 -0.78078,1.787694 -1.24465,2.350075 -0.66011,0.80027 -1.31253,1.04157 -1.96446,0.726544 z m 2.11841,-5.591113 c -0.0677,-0.45162 -0.31247,-0.968115 -0.54893,-1.158433 -0.25656,-0.206478 -0.71273,-0.179972 -0.99536,0.05785 -0.28799,0.242322 -0.51414,0.771886 -0.44585,1.04399 0.0891,0.355096 0.31073,0.434174 1.21668,0.434174 l 0.83008,0 -0.0566,-0.377576 z m 131.19193,5.565981 c -0.29331,-0.154889 -1.50043,-1.321702 -1.50043,-1.45034 0,-0.03652 0.0989,-0.03876 0.21968,-0.005 0.12083,0.03379 0.54322,0.06144 0.93865,0.06144 0.84813,0 1.25376,-0.164491 1.84641,-0.748768 0.3135,-0.309066 0.8267,-1.064145 0.82898,-1.219673 8e-4,-0.02817 -0.52949,-0.06549 -1.17755,-0.08295 -1.36518,-0.03678 -1.66129,-0.133032 -2.00425,-0.651501 -0.18052,-0.272894 -0.21084,-0.400446 -0.20116,-0.846275 0.02,-0.921 0.56082,-2.095746 1.34665,-2.924974 0.68416,-0.721959 1.29277,-0.734229 1.96665,-0.03965 0.44035,0.45389 0.81781,1.193935 0.99987,1.960357 0.0731,0.307557 0.14433,0.604129 0.15837,0.65905 0.0197,0.0769 0.54028,0.09986 2.26482,0.09986 l 2.23928,0 0.002,-0.219683 c 0.003,-0.330644 0.23999,-0.788016 0.78062,-1.504231 0.98675,-1.307259 2.06369,-2.190465 2.67092,-2.190465 0.7799,0 1.41968,0.810591 1.41968,1.798726 0,0.34094 -0.32424,1.349334 -0.55619,1.729793 -0.0892,0.146309 -0.16231,0.29297 -0.16248,0.325922 0,0.03295 1.08983,0.05991 2.42222,0.05991 l 2.42252,0 0.87273,-1.097074 c 1.36244,-1.712674 1.83393,-2.22575 2.21482,-2.41014 0.94577,-0.457836 1.80348,0.09217 2.54584,1.632501 0.39805,0.825913 0.5323,1.508233 0.39746,2.019951 -0.0709,0.269036 -1.05623,2.161827 -1.24328,2.388284 -0.008,0.0094 -0.92533,-0.359042 -2.039,-0.818819 -1.11366,-0.459785 -2.05521,-0.835971 -2.09233,-0.835971 -0.0371,0 -0.19876,0.197715 -0.35921,0.439367 l -0.29172,0.439366 -3.18567,0 -3.18566,0 -0.31637,-0.199712 c -0.38587,-0.243585 -0.40143,-0.24404 -0.68615,-0.01997 -0.22533,0.177328 -0.26838,0.180276 -3.20848,0.219683 l -2.98009,0.03994 -0.22166,0.639078 c -0.41175,1.18716 -1.28075,2.424495 -1.9384,2.760003 -0.38513,0.196477 -0.82604,0.193529 -1.20785,-0.0081 z m 21.69884,-4.888837 c 0.11321,-0.75627 -0.21855,-1.680065 -0.79378,-2.210293 -0.40999,-0.377911 -0.60617,-0.403146 -1.00857,-0.129701 -0.32512,0.220922 -1.32326,1.420528 -1.21571,1.461069 0.0383,0.01443 0.69868,0.291308 1.46757,0.615305 0.76889,0.323989 1.42086,0.592234 1.44883,0.5961 0.028,0.0038 0.0737,-0.14575 0.10166,-0.33248 z M 246.3022,75.3466 c -0.0216,-0.07689 -0.0644,-0.265617 -0.095,-0.419395 -0.13351,-0.67072 -0.5099,-1.118387 -0.94031,-1.118387 -0.65378,0 -1.278,0.993471 -0.91323,1.453408 0.15,0.189127 0.26687,0.211 1.16372,0.21787 0.74834,0.0058 0.82058,-0.0066 0.78483,-0.133496 z m 8.78828,-0.303474 0.50696,-0.283511 0,-0.580163 c 0,-0.689119 -0.1528,-0.929827 -0.59026,-0.929827 -0.38267,0 -1.0605,0.530227 -1.43557,1.12298 -0.12896,0.203794 -0.12803,0.205248 0.36911,0.576377 0.27411,0.204641 0.53089,0.373325 0.5706,0.374859 0.0397,0.0015 0.30033,-0.124788 0.57916,-0.280715 z M 44.857414,80.649992 c -0.476327,-0.128463 -0.870705,-0.378031 -1.235546,-0.781865 -0.82452,-0.912651 -0.86497,-2.021468 -0.148799,-4.078973 0.235192,-0.675689 0.690334,-1.691864 0.560796,-1.252066 -0.148392,0.503817 -0.305165,1.950962 -0.268847,2.481693 0.109289,1.59712 1.252432,2.36268 2.896941,1.940082 0.583379,-0.149912 1.521129,-0.585188 1.997055,-0.926975 0.339334,-0.243689 0.352368,-0.268022 0.311212,-0.581098 -0.177127,-1.347377 -0.363375,-1.931191 -0.867512,-2.719279 -0.336218,-0.525594 -0.379983,-0.383958 0.376849,-1.219577 l 0.377423,-0.416711 0.187009,0.296884 c 0.102856,0.163285 0.247261,0.413716 0.3209,0.55651 l 0.133889,0.259625 1.35599,0 1.35599,0 0,-0.500949 0,-0.500942 0.718963,-0.715632 0.718963,-0.715632 0,1.723451 c 0,1.568194 0.01316,1.735353 0.146089,1.855651 0.128786,0.116552 0.417352,0.13221 2.436486,0.13221 1.259719,0 2.290512,-0.02696 2.290651,-0.05991 1.6e-4,-0.03295 -0.07675,-0.319707 -0.170859,-0.637233 l -0.171113,-0.577319 0.550312,-0.513915 0.550312,-0.513915 0.186741,0.611926 c 0.102708,0.336562 0.258989,0.854575 0.347292,1.151147 l 0.160549,0.539223 3.428476,0 3.428475,0 0.45088,-0.254465 0.45088,-0.254457 -0.252024,-0.210401 C 67.098192,74.446794 66.083885,73.888128 65.503639,73.677512 65.218422,73.573981 64.79797,73.487713 64.569302,73.485804 l -0.415762,-0.0034 0.519252,-0.475027 c 0.602713,-0.551381 1.052433,-0.756892 1.519273,-0.694279 0.177265,0.02378 0.936741,0.336779 1.687726,0.695549 1.533159,0.732448 2.912131,1.219721 3.862804,1.364952 0.351493,0.0537 0.651029,0.107349 0.665635,0.11922 0.01461,0.01187 -0.190032,0.343688 -0.45475,0.737384 l -0.481306,0.715808 -0.344098,-0.06652 c -0.532095,-0.10286 -1.737989,-0.08336 -2.181448,0.03528 -0.568035,0.151957 -1.125879,0.452939 -1.670257,0.90118 l -0.471279,0.388049 -3.854967,0.02286 -3.854969,0.02286 -0.09881,-0.2994 -0.09881,-0.299409 -0.261311,0.302292 -0.261311,0.302292 -2.662678,-0.02647 c -2.242397,-0.0223 -2.707788,-0.04688 -2.94848,-0.15572 -0.377807,-0.170857 -0.552222,-0.547354 -0.555666,-1.199478 l -0.0027,-0.50718 -0.244725,0.299567 -0.244724,0.299568 -0.851013,8e-5 -0.851013,8e-5 -0.01095,0.658946 c -0.01159,0.697578 -0.246908,1.64196 -0.618484,2.482164 -0.221762,0.501437 -0.50678,0.720313 -1.443718,1.108665 -1.17899,0.488671 -2.297588,0.646236 -3.083366,0.43431 z m 52.484307,0.0054 c -0.721451,-0.205312 -1.373851,-0.76699 -1.689256,-1.454359 -0.234839,-0.511789 -0.24935,-1.566892 -0.03296,-2.396543 0.162215,-0.621935 0.764999,-2.226006 0.816969,-2.174041 0.01828,0.01828 -0.02551,0.404081 -0.0973,0.857348 -0.287578,1.815693 0.01889,2.887523 0.964202,3.372144 0.878202,0.450215 2.366172,0.142339 3.749374,-0.775769 0.42496,-0.282073 0.43053,-0.290884 0.39395,-0.623133 -0.13065,-1.186729 -0.47959,-2.215165 -1.00293,-2.955961 l -0.15712,-0.222407 0.38683,-0.445534 c 0.21276,-0.245046 0.44419,-0.517789 0.5143,-0.606094 0.12571,-0.158331 0.12985,-0.157197 0.3005,0.08245 0.27999,0.393217 0.71576,1.373739 0.85918,1.933244 0.27572,1.075601 0.17188,2.068441 -0.37774,3.611871 l -0.24788,0.696076 -0.77013,0.394184 c -0.42357,0.216799 -1.021772,0.472039 -1.329332,0.567198 -0.692976,0.214411 -1.782859,0.280995 -2.28066,0.139327 z M 224.32254,80.034583 c -0.30755,-0.2662 -0.54341,-0.50873 -0.52414,-0.53895 0.0738,-0.115745 0.86367,-0.733958 0.9377,-0.733958 0.0428,0 0.16499,0.09317 0.27151,0.207046 0.35519,0.379732 0.44274,0.387856 0.82287,0.07636 0.19023,-0.155871 0.37811,-0.281697 0.41753,-0.279604 0.0394,0.0021 0.31652,0.231074 0.6158,0.508866 l 0.54415,0.505063 -0.43294,0.369867 c -0.23811,0.203427 -0.45895,0.369867 -0.49075,0.369867 -0.0318,0 -0.21666,-0.130149 -0.41079,-0.289223 l -0.35295,-0.289215 -0.35296,0.289215 c -0.19413,0.159074 -0.38285,0.289095 -0.41939,0.288951 -0.0365,0 -0.31808,-0.218086 -0.62564,-0.484286 z M 51.109496,79.929918 50.584931,79.420581 50.89135,79.151042 c 0.40362,-0.35504 0.547925,-0.463636 0.620192,-0.466711 0.03283,-0.0014 0.202895,0.126841 0.377931,0.284981 l 0.318248,0.287513 0.391677,-0.287513 c 0.215422,-0.15814 0.422809,-0.28586 0.46086,-0.283823 0.03805,0.002 0.314508,0.229086 0.614352,0.504568 l 0.54517,0.50087 -0.454491,0.374164 c -0.249971,0.205792 -0.47984,0.374165 -0.51082,0.374165 -0.03098,0 -0.20782,-0.129669 -0.392976,-0.288161 l -0.336647,-0.288152 -0.369863,0.288152 c -0.203424,0.158492 -0.403851,0.288161 -0.445393,0.288161 -0.04154,0 -0.311584,-0.229206 -0.600094,-0.509338 z m 15.929457,-0.106814 -0.601002,-0.542178 0.295721,-0.262038 c 0.162646,-0.144128 0.376604,-0.319012 0.475462,-0.388647 0.211576,-0.149017 0.2674,-0.119516 0.968169,0.511606 l 0.428947,0.386315 -0.483147,0.418564 -0.483148,0.418556 -0.601002,-0.542178 z m 111.797567,-2.318791 -1.05158,-0.60341 -0.18254,0.17148 c -0.18,0.169109 -0.22409,0.171481 -3.18668,0.171481 l -3.00416,0 -0.0524,-0.238736 c -0.0759,-0.345597 -0.1556,-0.353689 -0.3948,-0.04009 l -0.21267,0.278822 -2.73199,-0.0035 c -1.50259,-0.0019 -2.88667,-0.03338 -3.07572,-0.06993 -0.47005,-0.09087 -0.71861,-0.350407 -0.87529,-0.913946 l -0.13101,-0.471208 -0.5632,0.04321 c -0.90243,0.06925 -1.48169,0.333783 -2.48697,1.135762 l -0.30041,0.239655 -3.72154,0.02222 -3.72153,0.02221 -0.15178,-0.281834 c -0.0835,-0.155016 -0.17308,-0.281594 -0.19912,-0.281298 -0.026,0 -0.13462,0.12871 -0.24131,0.285356 l -0.19398,0.284806 -2.08646,-0.02573 c -2.28805,-0.02821 -2.42256,-0.05546 -2.61143,-0.529181 -0.093,-0.233128 0.0338,-0.873269 0.2953,-1.491385 l 0.13423,-0.317271 0.10946,0.208939 c 0.17478,0.333575 0.47873,0.385652 2.25067,0.385652 1.27498,0 1.62568,-0.02195 1.59522,-0.09986 -0.0215,-0.05492 -0.38125,-0.669251 -0.7995,-1.365175 l -0.76044,-1.265327 0.40177,-0.672231 0.40176,-0.67223 0.89307,1.458248 c 0.49119,0.802036 1.04787,1.718865 1.23707,2.037406 l 0.34401,0.579165 3.42715,0 3.42715,0 0.44051,-0.24861 c 0.52175,-0.294455 0.51607,-0.309401 -0.31442,-0.827023 -0.91449,-0.56997 -1.61633,-0.855087 -2.24353,-0.911397 l -0.55727,-0.05003 0.55572,-0.471113 c 1.02954,-0.872789 1.26253,-0.877654 2.97684,-0.06217 2.03938,0.970121 3.13446,1.350915 4.31227,1.499509 0.23067,0.0291 0.4194,0.06876 0.4194,0.08814 0,0.12454 -0.51005,0.743032 -0.61276,0.743032 -0.10274,0 -0.10755,0.02195 -0.0263,0.119828 0.0846,0.101997 0.48429,0.119827 2.68592,0.119827 2.01647,0 2.58625,-0.02201 2.58545,-0.09986 -8e-4,-0.05492 -0.0736,-0.33145 -0.16235,-0.614514 l -0.16131,-0.514658 0.53899,-0.543144 c 0.35246,-0.355184 0.55656,-0.508827 0.58975,-0.443968 0.0279,0.05456 0.18785,0.575506 0.35542,1.157666 l 0.30467,1.058474 2.51412,0 2.51412,0 -0.0437,-0.339511 c -0.024,-0.18673 -0.14444,-1.558831 -0.26754,-3.049106 l -0.22381,-2.709596 -0.22138,-0.126314 c -0.38972,-0.222359 -0.37863,-0.2772 0.28274,-1.397632 l 0.32604,-0.552356 0.10532,0.258108 c 0.10618,0.260217 0.2696,0.356797 1.48564,0.87795 0.21261,0.09112 0.37437,0.195789 0.35948,0.2326 -0.0149,0.03681 -0.1529,0.344328 -0.30667,0.683367 -0.24818,0.547179 -0.2998,0.611446 -0.45934,0.571975 -0.0989,-0.02445 -0.17926,-0.01682 -0.17867,0.01698 0.0107,0.612118 0.49496,5.16329 0.56599,5.319201 0.10344,0.227025 0.54765,0.548058 1.44932,1.047433 0.29618,0.164036 0.55179,0.322296 0.56802,0.351685 0.0162,0.02939 -0.17634,0.364634 -0.42794,0.74499 l -0.45744,0.691554 -1.05158,-0.603409 z M 88.747434,76.704642 c 0.09216,-1.444006 -0.100198,-5.928921 -0.312695,-7.290462 -0.04088,-0.261942 0.0069,-0.340613 0.719025,-1.184579 0.451389,-0.534941 0.778082,-0.860679 0.800208,-0.797874 0.02057,0.05837 0.109177,0.533671 0.196917,1.056205 l 0.159526,0.950078 -0.16821,0.236227 c -0.163876,0.23014 -0.165859,0.268453 -0.07696,1.486416 0.17629,2.415173 0.07671,3.865338 -0.335125,4.880586 -0.139397,0.343632 -0.976627,1.761819 -1.040096,1.761819 -0.007,0 0.01885,-0.494287 0.05741,-1.098416 z M 182.2513,75.7964 c 0.0274,-1.938373 -0.0616,-4.119731 -0.23794,-5.836087 l -0.0876,-0.852819 0.74397,-0.881952 c 0.40918,-0.485076 0.75512,-0.870792 0.76876,-0.857163 0.0136,0.01364 0.10848,0.495325 0.21076,1.070424 l 0.18597,1.045644 -0.1834,0.185037 c -0.17976,0.18137 -0.18173,0.201677 -0.0994,1.023827 0.13926,1.390539 0.12093,3.775931 -0.0343,4.466031 -0.15787,0.701844 -0.46612,1.387096 -0.94531,2.10149 l -0.3495,0.521064 0.028,-1.985496 z m 25.16076,0.151413 c 0.0326,-1.796888 -0.0492,-3.839486 -0.23516,-5.871396 l -0.0894,-0.976376 0.74654,-0.888095 c 0.85515,-1.017333 0.75603,-1.05539 0.99455,0.381841 l 0.14873,0.896148 -0.17757,0.189023 c -0.17378,0.184981 -0.17576,0.20937 -0.0923,1.140907 0.0469,0.523541 0.0876,1.56301 0.0904,2.309932 0.008,2.009406 -0.19724,2.803877 -1.06646,4.136115 l -0.35317,0.541308 0.0338,-1.859407 z M 73.419126,76.922919 c 1.076786,-0.359218 3.028954,-1.244757 3.43278,-1.557162 0.154055,-0.119188 0.152389,-0.13344 -0.108738,-0.930099 -0.373544,-1.139628 -1.029187,-2.40291 -1.692659,-3.261384 l -0.567279,-0.734006 -0.177194,0.166464 c -0.09746,0.09156 -0.23152,0.166464 -0.297919,0.166464 -0.234176,0 -0.697489,-0.665392 -0.869755,-1.24911 -0.09075,-0.307517 -0.08159,-0.359793 0.13209,-0.753729 0.126285,-0.232809 0.345578,-0.546572 0.487317,-0.697235 0.211872,-0.225219 0.295512,-0.264458 0.470256,-0.220602 0.365985,0.09186 0.739539,0.443776 1.183231,1.114697 0.823374,1.245044 1.47457,2.745488 2.040845,4.702378 l 0.294904,1.019106 0.492755,-0.46167 0.492755,-0.46167 0,-2.516275 0,-2.516283 0.71676,-0.713443 0.716762,-0.713435 0.02217,3.976888 c 0.02136,3.830891 0.02787,3.981051 0.17724,4.090237 0.125651,0.09184 0.604929,0.113349 2.526529,0.113349 l 2.371463,0 -0.03387,-0.339511 c -0.01863,-0.18673 -0.137065,-1.560757 -0.263191,-3.053396 -0.158303,-1.873434 -0.259192,-2.72384 -0.325783,-2.74604 -0.195648,-0.06522 -0.409925,-0.349847 -0.372141,-0.494335 0.02126,-0.08131 0.231289,-0.452763 0.466723,-0.825441 l 0.428062,-0.677607 0.120479,0.253666 c 0.123614,0.260265 0.261549,0.347874 1.250594,0.794255 l 0.572225,0.258259 -0.310219,0.665185 c -0.268716,0.576193 -0.331914,0.658306 -0.47237,0.613731 -0.09153,-0.02905 -0.162149,-0.01552 -0.162149,0.03108 0,0.0454 0.07385,1.110702 0.164102,2.367338 0.184907,2.574487 0.182318,2.60148 -0.403957,4.211294 l -0.254564,0.698992 -2.808383,-0.0019 c -2.940298,-0.0021 -3.394229,-0.04388 -3.715564,-0.342434 -0.263947,-0.245231 -0.337191,-0.47557 -0.397889,-1.251308 l -0.05297,-0.677039 -0.580738,0.813946 c -1.027777,1.440498 -1.127284,1.479562 -3.852868,1.512547 l -2.037062,0.02465 1.197222,-0.399392 z m 68.716224,0.205855 c -0.91993,-0.330459 -0.90816,-1.462123 0.0424,-4.082017 0.41346,-1.1395 0.67555,-1.475128 1.151,-1.47393 0.4133,10e-4 0.9726,0.273861 1.74803,0.852674 1.16975,0.873149 1.61577,1.541273 1.53251,2.295657 -0.0246,0.223167 -0.19978,0.873085 -0.38922,1.444261 l -0.34444,1.038503 -1.71752,0.01726 c -1.29079,0.01297 -1.79338,-0.01 -2.02281,-0.0924 z m 3.27656,-2.036335 c -0.0857,-0.723125 -0.58488,-1.391489 -1.31049,-1.754462 -0.6634,-0.331849 -0.934,-0.161311 -1.22161,0.769874 -0.2547,0.824595 -0.19337,1.162587 0.23984,1.321877 0.0659,0.02423 0.61913,0.04689 1.22938,0.05037 l 1.10954,0.0063 -0.0467,-0.393968 z m 53.2573,2.012713 c 0.0226,-0.07749 0.10456,-0.548657 0.18216,-1.047042 l 0.1411,-0.906157 0.72226,-0.62517 c 0.39724,-0.343848 0.98792,-0.894614 1.31261,-1.223931 l 0.59035,-0.598753 -0.51047,-0.572662 c -0.28075,-0.314961 -0.75859,-0.783941 -1.06186,-1.042177 l -0.55142,-0.469531 -0.22536,0.189631 c -0.14274,0.120107 -0.28554,0.173901 -0.38949,0.146716 -0.33135,-0.08665 -1.03156,-1.085027 -1.0366,-1.478012 -0.003,-0.269635 0.32533,-1.003625 0.58318,-1.301922 0.42562,-0.492378 0.64921,-0.36946 1.95587,1.075241 0.41925,0.463531 1.0132,1.1843 1.31988,1.601698 0.30667,0.417398 0.5824,0.787464 0.61274,0.822366 0.12487,0.143689 1.43805,-2.048893 1.43805,-2.401073 0,-0.05794 -0.0736,-0.204897 -0.16356,-0.326577 -0.23086,-0.312246 -0.12979,-0.515984 0.57616,-1.161413 l 0.58596,-0.535732 0.0262,0.263436 c 0.0325,0.32625 0.13521,0.442874 0.91397,1.037368 l 0.62065,0.473805 -0.24351,0.334741 c -0.56391,0.77521 -0.67853,0.88085 -0.85387,0.787009 -0.14829,-0.07936 -0.21515,-0.01162 -0.73401,0.743728 -0.31396,0.457076 -0.75,1.02707 -0.96897,1.266661 -0.21896,0.239582 -0.39812,0.456757 -0.39812,0.482608 0,0.02586 0.32771,0.542066 0.72825,1.147129 l 0.72824,1.100126 -0.0436,0.479309 c -0.024,0.264338 -0.16516,0.783853 -0.31464,1.158329 l -0.27107,0.679021 -2.6561,0.02106 c -2.50524,0.01986 -2.65377,0.01305 -2.61502,-0.119827 z m 4.92323,-1.766157 c 0,-0.08107 -0.29139,-0.534429 -0.64752,-1.007459 l -0.64753,-0.860055 -0.41094,0.396396 c -0.22603,0.218022 -0.69854,0.642226 -1.05003,0.94268 -0.3515,0.300455 -0.65107,0.575435 -0.66571,0.611063 -0.0147,0.03563 0.74925,0.06478 1.69755,0.06478 1.62271,0 1.72418,-0.0087 1.72418,-0.147404 z m 15.62118,1.805013 c -0.0172,-0.05492 -0.0754,-0.296309 -0.1294,-0.536418 -0.0981,-0.436291 -0.0983,-0.436443 -0.2259,-0.242962 -0.0702,0.106487 -0.20595,0.287018 -0.30157,0.401174 l -0.17386,0.207556 -2.03798,-0.284142 c -1.12088,-0.156279 -2.04712,-0.302116 -2.05829,-0.324085 -0.0529,-0.10389 0.76922,-2.328098 0.90683,-2.453469 0.0862,-0.07854 0.77353,-0.467286 1.5274,-0.86389 1.28623,-0.67668 1.36975,-0.734525 1.35561,-0.93891 -0.0125,-0.181091 0.0882,-0.304745 0.5978,-0.733502 0.40526,-0.341012 0.63041,-0.482992 0.66464,-0.419132 0.0285,0.05311 0.25986,1.094126 0.51421,2.313368 l 0.46244,2.216803 2.42289,0 c 1.33259,0 2.42241,-0.009 2.42182,-0.01997 -8e-4,-0.01099 -0.0881,-0.289583 -0.19458,-0.619108 l -0.19352,-0.599135 0.45422,-0.454777 c 0.24981,-0.250119 0.50518,-0.465808 0.56748,-0.479308 0.0817,-0.0177 0.20489,0.275786 0.44224,1.053912 l 0.32897,1.078444 2.34276,0.02119 c 1.86301,0.01685 2.33497,7.99e-4 2.30467,-0.07989 -0.021,-0.05559 -0.10075,-0.316767 -0.17729,-0.580387 l -0.13917,-0.479309 0.54666,-0.496348 c 0.30066,-0.27299 0.56976,-0.470705 0.59799,-0.439366 0.0282,0.03134 0.18756,0.513691 0.35407,1.071886 0.1665,0.558195 0.32362,1.003752 0.34915,0.990116 0.0255,-0.01364 0.9631,-0.582336 2.08348,-1.263777 3.4629,-2.106203 3.99503,-2.364934 4.65916,-2.265349 0.72997,0.109474 1.83236,1.001643 2.1824,1.766236 0.37807,0.825817 0.34052,1.218164 -0.26931,2.813463 l -0.28246,0.738934 -4.70264,0 c -2.86355,0 -4.70265,-0.02921 -4.70265,-0.07468 0,-0.04108 -0.0373,-0.172847 -0.0829,-0.292826 l -0.0829,-0.218149 -0.30102,0.293944 -0.30102,0.293936 -2.62459,-0.02108 -2.62459,-0.02108 -0.0884,-0.262614 -0.0884,-0.262605 -0.27389,0.282577 -0.27388,0.282584 -2.8627,0 c -2.22024,0 -2.86969,-0.02241 -2.89391,-0.09986 z m 21.64142,-1.83735 c -0.21181,-0.700246 -0.98222,-1.630808 -1.57162,-1.898318 -0.52406,-0.237857 -0.9342,-0.204425 -1.59893,0.130332 -0.57659,0.290365 -3.07068,1.748622 -3.21258,1.878347 -0.043,0.03936 1.33344,0.06938 3.1808,0.06938 l 3.2567,0 -0.0544,-0.179741 z m -22.08737,-0.119827 c -0.008,-0.157381 -0.3878,-1.795315 -0.42554,-1.833061 -0.0415,-0.04154 -1.32755,0.588264 -2.02986,0.994095 -0.27615,0.15957 -0.58017,0.47946 -0.4803,0.505367 0.0125,0.0033 0.56201,0.08901 1.22106,0.190573 1.30333,0.20087 1.71909,0.235548 1.71464,0.143026 z M 45.540384,72.655114 44.981191,72.144786 45.334432,71.838444 c 0.636483,-0.55198 0.551447,-0.554776 1.201185,0.03955 l 0.584471,0.534621 -0.443111,0.378558 c -0.243712,0.208212 -0.473326,0.377599 -0.510255,0.376417 -0.03693,-0.0012 -0.318781,-0.231794 -0.626338,-0.512477 z m 52.514357,0.0654 c -0.280147,-0.247076 -0.538266,-0.475499 -0.573598,-0.507604 -0.03533,-0.03211 0.150256,-0.244192 0.412417,-0.471304 l 0.476655,-0.412933 0.60055,0.530044 0.600543,0.530051 -0.446224,0.390485 c -0.245427,0.21477 -0.47205,0.390485 -0.503608,0.390485 -0.03156,0 -0.286588,-0.202149 -0.566735,-0.449224 z M 57.600873,72.370772 c 0.117287,-0.382536 0.266017,-0.699711 0.353445,-0.753745 0.126504,-0.07818 0.108596,-0.284637 -0.02469,-0.284637 -0.176914,0 -0.526435,-0.468924 -0.525572,-0.705119 0.0011,-0.3135 0.33928,-0.974651 0.648486,-1.26798 0.343415,-0.325786 0.770051,-0.50333 1.209483,-0.50333 0.512251,0 0.654456,0.215745 0.445086,0.675266 -0.0826,0.181275 -0.139507,0.203467 -0.521816,0.203467 -0.479371,0 -0.871219,0.136715 -1.087186,0.379317 -0.140666,0.158012 -0.137014,0.166024 0.159769,0.350534 0.265134,0.164835 0.402695,0.188824 1.082604,0.188824 0.428382,0 0.778876,0.006 0.778876,0.01335 0,0.0073 -0.07014,0.176968 -0.155857,0.376952 -0.118372,0.276146 -0.209634,0.37553 -0.379453,0.41322 -0.767962,0.170426 -1.259729,0.404601 -1.716747,0.817485 -0.30293,0.273677 -0.323011,0.280947 -0.266428,0.0964 z m 52.693887,-0.701125 c 0.0451,-0.119587 0.16918,-0.366855 0.27576,-0.549479 l 0.19378,-0.332041 -0.23352,-0.08141 c -0.23665,-0.08249 -0.48408,-0.445669 -0.48265,-0.708426 0.002,-0.294583 0.38786,-0.960878 0.72367,-1.24832 0.40673,-0.348146 0.77532,-0.475378 1.27267,-0.439326 0.30713,0.02227 0.36334,0.05335 0.386,0.213388 0.0146,0.103035 -0.018,0.294711 -0.0723,0.425962 -0.0892,0.215337 -0.12482,0.233758 -0.36485,0.188727 -0.45424,-0.08521 -1.30687,0.258156 -1.30687,0.526305 0,0.04318 0.2025,0.171217 0.45,0.284526 0.39643,0.18149 0.52007,0.200719 1.0385,0.161511 0.32368,-0.02448 0.5885,-0.03229 0.5885,-0.01735 0,0.154705 -0.34089,0.759369 -0.42811,0.759369 -0.33579,0 -1.20791,0.360688 -1.63843,0.677623 -0.46203,0.340133 -0.48037,0.346468 -0.40213,0.138943 z m 59.43497,-0.320993 -0.58327,-0.535515 0.4572,-0.392698 c 0.31697,-0.272255 0.4881,-0.370266 0.55795,-0.319539 0.0554,0.04024 0.23099,0.176553 0.39019,0.302923 l 0.28944,0.229757 0.37181,-0.289671 c 0.2045,-0.159322 0.39454,-0.289678 0.42231,-0.289678 0.0278,0 0.30048,0.232704 0.606,0.517134 l 0.55549,0.517126 -0.27959,0.243665 c -0.15378,0.134015 -0.37159,0.31227 -0.48402,0.396117 l -0.20441,0.152444 -0.36976,-0.316048 -0.36975,-0.316056 -0.26462,0.223589 c -0.53443,0.451565 -0.45936,0.460033 -1.09497,-0.12355 z m 66.05471,-0.03698 c -0.15292,-0.134447 -0.41952,-0.370474 -0.59245,-0.524508 l -0.31443,-0.28006 0.47032,-0.41731 0.47033,-0.41731 0.58223,0.523165 c 0.6496,0.583686 0.64814,0.534829 0.0312,1.051348 l -0.36921,0.309122 -0.27801,-0.244447 z M 123.62993,70.415895 c -0.28186,-0.284381 -0.49651,-0.532376 -0.477,-0.551093 0.19573,-0.187761 0.84514,-0.689302 0.89254,-0.689302 0.0336,0 0.20541,0.13034 0.38174,0.289639 l 0.32059,0.289638 0.37177,-0.289638 c 0.20447,-0.159299 0.39481,-0.289639 0.42298,-0.289639 0.0282,0 0.31139,0.223366 0.62937,0.496365 l 0.57815,0.496364 -0.42279,0.378909 c -0.23254,0.208404 -0.46763,0.380467 -0.52242,0.382369 -0.0548,0.0019 -0.2389,-0.12236 -0.40911,-0.276138 -0.17022,-0.153778 -0.32869,-0.279597 -0.35216,-0.279597 -0.0235,0 -0.19326,0.125819 -0.37732,0.279597 -0.18407,0.153778 -0.37724,0.279597 -0.42927,0.279597 -0.052,0 -0.32521,-0.232681 -0.60707,-0.517071 z m 18.63473,-0.753321 -0.57538,-0.533287 0.37567,-0.321217 c 0.55956,-0.47843 0.54446,-0.476009 0.94164,-0.150559 l 0.3594,0.294504 0.36925,-0.287681 c 0.20309,-0.158228 0.39032,-0.287402 0.41605,-0.287058 0.0257,0 0.30649,0.231681 0.62388,0.514082 l 0.57708,0.51346 -0.48458,0.404904 -0.48457,0.404904 -0.36176,-0.318429 -0.36176,-0.318429 -0.22761,0.162062 c -0.12518,0.08914 -0.24866,0.196158 -0.27441,0.23781 -0.0257,0.04165 -0.10771,0.107796 -0.18215,0.146972 -0.10577,0.05567 -0.26111,-0.04531 -0.71075,-0.462038 z m 112.12803,-0.104266 -0.57478,-0.495917 0.46816,-0.4154 0.46817,-0.415393 0.2818,0.225522 c 0.15499,0.12403 0.42111,0.3695 0.59138,0.545486 l 0.30959,0.319962 -0.30237,0.265977 c -0.39354,0.346188 -0.54393,0.460032 -0.61181,0.463148 -0.0305,0.0014 -0.31401,-0.220626 -0.63014,-0.493385 z m -37.12947,-0.258826 -0.56129,-0.515106 0.49509,-0.397978 0.49509,-0.397986 0.32256,0.313948 c 0.17741,0.172671 0.34425,0.313947 0.37076,0.313947 0.0265,0 0.21974,-0.141764 0.42942,-0.315034 l 0.38124,-0.315033 0.59477,0.53232 0.59479,0.53232 -0.30827,0.266671 c -0.62811,0.543353 -0.63187,0.544487 -0.95662,0.286667 -0.15865,-0.125954 -0.33426,-0.262222 -0.39025,-0.302819 -0.0705,-0.0511 -0.20732,0.01651 -0.44468,0.219683 -0.18859,0.161423 -0.36953,0.293497 -0.4021,0.293497 -0.0326,0 -0.31179,-0.231794 -0.62051,-0.515097 z m -93.1336,-0.9627 -0.57658,-0.511143 0.45273,-0.403514 c 0.24901,-0.221936 0.47252,-0.403202 0.4967,-0.402819 0.0242,0 0.29561,0.233919 0.60316,0.518964 l 0.5592,0.51826 -0.43937,0.398833 c -0.24165,0.219364 -0.45734,0.397427 -0.47931,0.395701 -0.022,-0.0018 -0.29941,-0.233151 -0.61653,-0.514282 z m 72.86363,0.07981 c 0.0321,-0.13181 0.14604,-0.373685 0.25321,-0.537513 0.10717,-0.16382 0.19485,-0.312701 0.19485,-0.330843 0,-0.01815 -0.0894,-0.05544 -0.1987,-0.08287 -0.41787,-0.104881 -0.59439,-0.795932 -0.33261,-1.302162 0.18396,-0.355743 0.87804,-0.959776 1.22022,-1.061925 0.17031,-0.05084 0.45344,-0.0806 0.62919,-0.06614 0.29463,0.02425 0.32147,0.04624 0.3443,0.282233 0.0442,0.45738 -0.0746,0.560871 -0.68352,0.595277 -0.40425,0.02285 -0.609,0.07762 -0.80093,0.214283 -0.14181,0.100982 -0.25783,0.214163 -0.25783,0.251525 0,0.03736 0.1348,0.151749 0.29957,0.254186 0.25745,0.160073 0.40345,0.186259 1.0385,0.186259 0.40641,0 0.73893,0.01678 0.73893,0.03727 0,0.0205 -0.0572,0.186939 -0.12702,0.369867 -0.11924,0.31223 -0.15321,0.337857 -0.55484,0.418516 -0.52189,0.104809 -1.12911,0.40409 -1.52558,0.751916 l -0.29611,0.259777 0.0584,-0.239654 z m -33.46303,-0.931768 c -1.27039,-0.108987 -2.53514,-0.675123 -3.17301,-1.420336 -0.35198,-0.411215 -0.53738,-0.783558 -0.66851,-1.342568 l -0.0984,-0.419395 1.4291,0 1.4291,0 0.15362,0.299568 c 0.33899,0.661063 0.97477,0.991235 1.91666,0.995349 0.78593,0.0034 1.32744,-0.214882 1.76445,-0.711342 0.44968,-0.510872 0.56806,-0.926193 0.62073,-2.177692 l 0.0452,-1.074866 -0.51601,0.515673 c -0.85838,0.857811 -1.97093,1.262699 -3.1796,1.157131 -2.53662,-0.221537 -4.00025,-2.178043 -3.99606,-5.34172 0.004,-3.083705 1.77434,-5.165511 4.39249,-5.165511 1.18235,0 2.036,0.358634 2.8015,1.176961 l 0.47377,0.506468 0,-0.642003 0,-0.642002 1.3181,0 1.3181,0 -0.001,5.212483 c -0.002,5.717762 -0.0124,5.87289 -0.4762,6.817536 -0.13143,0.267662 -0.37927,0.645117 -0.55075,0.83879 -0.92955,1.049798 -2.87236,1.600252 -5.00296,1.417476 z m 1.83903,-6.486142 c 0.53051,-0.247052 0.89426,-0.623685 1.16773,-1.209112 0.60227,-1.289293 0.39808,-3.220811 -0.42779,-4.046684 -0.42835,-0.428342 -0.81004,-0.578078 -1.56266,-0.613004 -0.589,-0.02733 -0.70864,-0.0075 -1.09475,0.181394 -0.50562,0.24738 -0.78671,0.552851 -1.06974,1.16254 -0.38569,0.830842 -0.32435,2.575366 0.1222,3.474988 0.42993,0.866127 0.99712,1.2341 1.90471,1.235682 0.42002,7.99e-4 0.65902,-0.04552 0.9603,-0.185804 z m 50.68015,6.486996 c -0.81761,-0.06236 -1.97097,-0.426361 -2.57472,-0.812572 -0.80408,-0.514362 -1.49434,-1.518506 -1.49434,-2.173865 l 0,-0.196716 1.41796,0.0043 1.41795,0.0043 0.23966,0.373333 c 0.42732,0.66568 0.97235,0.908298 2.05102,0.913012 0.51888,0.0022 0.69745,-0.0335 1.06496,-0.213309 0.52504,-0.256877 0.94455,-0.7625 1.11843,-1.348032 0.14045,-0.472942 0.1718,-2.480574 0.038,-2.435982 -0.0447,0.0149 -0.21575,0.205016 -0.38011,0.422486 -0.66329,0.877591 -1.538,1.273683 -2.8139,1.274195 -2.12823,8.78e-4 -3.55377,-1.177303 -4.1675,-3.444289 -0.24929,-0.920824 -0.25082,-2.693907 -0.003,-3.561855 0.27743,-0.971918 0.68355,-1.698726 1.28565,-2.300824 0.87612,-0.876127 1.84067,-1.237536 3.12458,-1.170757 1.1568,0.06017 2.08938,0.523982 2.59625,1.291238 0.35418,0.53613 0.43937,0.483238 0.43937,-0.272798 l 0,-0.639079 1.36264,0 1.36264,0 -0.0301,5.372252 c -0.0271,4.847568 -0.0439,5.419064 -0.17129,5.85156 -0.43831,1.487743 -1.4818,2.461818 -3.08312,2.87805 -0.65401,0.169995 -1.91119,0.253155 -2.80104,0.185276 z m 1.82157,-6.502941 c 1.03118,-0.513859 1.5992,-1.692663 1.51695,-3.148108 -0.10003,-1.770223 -0.92723,-2.716818 -2.37483,-2.717632 -0.32953,0 -0.72731,0.03527 -0.88396,0.07879 -0.39545,0.109857 -0.92309,0.584477 -1.15204,1.036257 -0.57271,1.130186 -0.41909,3.15275 0.31638,4.165513 0.55886,0.769554 1.69148,1.026695 2.5775,0.58518 z m 40.92186,6.271451 c -0.19771,-0.03518 -0.51226,-0.06663 -0.69899,-0.06989 l -0.33951,-0.0059 0,-1.152139 0,-1.152138 1.07225,-0.02616 c 1.01578,-0.02479 1.0835,-0.03668 1.28575,-0.225875 0.11742,-0.109841 0.264,-0.29678 0.32573,-0.415425 0.26974,-0.51842 0.20664,-0.736242 -1.68576,-5.819207 -0.9889,-2.656177 -1.8329,-4.910294 -1.87558,-5.009152 l -0.0776,-0.179741 1.53606,3.2e-4 1.53608,3.19e-4 1.07063,3.055234 c 1.3885,3.962302 1.37271,3.92029 1.4434,3.841564 0.0333,-0.03704 0.5571,-1.604143 1.16408,-3.482434 l 1.10358,-3.415076 1.4322,0 c 1.11252,0 1.42382,0.02229 1.39465,0.09986 -0.0206,0.05492 -0.9635,2.670151 -2.09523,5.81162 -1.13174,3.141469 -2.18495,5.956977 -2.3405,6.256681 -0.70723,1.362762 -1.78509,1.991328 -3.36346,1.961451 -0.29057,-0.0055 -0.69008,-0.03878 -0.8878,-0.07397 z M 70.863863,63.784851 c -1.50265,-0.279014 -2.755332,-1.139221 -3.463284,-2.37821 -0.478869,-0.838072 -0.671134,-1.58819 -0.712529,-2.779911 -0.04411,-1.269969 0.105012,-2.034194 0.589445,-3.020748 0.345435,-0.703481 1.199735,-1.641495 1.860661,-2.042987 1.500792,-0.911683 3.572212,-1.008461 5.110718,-0.238779 1.628898,0.814905 2.726175,2.869015 2.726175,5.103409 l 0,0.682392 -3.714643,0 -3.714642,0 0,0.350311 c 0,0.8874 0.579867,1.783739 1.375328,2.125942 0.572503,0.246276 1.442208,0.249735 2.071468,0.0082 0.480151,-0.184287 1.144772,-0.709273 1.227367,-0.969506 0.04667,-0.147044 0.127417,-0.156926 1.282637,-0.156926 0.933042,0 1.232816,0.02428 1.232768,0.09986 -1.6e-4,0.193369 -0.461782,1.06405 -0.821321,1.548998 -1.030977,1.390603 -3.014913,2.04585 -5.050148,1.667939 z m 3.197969,-6.891637 c -0.21951,-1.19244 -0.930433,-1.775168 -2.167518,-1.776654 -0.706123,-8.79e-4 -1.032976,0.08292 -1.487154,0.38117 -0.394675,0.259171 -0.791413,0.889813 -0.841972,1.338382 l -0.0402,0.35667 2.295996,0 2.295995,0 -0.05514,-0.299568 z m 13.904045,6.921474 c -1.796528,-0.262014 -3.194342,-1.055222 -3.969977,-2.252823 -0.338932,-0.523325 -0.66475,-1.43962 -0.786611,-2.212194 -0.0493,-0.312549 -0.08214,-2.451768 -0.08251,-5.373906 l -6.39e-4,-4.854655 1.617667,0.02163 1.617667,0.02163 0.03994,5.112627 0.03994,5.112627 0.183683,0.399424 c 0.240073,0.522047 0.659504,0.944206 1.165779,1.173363 0.366144,0.165729 0.526842,0.184678 1.566333,0.184678 1.039532,0 1.199293,-0.01884 1.557753,-0.183679 0.544648,-0.250471 0.964522,-0.681825 1.178814,-1.211046 0.178302,-0.440341 0.179345,-0.468923 0.202005,-5.535281 l 0.02278,-5.092655 1.639137,0 1.639136,0 -0.02742,5.132598 c -0.02665,4.98843 -0.03231,5.1501 -0.20178,5.755739 -0.48478,1.732501 -1.568991,2.887747 -3.235075,3.447037 -1.162462,0.390221 -2.906123,0.538743 -4.166667,0.354896 z m 46.107403,0.01132 c -2.36273,-0.431945 -3.85996,-2.14954 -4.12407,-4.731064 -0.22791,-2.227756 0.59141,-4.242051 2.18926,-5.382253 1.47311,-1.051186 3.58643,-1.206377 5.28734,-0.388276 1.68624,0.811052 2.81799,2.883868 2.81799,5.161199 l 0,0.624404 -3.75082,0 -3.75082,0 0.0483,0.419395 c 0.0639,0.554632 0.21916,0.984229 0.48171,1.332582 0.28664,0.380316 0.38608,0.458443 0.8908,0.699863 0.34671,0.165841 0.54743,0.205328 1.0385,0.204305 0.35388,-7.99e-4 0.75123,-0.05399 0.94912,-0.1272 0.48183,-0.178263 1.0338,-0.577088 1.24057,-0.896388 l 0.1765,-0.272535 1.21824,-9.58e-4 c 0.86238,-7.99e-4 1.21825,0.02573 1.21825,0.09049 0,0.0503 -0.13109,0.36485 -0.29133,0.698992 -0.55702,1.161621 -1.72398,2.106123 -3.02389,2.447438 -0.56704,0.148882 -2.07846,0.218254 -2.61565,0.120043 z m 3.25298,-6.892851 c -0.24629,-1.175648 -1.02245,-1.815086 -2.20501,-1.816596 -0.70323,-8.79e-4 -1.1548,0.135613 -1.59076,0.480891 -0.31733,0.251333 -0.66466,0.8731 -0.74614,1.335705 l -0.0457,0.259626 2.32101,0 2.321,0 -0.0544,-0.259626 z m 13.22738,6.845671 c -1.47688,-0.320242 -2.22262,-1.155956 -2.52661,-2.83146 -0.0808,-0.445454 -0.10943,-1.516101 -0.1115,-4.17398 l -0.003,-3.574845 1.43793,0 1.43793,0 0,3.22443 c 0,1.849908 0.0346,3.407861 0.0812,3.654729 0.10918,0.578334 0.44144,1.094837 0.83744,1.301803 0.46464,0.242826 1.69819,0.239406 2.15689,-0.006 0.41412,-0.221552 0.63321,-0.462045 0.83361,-0.91508 0.26786,-0.605543 0.32148,-1.329722 0.32314,-4.364074 l 0.002,-2.895824 1.43792,0 1.43793,0 0,5.152569 0,5.152569 -1.43793,0 -1.43792,0 0,-0.631681 0,-0.631681 -0.50153,0.501525 c -0.27584,0.275842 -0.68856,0.5963 -0.91715,0.712141 -0.85389,0.432696 -1.9932,0.554033 -3.05017,0.324843 z m 24.71964,0.006 c -2.59388,-0.481634 -4.11689,-2.454668 -4.13271,-5.353855 -0.006,-1.109528 0.12456,-1.760605 0.52595,-2.621747 0.85924,-1.843432 2.40882,-2.873907 4.49284,-2.987749 1.53532,-0.08387 2.61822,0.312681 3.63093,1.329622 1.08116,1.085673 1.67164,2.631068 1.67346,4.37973 l 8e-4,0.579165 -3.75734,0 -3.75734,0 0.0533,0.419395 c 0.12688,0.998911 0.52358,1.615478 1.27853,1.987142 0.43943,0.216328 0.59438,0.250567 1.12929,0.249536 0.36432,-7.99e-4 0.76035,-0.05313 0.96037,-0.127128 0.48183,-0.178263 1.0338,-0.577088 1.24058,-0.896388 l 0.1765,-0.272543 1.21824,-9.58e-4 c 0.88066,-7.99e-4 1.21824,0.02504 1.21824,0.09291 0,0.190661 -0.5708,1.241178 -0.8733,1.607242 -1.15646,1.399478 -3.03077,1.99581 -5.07812,1.615654 z m 3.31522,-6.664836 c 0,-0.04002 -0.0685,-0.292762 -0.15216,-0.561646 -0.31634,-1.016406 -0.91937,-1.440443 -2.05041,-1.441817 -0.74924,-8.78e-4 -1.23826,0.141956 -1.65126,0.482393 -0.29832,0.245885 -0.64754,0.875633 -0.7399,1.334211 l -0.0523,0.259626 2.323,0 c 1.34394,0 2.32301,-0.03067 2.32301,-0.07277 z m 8.18819,6.731452 c -2.15864,-0.347595 -3.64417,-1.710757 -4.16597,-3.822775 -0.21701,-0.878325 -0.19888,-2.536039 0.0366,-3.351566 0.29159,-1.009632 0.68157,-1.67556 1.4095,-2.406833 1.08239,-1.087342 2.2437,-1.52814 3.82744,-1.452775 2.08921,0.09942 3.61836,1.2 4.41805,3.179812 0.25833,0.639566 0.40837,1.377405 0.47457,2.33381 l 0.0539,0.778877 -3.77738,0 -3.77739,0 0.0509,0.486746 c 0.1241,1.187407 0.82858,1.960796 1.94981,2.140545 0.97957,0.157029 1.87358,-0.150423 2.51642,-0.865408 l 0.36309,-0.403842 1.2025,0 1.20249,0 -0.11647,0.330108 c -0.48855,1.384699 -1.72228,2.495761 -3.2316,2.910283 -0.4458,0.122431 -1.99837,0.213564 -2.43649,0.143018 z m 3.04372,-6.985558 c -0.10109,-0.632192 -0.55798,-1.274434 -1.11499,-1.567323 -0.38515,-0.202516 -1.55843,-0.239159 -2.01952,-0.06306 -0.68459,0.261447 -1.24313,0.929172 -1.35321,1.617747 l -0.0543,0.33951 2.29713,0 2.29714,0 -0.0523,-0.326873 z m 37.81735,6.922976 c -2.07933,-0.441475 -3.47184,-1.77909 -3.99762,-3.840078 -0.21209,-0.831321 -0.22787,-2.177452 -0.0347,-2.960442 0.62248,-2.523341 2.7025,-4.189247 5.2306,-4.189247 2.95061,0 5.03264,2.237086 5.13001,5.512051 l 0.0226,0.758905 -3.82553,0.02076 -3.82554,0.02075 0.0479,0.404808 c 0.0609,0.51437 0.38804,1.23382 0.71738,1.577772 0.34653,0.361902 0.73903,0.550662 1.34695,0.647778 1.00216,0.160097 1.91678,-0.150271 2.56392,-0.870041 l 0.36308,-0.403842 1.20488,0 1.20487,0 -0.16215,0.419395 c -0.22334,0.577607 -0.8205,1.438853 -1.26369,1.822516 -0.44588,0.385979 -1.31398,0.825793 -1.96693,0.996523 -0.67347,0.17609 -2.11213,0.2191 -2.75603,0.08239 z m 3.43505,-6.675133 c 0,-0.182305 -0.31278,-0.880922 -0.54648,-1.220584 -0.17587,-0.255623 -0.38436,-0.430794 -0.69172,-0.58117 -0.40385,-0.197587 -0.50059,-0.212405 -1.1786,-0.180579 -0.54531,0.02559 -0.82372,0.07885 -1.06364,0.203442 -0.5744,0.298298 -1.07271,0.974092 -1.20799,1.638238 l -0.0447,0.219683 2.36659,0 c 1.50736,0 2.36659,-0.02869 2.36659,-0.07903 z m 19.57177,6.675133 c -2.84627,-0.604304 -4.48577,-2.985478 -4.14706,-6.023089 0.33363,-2.992005 2.17638,-4.818995 4.98999,-4.947304 2.25068,-0.102637 4.05769,0.784909 4.87737,2.395608 0.17154,0.337097 0.42653,1.215063 0.42965,1.479402 8.8e-4,0.07619 -0.33528,0.09986 -1.418,0.09986 l -1.41917,0 -0.1405,-0.395574 c -0.31038,-0.873907 -0.94996,-1.27993 -2.01824,-1.281224 -1.06515,-0.0013 -1.64922,0.383279 -2.122,1.397201 -0.39674,0.850837 -0.4602,2.40069 -0.13903,3.395104 0.26498,0.820441 0.80162,1.47826 1.41505,1.734562 0.39784,0.166232 1.32528,0.160976 1.729,-0.0098 0.63202,-0.267342 1.11509,-0.907643 1.21063,-1.604677 l 0.0493,-0.359738 1.43069,0 1.43069,0 -0.0544,0.299568 c -0.0299,0.164763 -0.1442,0.551205 -0.25393,0.858762 -0.51233,1.436009 -1.50023,2.364797 -3.01411,2.833753 -0.71791,0.222391 -2.09713,0.284446 -2.83591,0.127592 z M 47.098138,57.6721 l 0,-5.83159 -2.196832,0 -2.196832,0 0,-1.358041 0,-1.358042 5.911475,0 5.911474,0 0,1.358042 0,1.358041 -2.196832,0 -2.196831,0 0,5.83159 0,5.831589 -1.517811,0 -1.517811,0 0,-5.831589 z m 8.387903,-1.358042 0,-7.189631 1.437926,0 1.437926,0 0,2.676141 c 0,2.957646 0.0023,2.968974 0.465931,2.323342 0.578214,-0.805149 1.659004,-1.321041 2.769403,-1.321917 1.189852,-9.43e-4 2.14411,0.341098 2.732486,0.97941 0.414931,0.450147 0.549131,0.710707 0.76166,1.478839 0.160053,0.57847 0.171845,0.837832 0.201356,4.428949 l 0.03135,3.814498 -1.438059,0 -1.438059,0 -0.03232,-3.455017 c -0.03377,-3.609043 -0.04962,-3.778774 -0.401751,-4.301301 -0.318317,-0.47235 -0.6432,-0.631649 -1.287234,-0.631137 -0.767178,7.99e-4 -1.120024,0.113204 -1.525284,0.486762 -0.7302,0.673069 -0.839475,1.345084 -0.839475,5.162546 l 0,2.738147 -1.437926,0 -1.437926,0 0,-7.189631 z m 42.179169,0 0,-7.189631 1.539578,0 1.539582,0 3.03382,4.833297 3.03383,4.833298 0.0206,-4.833298 0.0206,-4.833297 1.55713,0 1.55713,0 0,7.191253 0,7.191253 -1.65046,-0.02159 -1.65046,-0.02159 -2.96047,-4.773116 c -1.62826,-2.625214 -3.0065,-4.773117 -3.06274,-4.773117 -0.082,0 -0.10227,0.951612 -0.10227,4.793088 l 0,4.793087 -1.437924,0 -1.437926,0 0,-7.189631 z m 18.61315,-0.0049 0,-7.194523 4.41364,0.02864 c 3.98393,0.02585 4.45641,0.04262 4.853,0.172281 1.82114,0.595379 2.79812,1.951658 2.79478,3.879799 -0.003,1.607655 -0.52659,2.619604 -1.71604,3.315217 l -0.54012,0.315872 0.32389,0.107964 c 0.48015,0.16005 1.0119,0.670865 1.29203,1.24117 0.32068,0.652835 0.45109,1.336896 0.5589,2.931557 0.0842,1.246011 0.2352,2.072698 0.4194,2.296687 0.0652,0.07929 -0.24085,0.09986 -1.48543,0.09986 -0.86214,0 -1.56753,-0.01622 -1.56753,-0.03604 0,-0.01982 -0.0529,-0.239167 -0.11756,-0.487425 -0.0647,-0.248258 -0.17313,-0.959991 -0.24102,-1.581623 -0.22758,-2.083715 -0.35988,-2.54048 -0.86413,-2.983201 -0.1599,-0.140398 -0.42652,-0.292978 -0.59248,-0.339063 -0.17294,-0.04803 -1.1458,-0.08399 -2.2789,-0.08425 l -1.97715,-7.99e-4 0,2.756025 0,2.756026 -1.63764,0 -1.63764,0 0,-7.19452 z m 7.62907,-0.757387 c 0.8819,-0.229709 1.2925,-0.73955 1.37348,-1.705444 0.0563,-0.671119 -0.11703,-1.322701 -0.43197,-1.62431 -0.12244,-0.117249 -0.40236,-0.29412 -0.62204,-0.393047 -0.37492,-0.168834 -0.5305,-0.181915 -2.53634,-0.213249 l -2.13692,-0.03338 0,2.046316 0,2.046313 1.94039,0 c 1.4907,0 2.05001,-0.02855 2.4134,-0.123198 z m 18.25361,3.760656 0,-4.191244 -0.85876,-0.02268 -0.85877,-0.02267 -0.0225,-0.938646 -0.0225,-0.938647 0.88127,0 0.88127,0 0,-0.595204 c 0,-2.065518 0.97526,-3.157679 3.05604,-3.422352 0.66179,-0.08418 1.82115,-0.0024 2.0602,0.145383 0.0421,0.02599 0.0763,0.509916 0.0763,1.078943 l 0,1.031811 -0.20491,-0.07791 c -0.11271,-0.04286 -0.48531,-0.07792 -0.82802,-0.07792 -0.51823,0 -0.66017,0.02915 -0.84327,0.173183 -0.30673,0.241268 -0.44046,0.612373 -0.44046,1.222235 l 0,0.521817 1.0385,0 1.0385,0 0,0.958618 0,0.958617 -1.0385,0 -1.0385,0 0,4.193952 0,4.193951 -1.43793,0 -1.43792,0 0,-4.191251 z m 56.31623,1.255485 c 0.60261,-1.614671 1.81073,-4.850708 2.68469,-7.191195 l 1.58904,-4.255429 1.62537,0.02154 1.62536,0.02154 2.74965,7.109259 c 1.51231,3.910089 2.74965,7.136436 2.74965,7.16966 0,0.03322 -0.76389,0.06032 -1.69755,0.06023 l -1.69755,0 -0.47161,-1.517636 -0.47161,-1.517635 -2.69527,0 c -2.49257,0 -2.69942,0.01051 -2.75059,0.139798 -0.0304,0.07689 -0.26487,0.696995 -0.52095,1.378013 -0.25609,0.681018 -0.49052,1.301124 -0.52096,1.378013 -0.0502,0.126721 -0.20676,0.139798 -1.67433,0.139798 l -1.619,0 1.09566,-2.935766 z m 7.67148,-2.674734 c 0,-0.152892 -1.62988,-5.014177 -1.68114,-5.014177 -0.0335,0 -1.24899,3.215483 -1.89488,5.012771 -0.028,0.078 0.35942,0.09986 1.77007,0.09986 1.37777,0 1.80595,-0.02334 1.80595,-0.09845 z m 28.99818,0.457931 0,-5.152569 1.43793,0 1.43793,0 0,0.606106 0,0.606107 0.46123,-0.466308 c 0.78629,-0.794917 1.66248,-1.146508 2.8508,-1.143942 2.0566,0.0044 3.19337,0.828783 3.61428,2.620935 0.1012,0.430859 0.13219,1.257195 0.16159,4.307684 l 0.0364,3.774556 -1.4452,0 -1.44519,0 -0.002,-2.975708 c -0.002,-3.231763 -0.0539,-3.873334 -0.36732,-4.517565 -0.30744,-0.631921 -0.67737,-0.847058 -1.51772,-0.882663 -1.10798,-0.04694 -1.71637,0.341396 -2.13275,1.361325 -0.1663,0.40738 -0.17415,0.554169 -0.19866,3.719364 l -0.0255,3.295247 -1.4331,0 -1.4331,0 0,-5.152569 z M 62.235433,46.869179 c -0.175266,-0.08875 -0.334534,-0.175709 -0.353929,-0.19325 -0.01939,-0.01754 0.160347,-0.231756 0.399424,-0.476035 0.89215,-0.911558 2.809812,-2.215765 3.994183,-2.716454 0.695753,-0.294127 0.73698,-0.350381 0.256788,-0.350381 -1.023972,0 -2.139442,0.24517 -4.202266,0.923621 -1.634244,0.537492 -2.482975,0.722519 -3.867884,0.843216 -1.943394,0.16937 -4.66079,-0.212343 -5.314824,-0.746573 l -0.222169,-0.181474 0.941132,-0.01584 c 1.021024,-0.01718 1.282373,-0.07258 3.217848,-0.682048 2.050774,-0.645778 3.809461,-0.925233 6.270956,-0.996452 1.669276,-0.0483 2.439002,0.02141 3.805558,0.344656 0.805739,0.190587 0.87204,0.194798 1.278157,0.08118 1.27622,-0.35703 1.744955,-0.409125 3.66367,-0.407172 2.795449,0.0028 4.420611,0.247919 6.870092,1.036007 1.68358,0.54167 2.078312,0.620107 3.174812,0.630857 0.493954,0.0048 0.89837,0.0129 0.898704,0.01791 3.2e-4,0.005 -0.136943,0.104429 -0.305061,0.220936 -0.388221,0.269037 -1.695523,0.566722 -3.047841,0.694022 -1.897187,0.178592 -3.700157,-0.06467 -5.941722,-0.801666 -1.92594,-0.633225 -2.951474,-0.873509 -3.965643,-0.929157 l -0.83879,-0.04602 0.970842,0.478444 c 1.468504,0.723697 3.119086,1.885075 3.971109,2.794139 l 0.228748,0.244064 -0.374647,0.1904 -0.374648,0.190402 -0.892603,-0.890433 c -1.366119,-1.362796 -2.547209,-2.178435 -3.807772,-2.629576 -0.69265,-0.247892 -0.858974,-0.234858 -1.756342,0.137628 -0.967306,0.401516 -2.142672,1.246329 -3.30777,2.377509 L 62.5541,47.030532 62.235433,46.869174 z m 49.824127,-1.419746 c -6.98441,-0.48625 -11.02937,-3.364991 -12.346802,-8.787042 -0.48213,-1.984322 -0.47165,-1.710284 -0.50788,-13.280847 l -0.0332,-10.604705 4.998472,0 4.99848,0 1.6e-4,9.246664 c 1.6e-4,9.525501 0.0356,10.86183 0.31957,12.060748 0.56089,2.368068 2.19864,3.494218 4.87274,3.35059 0.46134,-0.02478 1.03651,-0.104301 1.27816,-0.176716 1.79853,-0.538962 2.7619,-1.908044 3.03305,-4.310377 0.0505,-0.447614 0.0814,-4.389703 0.0818,-10.444936 l 7.2e-4,-9.725973 4.91717,0 4.91717,0 -0.0312,10.68459 c -0.0228,7.805621 -0.0572,10.856791 -0.12773,11.323669 -0.48933,3.238745 -1.37204,5.281017 -3.02588,7.000799 -1.88087,1.955878 -4.5977,3.121216 -8.24724,3.537517 -1.35707,0.1548 -3.81229,0.215497 -5.09754,0.126019 z m 105.5926,0.0022 c -7.53916,-0.594706 -12.80858,-5.070544 -14.41171,-12.241266 -0.35008,-1.565907 -0.47272,-2.753174 -0.47272,-4.576444 0,-1.824812 0.12263,-3.010486 0.4738,-4.581255 1.3308,-5.952517 5.35976,-10.078096 11.25052,-11.52033 1.69486,-0.414951 2.59586,-0.51078 4.79775,-0.510278 2.15433,4.79e-4 3.04978,0.0938 4.67326,0.486972 3.05785,0.740541 5.60628,2.417892 7.17573,4.722977 1.2177,1.78846 2.09771,4.284944 2.39319,6.789186 l 0.0684,0.579782 -4.79062,-0.02059 -4.79062,-0.02059 -0.15027,-0.639079 c -0.47667,-2.027203 -1.77984,-3.45671 -3.58052,-3.927648 -0.69901,-0.182815 -2.17341,-0.183347 -2.87585,-0.001 -2.09039,0.542534 -3.59998,2.311329 -4.27336,5.007131 -0.32244,1.290879 -0.39436,1.959759 -0.39509,3.6747 -10e-4,2.452166 0.29299,3.969211 1.07808,5.561891 0.73773,1.496637 1.82802,2.501083 3.20757,2.955025 0.58903,0.193821 0.78627,0.218537 1.78078,0.223163 1.6052,0.0075 2.43053,-0.273728 3.3347,-1.136159 0.7917,-0.755158 1.2618,-1.675391 1.66036,-3.250199 l 0.22239,-0.878732 4.89252,-0.02059 4.89253,-0.02059 -0.0533,0.813308 c -0.30355,4.632001 -3.15453,8.867714 -7.38455,10.971277 -2.49828,1.242379 -5.63439,1.803009 -8.72298,1.559374 z m -83.16006,-16.697881 0,-15.976958 5.09265,2.39e-4 5.09266,2.4e-4 4.67326,8.481835 c 2.57029,4.665009 4.71819,8.496367 4.77311,8.514129 0.0795,0.0257 0.0999,-1.706614 0.0999,-8.482092 l 0,-8.514351 4.59338,0 4.59337,0 0,15.976958 0,15.976958 -4.77867,0 -4.77866,0 -4.89676,-8.82727 c -2.69322,-4.854998 -4.9285,-8.827269 -4.96728,-8.827269 -0.0403,0 -0.0705,3.777466 -0.0705,8.827269 l 0,8.82727 -4.7132,0 -4.7132,0 0,-15.976958 z m 35.06942,0 0,-15.976958 4.9928,0 4.9928,0 0,5.551993 0,5.551992 4.59337,0 4.59338,0 0,-5.551992 0,-5.551993 4.9928,0 4.9928,0 0,15.976958 0,15.976958 -4.9928,0 -4.9928,0 0,-6.310899 0,-6.310898 -4.59338,0 -4.59337,0 0,6.310898 0,6.310899 -4.9928,0 -4.9928,0 0,-15.976958 z m 68.46127,-0.002 0,-15.978975 10.36505,0.02221 10.36505,0.02221 0.86,0.182639 c 4.35451,0.924775 7.03973,3.487622 7.60862,7.261899 0.34236,2.271261 -0.14018,4.869735 -1.24185,6.687486 -0.64778,1.068827 -1.73448,2.067856 -2.75606,2.533691 -0.32495,0.148177 -0.59205,0.292014 -0.59356,0.319636 -0.002,0.02762 0.10837,0.09625 0.24418,0.1525 1.18993,0.492882 2.63963,2.048326 3.29929,3.539938 0.66541,1.504614 0.85015,2.519508 1.12914,6.202996 0.19321,2.550973 0.43971,3.935042 0.84087,4.721372 l 0.15884,0.31137 -4.98779,0 -4.98781,0 -0.0813,-0.379453 c -0.2673,-1.247764 -0.59085,-3.582297 -0.73347,-5.292367 -0.15098,-1.81021 -0.36197,-2.739007 -0.83368,-3.669892 -0.27863,-0.549851 -0.89012,-1.197226 -1.38556,-1.466882 -0.78431,-0.426874 -1.05936,-0.455165 -4.42531,-0.455165 l -3.09872,0 0,5.631878 0,5.631878 -4.87297,0 -4.87297,0 0,-15.978975 z m 16.86919,-2.217679 c 1.79705,-0.489779 2.52284,-1.464478 2.44953,-3.289601 -0.0272,-0.676866 -0.0638,-0.840624 -0.29102,-1.302218 -0.299,-0.607342 -0.57739,-0.870443 -1.26034,-1.191144 -0.95087,-0.44651 -1.29767,-0.484265 -4.80606,-0.523218 l -3.21536,-0.0357 0,3.290344 0,3.290343 3.2553,-0.03592 c 2.98723,-0.03296 3.30577,-0.04967 3.86795,-0.20289 z M 53.728575,42.135649 c -0.700657,-0.157971 -1.843237,-0.560767 -2.43285,-0.857657 -1.178406,-0.593366 -1.926768,-1.248216 -2.557316,-2.237764 l -0.139178,-0.218418 0.667409,0.311424 c 0.882093,0.411598 1.290619,0.519794 2.895546,0.766867 0.954363,0.146921 1.807972,0.3446 2.915795,0.675243 1.646462,0.491408 2.4859,0.720365 2.641108,0.720365 0.185712,0 -0.02589,-0.176004 -0.91251,-0.758999 -1.770671,-1.1643 -2.287255,-1.856173 -2.876039,-3.851939 -0.328249,-1.112647 -0.472912,-1.486015 -0.699126,-1.804417 -0.34924,-0.491559 0.119055,-0.333084 0.898815,0.304168 0.26881,0.219683 1.03433,0.996475 1.701155,1.726203 0.989089,1.082391 1.298955,1.481678 1.68226,2.167725 0.258418,0.462521 0.716757,1.176562 1.018532,1.586759 0.301774,0.410197 0.54868,0.770654 0.54868,0.801015 0,0.03036 -0.386442,0.147096 -0.858761,0.259411 -1.931299,0.459253 -3.599853,0.611501 -4.49352,0.410014 z m 26.202211,0.02911 c -0.924815,-0.106265 -3.115506,-0.578 -3.115506,-0.670883 0,-0.01319 0.254202,-0.359749 0.564894,-0.770125 0.325172,-0.429501 0.75318,-1.135993 1.008579,-1.664812 0.485795,-1.005868 0.768522,-1.36908 2.259944,-2.903296 0.979423,-1.007526 1.510496,-1.445124 1.860389,-1.532942 l 0.216224,-0.05427 -0.264032,0.438469 c -0.150974,0.250716 -0.409546,0.927996 -0.603861,1.581692 -0.636036,2.139693 -1.145992,2.863304 -2.725479,3.867362 -1.009361,0.641637 -1.117276,0.7176 -1.117841,0.786866 -8.95e-4,0.110068 0.599584,-0.02444 1.913374,-0.428584 2.189815,-0.673631 2.361516,-0.715695 3.903742,-0.95633 1.614957,-0.251983 1.955597,-0.342463 2.869809,-0.762273 0.318541,-0.146274 0.579165,-0.247809 0.579165,-0.225632 0,0.116031 -0.513683,0.758398 -0.889227,1.11199 -0.83428,0.785514 -1.887215,1.386487 -3.203161,1.828235 -1.274973,0.427994 -1.964485,0.503049 -3.257013,0.354532 z M 53.079068,38.941993 c -0.114833,-0.114834 -1.035526,-0.382359 -1.930596,-0.560974 -1.346181,-0.268634 -2.012187,-0.555002 -3.241617,-1.393824 -1.261817,-0.860917 -2.503276,-2.647516 -2.844004,-4.092839 -0.255273,-1.082828 -0.23842,-1.080925 0.936871,0.105824 0.782546,0.790174 1.277133,1.211965 1.897264,1.618009 0.919783,0.602249 1.407713,0.992976 2.315823,1.854469 0.749279,0.710816 1.156665,0.988581 1.44991,0.988581 0.308442,0 0.295984,-0.09787 -0.127943,-1.005045 -0.446545,-0.95558 -0.730316,-1.773343 -0.925168,-2.666125 -0.175444,-0.803853 -0.355557,-2.870983 -0.277317,-3.182717 l 0.05321,-0.211996 0.159317,0.197752 c 0.713724,0.885907 1.705726,2.720757 1.985648,3.672739 0.146729,0.499009 0.680102,4.469822 0.623294,4.640247 -0.01521,0.04562 -0.04882,0.06177 -0.07469,0.0359 z m 29.487916,-0.03612 c 0,-0.02934 0.126182,-1.031573 0.280404,-2.227179 0.359682,-2.788437 0.502054,-3.180757 1.948246,-5.368581 l 0.607261,-0.918675 0.02554,0.559193 c 0.07911,1.731982 -0.395402,3.837361 -1.277367,5.667595 -0.366182,0.759891 -0.374828,0.844066 -0.08624,0.839667 0.330328,-0.005 0.638004,-0.201636 1.619986,-1.035154 0.491744,-0.417398 1.057472,-0.896666 1.257174,-1.065039 0.1997,-0.168374 0.725961,-0.540827 1.169467,-0.827674 0.574005,-0.371251 1.099879,-0.814339 1.824905,-1.537623 1.150641,-1.147873 1.20015,-1.144792 0.820868,0.05108 -0.495194,1.561337 -1.711017,3.156979 -3.107503,4.078272 -1.068924,0.705194 -1.791624,1.004677 -3.041382,1.260332 -0.568816,0.11636 -1.260818,0.293817 -1.537782,0.394349 -0.276965,0.100533 -0.503573,0.158779 -0.503573,0.129437 z M 56.923967,34.824795 c -0.197715,-0.03889 -0.542215,-0.109908 -0.765555,-0.15781 l -0.406073,-0.08709 -0.09097,-1.45515 c -0.05003,-0.800332 -0.197284,-2.407776 -0.327222,-3.572096 -0.349616,-3.132781 -0.523942,-6.351614 -0.525656,-9.706002 -0.0013,-2.610297 0.01219,-2.911271 0.146505,-3.259417 0.512813,-1.329249 3.424635,-4.211435 7.60085,-7.5234895 0.219683,-0.174225 0.447568,-0.382324 0.506412,-0.462441 0.866769,-1.180126 2.838647,-2.8785962 3.742899,-3.2239342 0.343562,-0.131207 0.358907,-0.130354 0.518043,0.02878 0.219924,0.219923 0.217395,0.8046092 -0.0064,1.4710652 -0.488107,1.453802 -1.563739,2.581207 -4.672844,4.8977565 -0.83934,0.62538 -1.66615,1.275256 -1.837355,1.444168 -0.336013,0.331511 -1.023121,1.348488 -1.348711,1.996205 -0.558311,1.110683 -0.741245,2.527467 -0.430376,3.333176 0.134169,0.347737 0.168711,0.379452 0.413266,0.379452 0.627304,0 1.057702,-0.715217 1.754641,-2.915794 0.734823,-2.320197 1.232058,-3.186588 1.952751,-3.402512 0.411716,-0.123354 0.511832,-0.07498 0.715493,0.345731 0.222826,0.460296 0.227191,1.375686 0.01086,2.278025 -0.08692,0.362545 -0.462478,1.566808 -0.834579,2.676141 -0.372102,1.109334 -0.840511,2.699984 -1.040907,3.53478 -0.603388,2.513545 -0.93787,3.479502 -1.565427,4.520821 -0.545305,0.904838 -0.578545,1.181266 -0.591065,4.915348 -0.01221,3.640955 7.19e-4,3.549667 -0.542799,3.839701 -0.298614,0.159354 -1.768477,0.224059 -2.37582,0.104587 z m 20.050565,0.0055 c -0.352578,-0.10725 -0.697087,-0.314661 -0.766761,-0.461628 -0.03722,-0.07852 -0.07167,-1.58068 -0.07654,-3.338145 -0.01017,-3.664654 -0.05605,-4.060479 -0.58214,-5.022202 -0.515342,-0.94207 -0.856576,-1.986822 -1.489903,-4.561624 -0.433433,-1.762126 -0.747483,-2.838888 -1.117674,-3.832088 -0.699598,-1.876971 -0.931047,-2.781326 -0.94167,-3.679428 -0.0071,-0.597325 0.02141,-0.776403 0.168316,-1.058473 0.193652,-0.371829 0.324837,-0.412105 0.755304,-0.231896 0.656672,0.274909 1.093537,1.064579 1.777315,3.212647 0.567351,1.782314 0.877646,2.472107 1.264449,2.810896 0.310185,0.271682 0.683926,0.343637 0.829861,0.159769 0.327111,-0.412135 0.375136,-1.688035 0.09697,-2.576284 C 76.548225,15.15389 75.711883,13.743983 75.034048,13.1196 74.833265,12.934652 74.046499,12.321304 73.285677,11.756605 70.297431,9.5386645 69.219751,8.4321295 68.695107,7.0431245 68.320261,6.0507085 68.54254,5.1750063 69.136195,5.3053953 c 0.605679,0.133029 2.607692,1.7614752 3.60496,2.9322892 0.241652,0.283704 1.047965,1.034634 1.791808,1.668734 3.578545,3.0505845 5.430598,4.9039265 6.262221,6.2665825 0.334637,0.548321 0.412439,1.128842 0.413156,3.082777 9.51e-4,2.588877 -0.287373,7.750433 -0.563246,10.083266 -0.221281,1.871191 -0.393892,3.894017 -0.394367,4.621583 l -4e-4,0.613444 -0.419395,0.08677 c -1.182423,0.244645 -2.376358,0.315474 -2.856398,0.169453 z M 66.190603,34.667061 c -0.10014,-0.06322 -0.123927,-0.402463 -0.144773,-2.064772 l -0.02495,-1.989124 -0.547515,-0.05089 c -0.301133,-0.02799 -0.604125,-0.07261 -0.673316,-0.09916 -0.278609,-0.106912 -0.297132,-0.52904 -0.271311,-6.18287 0.0232,-5.079227 0.03735,-5.582136 0.166155,-5.905988 0.220244,-0.553733 0.495548,-0.852948 1.118712,-1.215874 0.685681,-0.399335 0.910138,-0.587626 1.07238,-0.899589 0.175468,-0.337395 0.09182,-0.734786 -0.273714,-1.300338 -0.422219,-0.653253 -0.529634,-1.069769 -0.486724,-1.887318 0.06819,-1.299172 0.573391,-1.827079 1.764602,-1.843904 0.706494,-0.01 1.234874,0.175037 1.561151,0.546646 0.403622,0.459699 0.529402,1.740593 0.237433,2.417909 -0.0528,0.122477 -0.267934,0.474322 -0.478085,0.781878 -0.475652,0.69612 -0.526942,0.937798 -0.285996,1.347646 0.138293,0.235236 0.363175,0.412096 0.940648,0.739777 0.8576,0.486636 1.12286,0.753195 1.379106,1.385858 l 0.178647,0.441074 0,5.649603 c 0,6.581287 0.100594,5.936781 -0.940339,6.024772 l -0.617414,0.05219 0,1.969421 c 0,1.425258 -0.02649,1.995908 -0.09586,2.065282 -0.117892,0.117892 -3.394473,0.134159 -3.578838,0.01777 z M 48.615095,33.112689 c -1.916006,-0.706402 -3.586921,-2.334451 -4.607836,-4.489625 -0.35452,-0.748398 -0.743591,-2.074199 -0.743591,-2.533862 0,-0.228512 0.02289,-0.207743 0.297453,0.269868 0.214348,0.372869 0.702097,0.919174 1.745775,1.95536 1.348551,1.338872 2.147331,2.284634 2.640908,3.126859 0.112221,0.19149 0.236566,0.32806 0.276322,0.30349 0.121176,-0.07489 0.07776,-0.454933 -0.0953,-0.834093 -0.309583,-0.678299 -0.373351,-2.407976 -0.139891,-3.794528 0.04439,-0.263619 0.182128,-0.83879 0.30609,-1.278156 0.123962,-0.439367 0.258847,-0.924667 0.299742,-1.078445 l 0.07436,-0.279597 0.139786,0.31954 c 0.41213,0.942094 0.81129,3.6432 0.740916,5.013757 -0.04063,0.791235 -0.51328,3.421792 -0.612425,3.408459 -0.02302,-0.0031 -0.16806,-0.05216 -0.322308,-0.109027 z m 38.153078,-0.01511 c -0.02595,-0.06762 -0.04737,-0.254816 -0.04761,-0.415985 -2.4e-4,-0.161169 -0.07578,-0.796309 -0.167876,-1.411421 -0.142057,-0.948832 -0.160238,-1.336388 -0.119929,-2.556314 0.06016,-1.820808 0.238688,-2.91024 0.62508,-3.814498 0.197588,-0.462408 0.302236,-0.484241 0.302236,-0.06305 0,0.174019 0.114137,0.812099 0.253638,1.417955 0.234831,1.019877 0.253913,1.21114 0.257349,2.579425 0.0032,1.2639 -0.01779,1.529916 -0.144782,1.837351 -0.08167,0.197714 -0.164542,0.557196 -0.184156,0.798847 l -0.03566,0.439367 0.415352,-0.599136 c 0.683906,-0.986519 0.847547,-1.174795 2.395407,-2.756025 1.027088,-1.049231 1.589021,-1.690446 1.820194,-2.077005 0.332088,-0.555304 0.334417,-0.557215 0.33485,-0.274671 6.4e-4,0.422697 -0.282398,1.425178 -0.63012,2.231729 -0.880595,2.042557 -2.71849,3.917545 -4.495782,4.586515 -0.460057,0.173166 -0.537308,0.183443 -0.578186,0.07692 z m -41.01007,-6.241041 c -1.675233,-1.662157 -3.045052,-4.654611 -3.080844,-6.730294 -0.01184,-0.686469 0.06732,-1.278978 0.170633,-1.277172 0.03096,5.59e-4 0.156348,0.248195 0.278635,0.55034 0.122288,0.302146 0.42084,0.867886 0.663451,1.257201 0.656118,1.052866 1.014868,1.851733 1.429972,3.184274 0.533895,1.713879 0.602123,1.887065 0.832648,2.11354 l 0.206749,0.203119 0.04959,-0.918675 c 0.05157,-0.955421 0.06506,-1.037018 0.323638,-1.957177 0.151572,-0.539376 1.208053,-2.52229 1.617328,-3.035571 l 0.185886,-0.233123 0.130025,0.571672 c 0.07151,0.314419 0.130024,0.747553 0.130024,0.962518 0,0.837964 -0.443969,2.050314 -1.161732,3.17236 -0.35225,0.550655 -0.720476,1.463003 -0.885622,2.194294 -0.06978,0.30899 -0.158265,0.561801 -0.196635,0.561801 -0.03837,0 -0.350554,-0.278598 -0.693742,-0.619107 z m 43.482269,0.524925 c -0.01995,-0.05804 -0.07529,-0.330132 -0.122983,-0.604645 -0.125325,-0.721411 -0.272194,-1.088772 -0.758586,-1.897429 -0.855528,-1.42237 -1.200564,-2.60948 -1.133686,-3.900494 0.02236,-0.431743 0.0651,-0.809199 0.09497,-0.838791 0.08631,-0.08551 0.372454,0.322113 1.018836,1.451383 0.831513,1.452706 1.335231,2.998901 1.339584,4.111944 l 0.0018,0.454115 0.153486,-0.199712 c 0.08442,-0.109842 0.265605,-0.607098 0.402637,-1.105015 0.295714,-1.074503 0.748505,-2.39667 0.974799,-2.846454 0.0892,-0.177302 0.368252,-0.627927 0.620108,-1.001388 0.558638,-0.828368 0.693477,-1.085483 0.92052,-1.755279 l 0.176755,-0.521438 0.09159,0.423328 c 0.414796,1.917088 -0.908102,5.466937 -2.785073,7.473424 -0.616059,0.658568 -0.942938,0.907144 -0.994737,0.756451 z M 45.45794,22.142159 c -1.121185,-2.299295 -1.356204,-4.953485 -0.670443,-7.571644 0.214168,-0.817672 0.458597,-1.386014 0.796893,-1.852925 l 0.275411,-0.380118 0.05126,1.038503 c 0.02819,0.571176 0.113911,1.396579 0.190489,1.834229 0.155201,0.886981 0.13728,1.436797 -0.151831,4.658216 -0.03884,0.43283 0.116247,0.339136 0.265886,-0.160627 0.364894,-1.218669 1.395787,-2.592808 2.870159,-3.825807 1.017422,-0.850859 1.065346,-0.873885 0.84168,-0.404426 -0.09822,0.206164 -0.294464,0.734325 -0.436092,1.173691 -0.424203,1.315977 -1.109584,2.500706 -1.871685,3.235334 -0.559636,0.539461 -1.105276,1.313331 -1.504843,2.134285 l -0.357677,0.734887 -0.299204,-0.613598 z m 44.271655,0.03002 C 89.416548,21.453598 88.832147,20.600255 88.104014,19.7985 87.367684,18.98772 86.867608,18.124058 86.397334,16.850961 86.21069,16.34569 85.97108,15.757957 85.864866,15.54489 c -0.106214,-0.213068 -0.180985,-0.399528 -0.166157,-0.414355 0.05976,-0.05976 1.26755,0.91952 1.964968,1.593213 0.898651,0.868083 1.438655,1.579775 1.79853,2.370355 0.148407,0.326023 0.330287,0.718586 0.404178,0.872365 l 0.134349,0.279596 -0.03815,-0.399423 c -0.02098,-0.219684 -0.111622,-0.884725 -0.201421,-1.477869 -0.191641,-1.265835 -0.200832,-1.892955 -0.04449,-3.035622 0.06312,-0.461335 0.115904,-1.32137 0.117297,-1.911189 l 0.0025,-1.072399 0.206254,0.193667 c 0.482865,0.453393 1.02546,2.022889 1.23478,3.571688 0.189508,1.402213 0.01963,3.309972 -0.414108,4.650399 -0.193373,0.597606 -0.785974,1.917235 -0.860966,1.917235 -0.02779,0 -0.150577,-0.229668 -0.272865,-0.510372 z M 88.15892,16.1857 c -0.285588,-0.30781 -0.986577,-0.908392 -1.557754,-1.334625 -1.007507,-0.751841 -1.558602,-1.298899 -2.411441,-2.393778 -0.350039,-0.449381 -1.098934,-1.597695 -1.041969,-1.597695 0.01092,0 0.522794,0.248417 1.137498,0.552037 1.012443,0.500076 1.186252,0.618503 1.84658,1.258186 0.400916,0.388381 0.937285,0.975759 1.19193,1.305283 0.254647,0.329525 0.475433,0.614714 0.490637,0.633753 0.0152,0.01904 0.06382,-0.0016 0.108047,-0.04579 0.05395,-0.05395 0.01133,-0.236185 -0.129532,-0.553867 -0.36917,-0.83258 -0.672472,-1.868089 -0.673102,-2.298047 -0.0011,-0.782256 -0.284079,-1.9844215 -0.678013,-2.8808295 -0.120877,-0.275058 0.740704,0.265626 1.127053,0.707281 0.646435,0.7389715 1.228646,2.0833455 1.383072,3.1936315 0.135646,0.975253 0.10493,2.378842 -0.07068,3.229919 -0.08487,0.411311 -0.165281,0.756018 -0.178691,0.766017 -0.01341,0.01 -0.258045,-0.233666 -0.543633,-0.541478 z M 46.903927,16.072086 c -0.331405,-1.476399 -0.233416,-3.401554 0.227949,-4.478439 0.48443,-1.13072 0.831988,-1.7454385 1.23808,-2.1897685 0.373308,-0.408458 0.830928,-0.702051 0.933851,-0.599127 0.02401,0.02401 -0.08295,0.435289 -0.23769,0.913952 -0.154741,0.4786605 -0.321475,1.1918035 -0.370522,1.5847615 -0.129351,1.03637 -0.226089,1.431528 -0.536708,2.192337 -0.508397,1.245233 -0.437961,1.443237 0.204917,0.576043 0.22113,-0.298289 0.756621,-0.8864 1.189979,-1.306912 0.729507,-0.707883 0.872329,-0.806433 1.926427,-1.32927 l 1.138504,-0.564703 -0.216897,0.373775 c -0.571606,0.985034 -1.666204,2.456205 -2.131382,2.864636 -0.151949,0.133413 -0.611854,0.472329 -1.02201,0.753146 -0.410156,0.280817 -1.057469,0.80715 -1.438472,1.169627 -0.381004,0.362477 -0.709457,0.659049 -0.729896,0.659049 -0.02044,0 -0.0997,-0.278598 -0.17613,-0.619107 z m 2.434302,-4.253865 c 4e-4,-0.682561 0.593409,-1.630418 1.655606,-2.6461315 0.905911,-0.866269 2.117935,-1.657618 2.383004,-1.555901 0.167322,0.06421 0.135493,0.458458 -0.06766,0.838064 -0.317123,0.59257 -1.421426,1.8083155 -1.897264,2.0887285 -0.914177,0.53873 -1.529071,0.985103 -1.796847,1.304394 l -0.27703,0.330328 1.59e-4,-0.359482 z M 85.842261,11.577427 C 85.510492,11.24493 85.067976,10.915466 84.61667,10.664944 84.001367,10.323388 83.833781,10.179562 83.316398,9.5490275 c -0.646759,-0.788206 -0.989068,-1.39066 -0.989068,-1.74073 0,-0.295523 0.172488,-0.292789 0.751742,0.01192 1.141012,0.600207 2.625328,1.989521 3.064479,2.8683375 0.266541,0.533395 0.396895,1.127202 0.285867,1.302222 -0.05075,0.07999 -0.199126,-0.02446 -0.587157,-0.413346 z"
         id="path3164"
         inkscape:connector-curvature="0" />
    </g>
  </g>
</svg>
