<?xml version="1.0" encoding="utf-8"?>
<!-- Generator: Adobe Illustrator 16.0.0, SVG Export Plug-In . SVG Version: 6.00 Build 0)  -->
<!DOCTYPE svg PUBLIC "-//W3C//DTD SVG 1.1//EN" "http://www.w3.org/Graphics/SVG/1.1/DTD/svg11.dtd">
<svg version="1.1" id="map" xmlns="http://www.w3.org/2000/svg" xmlns:xlink="http://www.w3.org/1999/xlink" x="0px" y="0px"
	 width="1440px" height="1440px" viewBox="0 0 1440 1440" enable-background="new 0 0 1440 1440" xml:space="preserve">
<path id="philippines" fill="#4E98CC" d="M662.153,736.317l5.76,3.84l10.32,5.76l2.4,0.96l7.92,3.12l2.16,0.72l2.4,0.48l1.92,0.48
	h0.72l0.72-0.24l1.92-0.48l0.96-0.72l4.56-3.84l0.72-2.88v-0.72l1.2-3.12l0.48-0.48l2.64-0.24l0.72,0.24l4.08,6.96l0.24,0.96
	l0.72,2.64l-0.24,1.68l-0.72,1.44l-1.44,1.92l-1.44,1.68l-0.48,0.48l-1.2,0.48l-0.48,0.24l-1.44,1.68l-0.96,2.16l0.48,1.92
	l0.72,0.72v0.96l-0.48,3.6l-0.72,2.4l-0.72,2.88l-0.48,1.44v0.96l0.96,8.88l0.24,0.72l1.92,6.24l1.44,3.84l0.72,1.68l1.92,0.96
	l0.96,0.48l1.44-0.48l3.84,3.84l-0.24,5.52l0.48,1.2l1.2,0.72h1.44l0.48-0.24l0.48-0.24l0.72-0.24l0.72,1.68l-0.72,2.88l-2.64,8.4
	l-1.92,4.8l-5.76,11.04l-0.72,1.2l-0.72,0.72l-1.44,0.72l-2.16,4.08v0.479l0.24,0.48l0.48,0.72h0.48l-0.24,2.16l-0.72,4.56
	l-0.24,1.68l-0.48,0.24l-2.16,2.4l-0.72,0.48l-0.72,0.72l-0.96,0.96l-0.72,0.72l0.24,0.72l-2.16,2.4l-0.48,0.48l-1.92,1.2
	l-0.24-0.96l0.24-0.479l0.72-1.44l0.48-0.48l0.48-0.48l1.44-1.92l0.72-0.72l0.48-0.72l1.2-1.68l1.2-2.4l-1.92-0.48l-1.2,1.44
	l-0.24,0.48v0.72l-2.4,1.68l-2.16,1.44l-0.96,0.72l-8.64,3.36l-0.96-0.48l-0.96,0.24l-3.6,3.12l-4.56,4.56l-0.72,0.72l-0.24,0.48
	l-0.24,0.72l-0.24,0.96v1.2v1.2l0.48,1.68l0.48,0.72l0.24,0.48l0.72,0.24l0.96-0.24l1.44,0.48l0.24,0.72v0.96l-2.16,3.84l-5.04,6
	l-4.56,6.96l-0.48,0.24l-0.48,1.44l-0.48,0.72v0.96l0.24,0.48l0.96,2.4l0.72,1.44l0.72,0.96l1.2,0.72l1.44,0.96l2.88,7.92l1.44,5.04
	l0.48,1.92l0.24,0.72l0.72,2.64l1.2,1.44l0.48,0.72l2.64,4.08l-3.84,1.44l-0.24,0.48v1.92v0.72l1.44,6.24l1.68,5.04l2.16,2.16
	l0.48,0.72l1.68,4.32v0.72l-0.48,1.2l-0.48,0.48l-0.48,0.72v0.48l1.44,1.92l0.24,0.48l6.96,5.76l1.92,0.96l0.48,0.48l2.4,1.2
	l1.2,0.48l3.6,1.2l1.92,0.48l0.72-0.24l1.44,0.24l2.16,0.96l0.72-1.44l2.88-1.68l0.24-2.16v-0.72l-2.16-1.68l-1.92-1.44l-0.96-0.24
	l-1.2-1.68l-0.72-1.2v-0.72l4.32-4.56h0.96l0.24,0.72l-0.24,0.96l-0.24,0.48l-0.24,0.72l0.24,2.88l1.68,1.44l0.24-0.24h0.96
	l0.96-0.48l0.24-0.96l-0.48-0.96l-0.24-0.72v-0.96v-0.72l1.2-2.16l0.96-0.72l3.36-3.36l1.2-0.96h2.16l1.2,0.24l3.12,1.2l3.6-1.2
	h0.72h0.96l3.12,0.96l3.6,2.16l0.96,0.48l3.12,3.36l5.28,6.72l2.88,5.04v4.08l-0.48,0.72l-0.72,0.48l-0.24,0.72l-0.48,1.68
	l-0.24,0.96v0.96v0.48l2.16,1.2l1.2,0.48l0.48,1.2l-0.48,0.96l-0.96,1.2l1.68-1.92l6.72-1.68l2.4-2.4l0.48-0.96l-0.24-1.44
	l-1.44-4.56l-1.2-0.96l-1.44-0.96l-0.24-0.48l-0.24-1.44l2.4-2.4l3.12-1.92l0.96,0.24l1.44,2.64l1.2,2.4l1.92,0.96l6,2.64l5.28,1.68
	l12,4.32l2.16,1.92l0.24,0.72l0.24,1.2l-0.24,0.48l-8.16,0.96l-0.96-0.24h-0.72l-2.88-0.72l-4.8-0.72h-1.2l-0.72,0.24l-0.48,0.48
	l-0.96,1.68l-0.72,2.64l-0.24,2.64l0.48,0.48l4.56,3.6l1.68,0.48l0.48,0.24l1.44,1.92l1.44,3.36l0.96,2.16l1.68,1.2l1.2,0.72
	l0.48,0.72l-0.24,0.96l0.96,0.72l-0.24-0.72l0.96-0.24l0.96,1.44l-0.72,0.24h-0.72l-0.72-0.24h-0.72h-0.72h-0.72l-0.24,0.72
	l-0.72,1.44l-0.24,0.48v0.96v3.6l0.24,1.44l0.72,0.48l0.48,0.24h0.96l1.68-1.92l1.2-1.68l0.24-0.72l0.48-0.48h1.2l3.84,1.68
	l0.72,0.72l0.96,0.96l0.48,0.96l0.48,0.48l2.4,1.92l0.48-0.24l0.48-0.96l0.24-0.72l0.24-0.72l0.72-0.48l2.64-0.24l0.72,0.48
	l0.24,0.48v0.96l-0.24,0.96l-1.92,2.88l-1.44,2.64l1.44,2.64l0.24,2.4l-0.72,5.28l-0.24,1.92l-1.92,5.76l-0.72,0.48l-2.4,0.72
	l-1.2-0.48l-0.96-0.24l-0.96-0.48l-4.8-4.8l-0.72-2.16l-0.72-1.68l-0.48-5.28l1.2-1.92l1.2,0.24l0.72,0.72l1.68,0.24l4.08-1.44
	l0.24-0.24l0.48-0.72l0.72-1.68v-0.48l-0.48-0.72l-0.48-0.72l-6.479-0.48l-0.48,0.24l-0.24,1.44l-1.2,2.16l-1.68,1.2l-0.96,0.48
	l-3.84,0.48l-4.56-1.68l-2.4-0.96l-4.08-3.12l-0.72-0.72l-1.92-2.16l-1.68-0.96h-0.48l-1.68,0.72l-0.72,0.48l-0.96,0.48h-0.96
	l-0.72-0.96l-0.48-1.2l-0.24-3.12v-1.44l0.96-1.68l-3.36-5.76l-1.68-4.56l-0.24-0.96l-0.24-0.96l-0.96-0.96l-0.72-0.72l-1.44-0.72
	l-3.6-1.68l-0.72-0.24l-1.92-0.48l-0.72-0.24h-0.72l-4.56-2.88l-2.64-2.4l-0.24-0.72l-0.24-0.72l1.68-1.68l-0.24-1.2l-0.96-1.2
	l-3.12-2.88l-7.92-5.28l-2.64-2.16l-1.68,0.72l-1.2,4.08l-0.96,6.72v0.72l0.96,2.4l3.6,5.52l1.68,1.92l0.96,1.2l0.96,1.44l0.72,1.2
	l0.24,0.72l0.48,1.68l0.96,6.24l0.24,0.96v0.72l-4.08,2.4l-0.72,0.48h-0.48l-0.72-0.24l-0.96-0.96l-1.92-2.4v-2.4v-1.44v-0.72
	l-0.24-1.2l-1.44-2.88l-4.32-5.76l-3.6-3.36l-0.96-0.48l-2.16-0.48l-0.96,0.24l-1.92-0.24l-1.68-3.6l-3.12-4.56l-2.4-0.72
	l-7.68-3.84l-3.84-2.4l-0.48-0.24l-0.24-0.48l0.24-1.2l-3.36-1.44h-1.68l-0.72,0.24l-11.28,6.24l-0.48,0.48l-1.2,1.92l-0.24,0.72
	v0.72l-2.4,4.8l-1.2,0.48l-1.44,0.96l-2.88,2.16l-2.4-1.68l-2.4-0.96l-0.72,0.24l-1.68,0.24l-3.84-1.44l0.48-2.64l-0.72-2.16
	l-0.48-0.24l-0.96-0.72l-1.2-0.24l-0.96,0.24h-2.4l-0.48-4.32l-0.24-0.72l-0.72-0.96l-0.48-0.24l-0.48-0.24l-5.52-1.44l-0.72-0.24
	h-0.48l-1.2,0.48l-0.48,0.48l-2.4,2.64v1.68l0.24,0.96l0.48,0.96v0.72l-0.72,0.48l-1.68-2.16l-0.24-3.36l-0.24-3.6l0.24-0.96
	l-0.48-7.68l-1.44-0.96l0.48-4.08l0.24-0.72l1.68-1.68l0.72-0.48l0.72-0.48h0.48l0.48,0.24l1.68-0.48l2.16-1.44l0.72-0.48l3.6-3.36
	l3.12-2.88l3.6-1.2l0.48-0.72l0.48-1.2v-0.96v-0.72l-1.44-4.08l-0.24-0.48l-0.48-0.72l-0.72-1.2l-0.48-0.24l-0.96-1.2l-0.72-0.72
	l-2.64-2.16h-2.16l-0.96,0.24h-0.96l-3.6-0.72l-3.12-1.92l-2.64-1.2l-0.72,0.24v5.04v0.72l0.48,0.72l0.96,2.16l1.44,6.72l0.24,0.96
	l-0.24,0.72l-0.24,1.2l-1.2,1.44l-1.2,0.48l-0.72,0.24l-2.4-0.48l-1.92-0.48l-3.12-0.96v-0.72l-0.48-1.68l-0.24-1.2l-2.88-5.04
	l-0.72-0.48l-2.4-2.64l-0.24-0.72l0.24-1.44l0.48-1.92l0.72-0.48l0.96-1.44l-2.4-2.16l-1.68,0.96v0.72l-0.48,2.16l-0.48,0.96
	l-0.48,0.48l-1.2,0.24l-1.2-0.72l-0.48-0.24l-1.92-1.44l-1.44-5.28v-2.16l0.24-0.96l0.24-1.68v-1.92v-1.44l-0.24-2.4l-0.96-3.36
	l-1.2-5.04l-0.24-0.96l-1.92-3.36l-1.2-1.68l-1.44-1.2l-0.48-1.2l-0.24-0.48l0.24-2.4l0.24-0.48l2.4-1.44l-2.16-5.28l0.72-4.08
	l-1.44-4.8l1.2-2.16l-0.24-0.72l-2.4-5.52l-2.16,0.72l-0.48,1.2l-1.68,0.24l-0.96-1.92l0.48-10.8l1.44-7.44l0.24-0.72l0.72-0.72
	l0.96-0.96l3.12-1.44l2.16,0.72l0.24,0.96l-0.24,1.68l-0.72,1.92l0.72,2.64l3.84,2.88l4.08,3.6v0.72l0.24,1.44l1.2,0.96l1.44,0.96
	l1.2,0.24h0.96h1.68l1.2-0.24l0.96-0.48l2.88-1.44l1.44-0.96l1.44-1.2l0.48-0.48l0.96-1.44v-0.72l-0.24-1.92l-0.48-1.68l-0.72-1.2
	l-1.2-0.96l-1.2-7.44l-0.96-7.44l-0.24-2.64l2.88-11.28l0.96-0.48l0.48-0.48l2.4-4.8l0.24-0.72l0.24-0.72v-0.72v-1.44l-0.24-0.72
	l-0.96-6.24l-0.24-0.72l1.68-8.64l0.24-1.44v-1.2l-1.68-5.04l-1.68-1.44l-0.48,0.24l-0.72,0.24l-0.96-1.44l-0.24-0.72l0.96-3.36
	l0.72-2.16l0.96-0.48l1.44-0.72l0.96-1.44l0.96-4.56l-0.48-5.28l1.68-7.68l1.92-5.52l0.24-0.48l0.48-0.72l1.44-1.92l1.68-3.12
	l0.24-0.96l0.24-1.92l-0.24-1.2l-0.24-1.44l-0.72-1.68l-0.48-0.72v-0.48v-0.72l0.72-0.96l2.4-1.68l1.44,0.48l0.72,0.24l1.2,0.24
	h0.72h0.96l0.72-0.24l0.72-0.24l0.96-0.96l4.32-2.64l1.2,1.68l0.72,0.72l0.96,0.24l0.96-0.24l0.72-0.72l0.72-0.48l0.24-0.24
	l1.92-0.72l3.6-0.72l0.96-0.24l1.44,0.24l0.96,0.24l1.44,0.96l1.2,0.72L662.153,736.317z M898.311,1206.955l1.68,1.68l3.12-0.96
	l0.72-0.48l2.88,0.96l-0.24,1.92l-0.72,5.28l0.96,0.96l2.4,2.4l0.24,0.72l-0.72,0.24l0.24,0.96h0.479l1.2,0.24l0.72,0.24l0.96,0.48
	l0.48,0.48l0.24,0.48l0.96,1.92l0.48,3.84l-0.24,0.96l-1.2,1.92l-0.72,0.48l-4.8,4.08l-2.4,1.44l-1.92,0.96l-0.72,0.96l-0.48,1.2
	l1.92,3.36l0.48,0.24l0.72,0.48l2.64,0.24h1.2l0.479-0.24l-0.96-0.48l0.72-0.72l6.72,0.24l1.68,1.92l0.24,1.92l-1.2,3.84l-0.72,1.2
	l-0.48,0.48l-1.2,6.24l3.6,1.68l0.96-0.96l1.68-0.96l0.72,0.24l0.24,0.48l-0.96,5.28l-0.24,0.48l-0.24,0.72l-3.6,9.84v1.2l0.72,1.68
	l0.48,0.96l0.96,0.24h0.72l1.68,0.72l3.6,4.08l1.44,1.68l2.16,9.12l0.24,0.72v0.96l-0.24,1.68l-0.48,0.24l-1.44,2.4v1.92v2.88
	l0.48,0.48l0.96,0.48l-1.2,4.32l-5.04,7.44l-5.52,2.4l-0.96,0.24l-0.48,0.72l-1.92,3.36l0.48,1.2l0.48,0.24l0.48,0.48l0.96,0.72
	l0.72,0.72l0.24,2.64l-1.2,0.24h-0.48l-0.72-0.24l-0.48-0.72l-0.24-1.2l-0.48-1.92l-0.24-1.2l-0.48-1.2l-2.4-1.2l-0.72,0.24
	l-0.72,0.48l-0.96,2.64l0.24,0.72l0.96,1.68l0.96,0.96l0.24,0.48l0.72,0.72l0.96,0.96l0.72,1.2l-0.72,2.4l-0.48,0.96l-0.24,0.72
	l-0.48,1.68l-0.48,10.8l-0.24,5.28l-0.72,2.4l-0.24-2.64v-0.48l-0.48-0.72l-1.68-2.16l-2.16-4.56l-0.72-1.92l-0.24-0.48l-0.96-5.76
	l0.24-1.2l0.72-1.68l0.48-1.92l-0.96-5.52l-0.72-0.72l-0.96-0.24l-0.96-0.24l-0.96-0.72l-0.96-1.2l-0.48-0.72l-0.48-1.44l0.24-0.72
	l0.48-0.96l0.24-0.96l-0.24-0.96l-1.2-1.92l-0.72-0.72l-1.68-0.72l-0.48-0.24l-0.72-1.2l-2.4-6.72v-1.2l0.24-2.16l0.24-0.72
	l0.24-0.72l-0.24-0.48l-1.2-0.24l-0.96-0.24l-2.88,2.16l-1.439,0.96l-1.68,1.44l-1.92,1.92l-0.24,1.44l0.24,0.96l0.48,1.44v1.68
	l-0.24,0.72l-0.24,0.48l-0.48,0.72l-1.92,2.4l-1.68,0.24l-1.2-0.24l-0.96,0.72l-1.92,2.64v1.68l0.24,0.72l-0.96,1.68l-1.92,2.4
	l-1.92,2.4l-0.24,0.48l-0.72,3.6l0.48,5.52l0.24,0.72l2.64,0.96l0.24-0.48l2.16,1.2l5.04,4.32l5.04,11.28l1.2,4.32v3.36l-0.48,4.08
	l-0.72,2.4l-0.24,0.96l-0.96,1.92l-1.68,2.64l-1.44,0.72l-3.12,3.6l-1.2,1.92l-0.48,0.72l-0.96,1.68l-1.2,2.4l-1.92,3.12l-0.96,1.2
	l-0.72,0.24l-0.96,0.24l-2.88-0.48l-1.44-0.72l0.24-1.44l0.48-0.96v-0.48l-0.96-2.64l-0.24-0.48l-0.48-0.48l-2.4-1.68l-1.68-1.2
	l-0.72-3.6l1.92-1.92l2.16-2.16l1.44-2.88l0.24-1.44l-0.72-2.88l-0.479-1.44l-0.48-0.24l-4.08-0.72l-1.2,0.24v0.48l-3.36,11.04
	l-0.48,0.48l-0.72,0.48l-1.2,0.24h-4.08l-5.52-1.44l-0.96-0.24l-5.76-2.4l-9.6-4.32l-6.72-3.84l-0.96-0.48l-0.48-0.72l-2.16,0.24
	l-2.88-1.92l-4.32-3.12l-5.76-8.4l-1.44-2.64l-0.48-3.12l0.24-1.92l1.2-0.72l-0.48-4.32l-0.72-5.52l-2.4-1.68l-0.48,0.48l-0.48-0.24
	l-0.48-0.72l-0.72-1.92l0.96-5.28l0.72-2.4l0.72-2.64l0.24-0.72l1.92-3.6l0.72-0.96l0.96-0.72h0.48l1.2-0.24l0.48-0.24l2.16-0.96
	l0.24-0.48l5.28-9.12v-0.72l-0.96-1.68l-0.72-0.48l-1.44,0.48l-1.68,0.24l-0.48-0.24l-1.2-1.44l-0.24-0.72l-0.48-1.68l-0.72-2.16
	l-4.32-5.52l-0.72-0.48l-4.56-2.16l-1.92-0.24l-3.12-0.24h-2.4l-1.68-1.2l-0.24-0.96v-1.2l-0.96-0.96l-1.2-0.96l-0.72-0.48
	l-3.36-0.72l-0.48-0.48l-1.68-0.72l-1.44,0.24l-4.08,1.92l-0.48,2.64l1.44,0.96l0.24,0.72v2.16l-0.48,1.44l-0.24,0.48l-0.48,0.72
	l-0.48,0.48l-1.2,0.48h-0.96l-0.96,0.24l-2.4,1.92l-0.24,0.48l0.24,0.48l3.6,4.08l1.2,0.96l0.72,0.48l0.24,3.36l-2.16,0.72h-0.48
	l-0.96-0.72l-2.64-2.16l-2.16-2.4l-0.24-0.48l0.72-0.96l0.48-1.44l-0.48-0.24l-3.36-0.48l-0.72,0.24l-1.44,1.2l-0.24,0.48l0.48,0.72
	l-0.96,0.96l-2.4-2.16l-0.72-0.72l-0.48-1.44l1.44-1.2l1.68-0.24h0.72l0.72-0.48v-1.2l-2.88-5.04l-0.96-0.96l-2.64,2.4l-1.2,1.44
	l-0.48,1.44v1.44l0.24,0.72l-0.48,1.44l-1.2,3.84l-0.48,0.96l-2.16-0.96l-3.6,0.48l-1.68,1.68l-1.68-0.24l-1.68-1.68l0.24-10.56
	l0.48-0.96l0.24-0.48l0.96-0.24v-0.96l-0.48-0.72l-0.96-0.96l-3.6-0.72h-2.88l-1.92,0.48l-3.84,2.16l-1.68,1.92l-0.48,0.72
	l-3.12,4.08l-0.479,0.72l-3.84,5.52l-0.24,0.96l-0.48,0.72l0.24,1.92l0.96,0.24l1.44,0.24l-1.68,2.88l-1.44,1.2h-0.24l-0.48-1.44
	l-0.72,0.24l-0.48,0.48l-0.24,0.72l-0.96,4.08l-0.72,3.6l-0.24,2.64l-3.36,7.92l-1.92,2.16l-0.96,0.72l-0.48,0.24l-0.72-0.24
	l-3.12-0.96l-4.32-1.92l-0.48-0.48l-0.48-0.48l-0.96-1.44l-1.2-4.08l0.24-3.36l0.96-1.68l0.24-0.72l0.48-0.48l5.04-6.48l-0.24-1.2
	l1.2-4.32l1.2-3.36l1.2-1.68l1.2-1.2l0.48-4.08l-0.24-1.44v-0.72l-0.72-1.92l-0.48-0.24l0.24-2.4l1.92-3.36l4.08-6.24l1.92-1.68
	l1.68-0.96l1.68-0.72l0.96-0.48l4.56-1.2l1.2-0.24h0.72l0.48,0.24h0.72l13.92-2.4h0.72l1.44-0.48l4.32-1.2l0.72-0.24l3.36-2.64
	l0.48-0.96l-0.72-5.52v-4.56l2.16-3.36l1.92-1.44l5.76-0.96h0.72l1.2,0.48l2.16,0.72h0.72l0.72-0.24l0.72-0.48l0.96-0.96l2.4-5.04
	l0.48-3.12v-0.96l0.72-0.48l1.92,0.72l5.04,4.56l0.96,0.48l3.6-1.92l3.6,1.2l1.92,1.68l2.16,2.64l2.16,3.6l0.96,2.4l1.44,10.32
	l0.24,1.2v0.96l-0.24,1.2l-0.72,0.96l-3.84,3.84l-0.72,0.24l-1.44,0.48h-0.72h-0.72l-0.72,0.24l-0.96,0.72l-0.96,0.96l0.48,0.24
	l-0.24,1.92l0.72,0.72l0.48-0.24l0.48-0.48l3.12-1.92l1.2-0.96l0.72-1.2l3.12-2.88l5.52-3.36l2.64-0.96l0.72-0.24l2.4,0.24h1.2
	l0.96,0.24l1.44,0.24l1.2-0.24l2.88-1.44l1.68-2.88l-0.24-0.72l-0.48-1.92l0.48-0.72l1.2-2.88l0.24-0.72v-0.48v-1.2l-0.24-0.96
	l2.4-4.32l5.28-3.6l2.4,0.48l0.48,1.2l2.88,2.16l1.44,0.96l5.04,2.16l1.2,0.24h0.48l0.48-0.24l0.48-0.48l1.2-1.2l0.96-4.08
	l-0.48-2.4l-0.72-0.24l-0.48-0.96v-0.72v-0.96l1.68-4.56l0.48-5.76l-0.48-2.64v-0.96l0.72-0.72l0.72-0.72l0.72-0.48l3.36-0.48
	l4.32,3.12l2.88,2.4l0.48,1.2l1.92,2.88h0.96h1.2l1.44-0.72l0.72-0.48l6-7.2l7.68,0.72h0.48l0.96-0.48l0.96-0.24l1.92-0.72
	l0.24-0.72l0.72-1.68v-0.72v-1.2l-0.24-5.04l-0.96-4.56l-0.48-1.44l-2.64-8.16l-2.16-6.24l-0.96-2.88l0.24-3.36l0.24-1.44l0.24-1.2
	l1.68-2.16l0.96,0.24l1.92,0.72l2.88,1.44l1.44,1.92l1.2,4.56l1.44,1.2l0.48,0.24l5.28,2.16l0.72,0.24l0.96,0.24l2.88,0.48
	l4.08,2.88l0.96,1.92l-1.92,1.2v0.72L898.311,1206.955z M756.952,1171.195l-1.2,1.68l-1.2,2.16l-0.48,0.48l-0.72,3.6l0.48,0.72
	l0.48,2.88l0.24,2.4v0.72l-0.24,1.92l-0.72,0.48l-0.72-0.24h-0.48l-0.48,1.2l2.16,4.32l1.92,3.6l2.4,2.64l3.36,3.6l0.48,0.96v0.72
	v0.96l-0.96,3.36v0.48l-0.72,1.44l-1.68,2.4l-2.88,2.64l-1.44,1.2l-1.68,1.2l-5.76,0.72l-1.44-0.72l-2.16-1.44l-1.68-3.12
	l-0.96-2.88l-0.48-1.92l-0.24-1.68v-0.96v-1.2l-0.48-0.72l-2.88-1.68l-0.96-0.24l-3.12-0.72h-0.96h-0.72l-0.96-0.24l-1.68-0.96
	l-1.92-1.2l-0.24-0.72l-0.96-0.48l-1.92-1.92l-2.88-3.84l-3.36-5.04l-0.96-3.6l0.48-3.6l2.4-8.88l2.4-0.24h1.44l2.16,0.24l1.68,0.24
	h0.72h2.16l1.2-0.48l5.28-2.88l0.96-0.72h0.48l1.68-2.16l0.24-1.2v-1.68l-0.24-8.4l-1.2-5.52l0.24-6h0.48l0.72-0.24l0.96-0.96
	l1.92-2.16l1.68-3.84l0.72-2.64v-3.36l-0.24-0.48l-0.48-0.96l-0.24-0.48v-0.72l0.24-1.92l2.4-1.2l9.36-4.08h0.72l1.2,0.24
	l14.16,2.88l2.88,4.8v0.48v1.92l-4.8,14.16l-0.72,0.72l-1.68,1.2l-0.72,0.24l-0.48,0.24l-1.2,0.96l-0.48,0.72l-0.24,0.48l-0.24,0.72
	l-0.24,0.96l-0.72,6l-0.48,1.68l-1.92,5.76l-0.96,2.16l-1.44,3.12l-0.72,1.2L756.952,1171.195z M854.872,1040.396l2.4,1.92l3.6,3.36
	l0.96,2.16l-0.479,0.96l-0.72,2.64l0.24,2.4l1.92,1.44l1.44-0.96l1.2-0.24l3.12,1.44l2.64,2.88l0.72,1.68l-1.92,0.48l-1.68,2.4
	l0.24,0.48l3.6,2.4l-1.44,1.44l-0.96,0.96l-0.96,0.96l-0.96,1.92l-0.24,2.4l0.72,4.08l0.72,8.64l-0.48,2.16l0.24,0.96l3.84,7.2
	l2.16,2.4l1.2,0.24l2.4,2.16l-0.24,1.44l-1.2,1.44l-1.68,0.96l-1.44,1.44l-0.72,1.2l0.48,1.92l3.12-0.24l-0.479-1.68l3.36,1.68
	l1.2,1.2l3.12,5.04l0.72,2.4l-0.479,0.72l-0.72-0.24l-1.2-0.96l-0.96-1.44l-0.72-1.44l0.48-0.96l-1.44-1.44l-4.56-0.48l-2.4,0.48
	l-3.12,1.92l-9.6-1.44l-3.6-2.64l-1.44-3.6l-0.72-0.96l-1.2-0.24l-2.88-0.24l-3.6-3.6l-0.48-3.12l-0.96-1.44l-3.84-1.2l-2.4,0.24
	l-0.96-1.68l0.24-0.96l3.12-2.88l1.92,0.24l1.2-0.48l1.44-1.92l2.64-5.76l-0.24-1.2l-1.68-1.2l-7.2-1.44l-4.32-4.56l-4.08-5.76
	l-1.44-1.2l-0.96-0.48l-2.4-0.96l-4.8-1.2l-1.68-0.96h0.24l-0.48-1.2l-0.96-1.2l-2.4-1.68l-2.64-5.28l-3.12-8.64l-1.2-4.56
	l1.44-0.96l3.12,1.68l5.76,0.96l9.36,0.72l3.84-0.48l1.2-0.24l5.76-0.96l0.96-0.96l7.44,0.96l1.92-0.48l1.2-1.44l2.4-0.24
	L854.872,1040.396z M707.993,1079.516l8.88,5.04l5.76,5.52l3.12,3.36l5.76-2.64l2.4-1.44l4.08-0.24l3.12,3.6l0.24,2.4l-1.44,1.92
	l0.48,0.96h1.44l4.8-2.88l3.36-2.16l1.68-0.96l1.2-1.44l0.96-0.96l0.96,1.68l-0.96,8.64l-0.24,1.44l-2.4,6.48l1.2,1.68l0.24,1.92
	l-8.88,6.24l-3.36,0.96l-4.56,1.92l-2.88,2.16l2.4,1.68l-0.24,2.4l-0.96,1.92l-1.2,1.2l-5.52-0.24l-1.44,4.08l-5.28,2.4l-5.04,0.48
	l-6,0.72l-2.88,0.96l-5.28,2.88l-0.96,1.44l-0.48,1.44l-0.96,1.68l-1.2,1.44l-0.96,0.72l-2.16,1.44h-1.2l-0.96-0.48l-0.72-0.96
	l0.48-2.88l1.44-1.2l0.48-1.44l0.72-2.88l0.24-1.92v-1.68l-1.2-2.64l-0.96-2.4l1.2-3.6l1.2-3.84l0.96-0.96l1.68-2.4l0.96-1.68
	l-0.48-2.88l-0.24-1.68v-2.64l0.48-3.12l-0.48-4.8l0.48-3.84l1.2-3.6l1.2-6.24l0.48-2.64l-0.24-2.88l-1.2-1.2l-4.32-1.2l-2.16-0.24
	h-1.68l-1.68,0.24l-1.44-0.24l1.92-7.2l3.36-1.44l0.96,0.24l1.44,0.72l1.44,1.68l1.44,1.44l2.4,0.96l1.68,0.24l3.36,0.72
	L707.993,1079.516z M571.914,1101.835l0.96,0.96l0.96-0.72l0.72,0.72l0.24,1.44v1.44l-0.72,1.92l-3.12,11.76l-0.24,1.44l-0.24,4.08
	l1.44,2.64l1.2,0.48l1.44-0.72l1.44,0.48l0.48,5.04l1.2,2.64l3.12,6.72l1.2,1.68l-1.92,1.2l-5.04,3.84l-4.56,1.68h-1.68l-3.36,1.44
	l-3.12,1.68l-1.44,1.68l-1.92,2.64l-0.72,0.96l-0.72,2.4l0.24,1.44l-1.2,2.64l-0.72,1.44l-2.16,1.2l-9.6,2.16l-1.44,0.48l-1.44-0.24
	l-1.92-0.24l-6,2.64l-3.12,8.16v2.64l0.96,1.68l1.92,1.2h-0.96l-5.28,7.2l-8.88,10.56l-5.52,5.76l-0.96,0.48l-7.44,1.2l-2.16,0.24
	l-2.4,5.04l-2.4,5.04l-2.64,3.6l-1.68,0.24l-2.88,1.44l-0.96,0.72l-4.32,3.6l-0.96,1.68l-1.68,1.44l-6,1.68l-5.04,4.08l-4.32,3.6
	l-3.84,0.72l-2.64,1.92l-4.08,3.6l-2.16,2.64l-1.2-0.48l2.16-9.12l0.96-2.4l0.48-0.24l0.72-2.16l4.32-5.76l1.2-1.2l3.84-3.12
	l1.68-2.16l2.16-3.12l7.44-8.16l6.24-4.8l6.24-4.56h2.4l1.2,0.48h2.4l5.04-4.8l10.56-11.52l0.48-1.68l4.32-4.56l1.44-0.96l1.2-0.24
	l2.16-1.68l4.56-5.52l1.68-2.88l0.96-2.16l0.24-1.44l4.8-6l0.24,2.88l-1.2-0.24l1.44,2.64l0.48,0.24h0.24l0.96-0.96l1.2-3.6
	l-0.96-0.24l-0.24-2.88v-1.2l3.12-0.96l0.96,0.48h2.16l3.6-5.52l0.72-2.64l-1.68,0.96l-0.72-1.2l2.4-3.6l4.08,0.96l2.16,1.92
	l1.68-1.44l7.68-8.64l0.48-0.96l0.96-5.76l-1.68-2.64h-1.68l-2.16-5.04l-0.72-4.32l2.4,0.24l7.68,9.6l0.48,1.44l0.24,0.72l1.2-0.24
	l-0.96-5.28l-0.96-2.16h-1.44l-1.44-0.24l-0.96-0.96l-1.44-2.64l-0.48-1.44l0.24-1.68l1.2-4.8l1.2,1.2l0.96,1.68l1.44,0.96
	l0.96-0.24l0.48-5.52v-4.56v-1.68l-0.24-2.16l0.48-1.68l2.16-4.32l1.44,0.48l0.24,1.2v0.96V1101.835z M633.594,993.836l0.96,0.72
	l8.64-2.16l2.64-0.72l1.2,0.24v2.64l1.92,2.4l0.96,0.48l0.96,0.24h3.84l1.68-0.72l1.68,0.72l4.32,3.12l9.84,10.08l0.24,5.04
	l-0.72,0.72l-0.24,1.2l-0.48,12.72l0.48,0.96l1.2,0.96l0.96,0.96l0.96,2.16l0.24,3.12l-2.4,2.4l-0.96,0.96l-1.2,0.72l-1.2,0.72
	l-1.68,3.12l0.24,2.64l1.2,1.92l-2.88-0.24l-1.92,1.68l-6.24,4.56l-4.8-0.72l-1.2-1.68l0.48-1.68l0.48-0.96l-1.44-0.72l-0.48,0.72
	l-4.8-4.56l-2.4-4.08l-0.48-1.44l0.72-1.68l-0.24-2.4l-1.2-2.16l-2.64-3.36l-1.2-0.24l-1.44-0.24l-0.72-2.64l-0.24-2.4l0.24-4.56
	l-1.2-5.04l-0.72-1.2l-0.48-0.96l-2.4-4.08l-1.92-2.64l-2.88-1.68l-1.2-0.24l-1.2-0.24l-7.68-7.2l-1.68-0.48l-0.72-0.72l-1.2-1.2
	l-0.24-1.2l0.72-1.68l0.96-0.96l1.44-0.96l1.44-0.48h1.2l12,1.68l1.92,0.48L633.594,993.836z M825.592,1103.996l2.88,0.72l3.36-0.48
	l1.68-0.96l0.96-0.72l2.4-2.16l2.4-2.16h4.56l1.2,1.68l0.24,0.96v5.76l2.64,2.88l0.72,9.36v1.68l-0.24,1.68l-0.24,1.44l-1.2,2.4
	v2.88l0.48,3.6l1.92,1.68h1.44l3.12,5.04l1.68,3.36l-0.48,0.72l0.96,4.32l2.64,2.4l0.96,0.96l0.72,2.16v1.92l-0.72,1.68l-6.96,4.32
	l-1.68-1.92l-0.72-1.44l-1.44-3.6l-0.24-1.2l-0.72-1.2l-0.96-0.72l-1.44,0.24l0.72,6.72l0.96,4.08l0.96,3.84l0.24,1.92l-0.96,0.72
	l-1.68-0.48l-6.72-4.56l-4.08-3.12l1.2-5.52v-1.2l-1.2-1.44l-1.2-1.2l-0.96-1.44l0.48-3.12l1.2-2.16l0.48-1.2v-1.92l1.92-4.56
	l-0.48-3.12l-0.24-1.68l-0.72-1.44l-0.72-1.68l-3.84-5.52l-0.72-0.96l-2.64-2.16l-1.2-0.96l-1.2-0.24l-0.96,1.44l-0.24,1.2
	l0.24,1.68l-0.48,1.2l-0.48,0.96l-0.48,0.72l-1.68,0.48l-3.36-2.4l-1.2-3.12l0.24-6.96l-0.24-6.48l-1.44-2.64l-1.2-1.2l-2.4-7.92
	l-0.72-3.12l1.44-1.68l11.04,8.4l0.72,3.12L825.592,1103.996z M764.152,1199.995l-0.96,0.24l-1.44-0.24l-0.24-3.6l0.48-3.6
	l1.92-11.04l1.2-4.8l1.2-0.24l0.24-2.4l-1.2-0.96v-2.4l1.68-3.12l0.96-0.72l1.68-1.44l2.16-2.4l2.16-4.32l2.64-6.48l1.2-0.72
	l1.92-2.16l2.16-4.56v-1.68l0.24-1.2l2.4-4.32l1.68-2.4l1.92-3.12l1.44-3.12l0.72-1.2l1.44-4.32l2.88-8.4l-0.24-1.68l-0.72-1.44
	l0.24-1.44l2.88-4.56l2.16-0.48l0.96,1.68l-1.2,1.68l-1.2,4.8l0.48,3.12l0.72,2.4l0.48,6.48l-0.96,4.32v8.88l-0.72,8.4l-0.72,2.4
	l0.72,0.96l-0.72,1.68l-1.92,1.44l-8.4,4.8l-1.44,0.48l-2.64,2.64l-4.08,5.04l-0.48,2.16v2.64v1.68l-1.2,3.6l-1.44,1.2l-1.68,2.4
	l-1.2,4.08l-0.24,2.16l-1.92,5.28l-1.68,2.64l-3.36,4.32L764.152,1199.995z M820.072,1167.355l0.96,0.48l2.16-0.24l0.96,0.72
	l0.72,0.96l0.48,1.44l0.48,4.08l-0.48,1.2l-0.96,0.96l-1.2,0.96l1.44,1.2l1.68,0.72l0.48,2.4l-0.96,1.44l-2.4,0.48l-1.68-1.2
	l-4.56,4.56l-2.64,1.92l-1.92,0.72l-1.44,0.48l-0.96,0.24l-8.64,0.48h-1.92l-5.04-0.72l-4.8-1.68l-3.6-5.04l-0.48-1.92l0.24-3.6
	l5.04-3.6l3.36-1.92l1.2-0.48l3.36-1.92l4.32-5.76l0.24-0.96l0.72-0.96l2.88-0.48h1.68h3.6l3.12,0.48l2.16,2.64L820.072,1167.355z
	 M790.312,1058.156l1.44,1.44l6.72,10.56l1.44,6.48l0.48,6.24l-0.72,0.72l-2.88-4.08l-1.68-1.44l-2.88-1.92l-2.64-1.68l-1.44-0.72
	l-1.68-0.48l-9.36-8.64l-0.48-1.2l-0.96-1.68l-2.4-2.88l-3.12-0.24l-1.68,0.48l-4.56,5.76l-4.8,5.76l-0.96,0.96l-3.12,2.4h-0.24
	h-0.24l-0.96-1.44l3.36-6.72l1.68-3.36l2.88-5.52l-1.68-4.8l-1.68-12.48l0.48-1.2l4.08,1.68l6.96,3.12l3.84,3.12l6.24,5.28
	l6.72,5.28L790.312,1058.156z M810.232,970.556l1.2,0.72h1.68l2.4,1.68l0.48,0.96l0.48,1.2l0.24,3.12l-4.32,12.479l-0.72-0.48
	l-0.24-1.68l-0.96-0.24h-0.48h-1.2l-0.72,0.48l-1.68,1.44v0.72v1.44l-0.24-0.24l-1.44-0.72l-6-3.84l-0.96-1.92l-0.24-0.72l1.44-1.2
	l0.72-0.48l0.96-0.24l1.44-2.88l0.48-1.68l0.72-6.72l-0.24-0.48l-0.48-0.72l-0.24-1.68v-0.96v-2.4v-0.72l3.84-1.92l2.4,2.64l1.2,2.4
	L810.232,970.556z M707.513,1339.435l0.48,3.36l-2.16,4.32l-1.68,2.64l-4.8,1.68l-0.96,0.48h-0.72l-2.4,0.24l-0.72-0.24l-0.96-0.48
	l-1.68-1.44l-0.48-0.24l-6-7.2v-1.68l0.48-1.2l0.96-0.96l0.48-0.24h0.96l0.48,0.24l0.48,0.48l0.72,0.48l2.4-0.72l2.16-1.68
	l0.72-0.96l0.48-0.96l1.2-0.48h2.88l1.44,1.92l1.92,1.68l2.4,0.48L707.513,1339.435z M880.071,1178.635l-0.72,0.24h-3.12l0.479-1.68
	l1.44-1.92l-0.48-2.64l-5.76-6l-0.96-1.92l-0.24-0.96v-0.48l1.92-9.36l5.28-7.2l0.72-0.48h0.48l1.44,2.4l0.48,1.44l-1.44,6.96v4.56
	l0.48,2.4l0.48,0.48l1.44,1.92l0.72,8.88l-0.24,1.44l-0.96,0.96l-0.72,0.72L880.071,1178.635z M605.274,1062.476l1.2,0.24l1.68-1.2
	l0.96-2.16l4.56,5.04l0.48,1.2l-0.24,2.16v1.2l-1.92,0.48l-3.84-0.24l-1.2-0.72l-1.68-1.44l-1.92,0.48l0.48,0.72l-0.96,1.44
	l-0.96,0.72l-0.72-0.96v-0.48l-0.48-0.72l-0.72-0.24l-0.48,0.48l-0.48,0.24l-1.2,0.48l-2.16-1.92l-1.68-2.4l-3.84-8.88l0.72-3.36
	l0.72-1.2h0.48l1.2,0.48l0.48,0.24l7.92,6.24l1.68,2.16L605.274,1062.476z M702.953,998.156l0.24,0.72h0.96l0.24,0.96l-4.8,6.72
	l-1.2,1.92h-0.24l-1.2-0.24l-0.96-0.24l-5.52-3.84l-1.68-2.64l-0.48-1.92l-0.48-3.12v-0.96l2.88-4.32l6.72-0.24l1.2,0.72l3.84,2.64
	l0.72,1.2l0.24,0.72l-0.48,0.72V998.156z M666.713,1375.194l-1.92,1.68l-0.96,0.24h-0.72l-1.92,1.44l-0.72,0.72l-0.72,0.96
	l-0.24-0.96l-2.16-3.12l-0.48-0.48l-1.68-0.48l-0.72,0.48l-5.04,2.64h-7.68h-0.72l-2.16-1.44l-0.48-1.44l0.24-0.48l0.96-2.16
	l1.44-1.2l4.8-2.88l5.28-0.48h0.48l1.44,0.72l1.44,1.68l3.6,1.2l6.96,0.48l0.72,0.48l0.96,1.2V1375.194z M699.113,1060.316
	l-1.44,4.08l-2.64-2.64l-0.48-1.2l-1.68-6l-0.24-0.72v-0.48l1.2-2.64l1.92-1.92l0.48-0.24l0.72-1.92l0.24-1.68v-0.72l-0.24-3.84
	l-0.48-0.48l0.24-1.2l1.92-1.68l4.32-2.16l0.96,2.16l-0.24,3.36l-1.44,7.68L699.113,1060.316z M699.833,917.517l0.24,1.68
	l-0.24,0.48l-0.48-0.96l-0.72-0.96l-0.72,0.24l-0.96,1.68l-1.2,2.64v0.72v0.96l0.24,0.48l0.96,1.2l1.44,1.44l0.48,4.8l-0.72,1.2
	l-0.72,0.96l-1.2,1.2l-1.44,0.72l-0.48,0.24l-0.48-0.24l-0.72-0.24l-0.24-0.48l-0.24-0.96v-0.96v-1.92l0.48,0.48l0.72,0.24
	l0.24-0.48v-0.72l-0.24-0.96l-0.96-2.16l-2.16-4.32l-1.92-2.64l-0.96,0.24v-1.2l0.48-1.68v-0.48l0.96-1.92l0.48-0.48l4.32-0.96
	l1.44,0.24l1.44,0.24l0.96,0.48l1.68,1.44L699.833,917.517z M607.194,1411.435l-1.44,5.28l-1.44-0.24h-0.96l-0.48-0.72l-2.88-1.44
	l-3.12-0.48l-0.72,0.24l-1.44,0.96l-0.48,0.72l-0.24,0.96l-0.24,0.72v0.48l-0.48,0.72l-0.96,0.48l-0.48-0.72h-0.48l-1.44,1.2
	l-2.88,0.96h-0.96l-0.48-0.24l-0.72-3.84l0.48-0.96l0.72-0.24h0.96h0.96l7.68-4.08l1.2-0.96l1.44-1.2l2.4-1.68l2.4-1.44l1.92-0.24
	l0.48,0.96l-0.24,1.2l0.72,0.48l1.2,0.48v1.2V1411.435z M728.153,1147.916l-1.2,0.72h-0.72h-1.439l-1.2,1.44l-0.96-0.24l-2.16-3.36
	v-0.72l1.92-4.8l0.24-0.48l0.96-1.44l3.84-4.32l1.92-2.16l0.72,0.24l2.16,1.44l0.48,1.2l0.24,2.64v1.2l-2.16,5.76l-0.96,1.44
	L728.153,1147.916z M825.592,1095.835l-4.8,0.48l-1.44-0.72l-0.72-0.48l-1.92-2.88l-3.6-6.72l4.32-1.68l2.16,0.24h0.72l2.64,1.2
	l3.84,6.48l0.48,0.72v0.72v0.72l-0.48,0.48l-0.24,0.72L825.592,1095.835z M765.592,1033.916l-0.72,0.24l-2.64-2.4l-4.8-4.56
	l-9.36-8.4l-2.16-0.48l-1.92-1.2l-0.96-4.08l3.12-1.92h0.48l2.16,0.479l0.72,1.2l4.32,6.48l3.84,4.08l2.88,3.36l4.56,6.24
	L765.592,1033.916z M730.553,1053.596l-1.92,2.16l-4.56-4.56l-0.48-0.48l-1.92-0.72l-1.2-0.24l-0.72-0.24l-0.48-0.24l-0.48-0.48
	l-0.48-0.48l-0.479-1.2l0.24-0.96l1.44-1.44l1.44-0.48l2.4-0.48h1.2l2.88,0.24l1.68,0.479l0.96,0.24l1.2,2.64l0.48,0.72l0.24,0.72
	l-0.24,1.92l-0.24,1.68l-0.24,0.48L730.553,1053.596z M594.954,1085.756h-0.48l-0.48-0.96l-0.48-4.32l-3.12-6.72l-0.24-2.16
	l0.479-1.44l0.48-0.48l1.2-0.24l5.28,2.64l0.48,0.48l2.4,2.64l-1.2,0.96l-0.24,0.72l-0.24,1.2l0.96,0.48l0.48,0.72l-0.72,2.4
	l-0.48,0.96l-2.16,2.16l-0.48,0.48L594.954,1085.756z M902.871,1182.715h-4.08l-4.32-4.32l0.96-2.88l3.36-6.96l0.72-1.2l0.48-0.24
	h0.72l0.96,2.64l1.44,4.8l0.24,1.68l1.2,1.68l1.44,1.68l-0.48,1.2l-0.48,0.24L902.871,1182.715z M587.514,1147.436h-0.48l-1.68-0.48
	l-1.68-3.6v-0.72l0.24-0.96l0.24-0.24l3.84-2.4l3.12-0.24l5.04,0.72l0.48,2.16l-0.72,1.44l-3.36,2.64l-2.4,0.96L587.514,1147.436z
	 M780.472,1209.595l1.68,3.84v0.72l-0.48,0.48l-1.2,0.72l-3.36,0.96l-1.2,0.24h-0.96l-0.48-0.48l-3.84-3.12l-0.96-0.96l-0.24-0.48
	l0.24-1.2l0.72-0.48l1.44,0.48l2.16-0.72l0.72-0.24l0.96-0.96l0.48-0.48v-0.72l0.48-1.2h1.44l0.96,1.2L780.472,1209.595z
	 M444.236,1279.195l-0.24,0.24l-0.96-0.48l-1.2-2.88l-0.48-2.16l-0.48-1.68v-4.56l0.24-0.48l0.24-0.48l5.28-1.2l0.48,0.96l0.72,7.68
	l-0.72,2.16l-0.72,0.96l-0.24,0.48L444.236,1279.195z M785.992,1051.676l-0.24,0.24l-2.64-2.64l-0.48-0.72l-1.92-2.4l-2.88-4.8
	l-2.4-3.84v-1.2v-0.48l2.64-0.72l3.36,2.4l0.96,0.72l0.24,0.48l0.24,0.96l1.44,3.84l1.92,6.96L785.992,1051.676z M887.751,1325.275
	l-1.2,2.4l-0.24-0.24l-0.24-0.48l-4.56-8.88l-0.24-1.2l1.68-4.56l0.72-0.24l3.12,2.16l0.72,0.72l0.48,0.96L887.751,1325.275z
	 M836.151,1217.035h-0.48l-3.36-1.44l-1.2-0.72l-0.96-0.72l-0.479-0.48l-0.48-0.72l-0.479-0.72l-0.24-1.92l0.24-0.48l0.72-0.96
	l1.2-0.72l1.92-0.24l1.2,0.48l2.16,1.92l0.48,0.72l0.96,2.4l0.24,1.44v0.72L836.151,1217.035z M861.352,1174.555l-0.48,0.24
	l-1.2-0.72l-6-6.96l-0.72-1.2v-0.96l-0.24-2.16l0.48-0.48l4.32,1.44l3.6,6.48l0.72,3.36v0.72L861.352,1174.555z M738.953,1306.795
	l-0.96,1.44l-0.72-0.24l-0.48-0.48l-1.2-2.4v-0.72l0.48-1.92l0.24-0.96l0.48-0.72l0.96-0.48h3.6l1.68,0.48l0.24,0.48l1.92,2.64
	l-3.84,2.4L738.953,1306.795z M611.994,979.676l-0.24,3.6l-0.24,0.72l-0.96-1.68l-2.88-1.92l-0.72,0.24l-2.64-1.44l-0.96-0.96
	l-0.24-0.24l-0.48-0.72l-0.48-2.64l0.72-0.48l0.72-0.24l1.92,0.72l3.6,1.68l0.72,0.72l0.96,0.96L611.994,979.676z M676.313,701.037
	l-1.44,0.96l-4.32-2.16l-1.2-1.44l-1.2-1.68v-0.72l1.2-1.44l6.479,0.24l0.24,1.44l0.24,3.6v0.72V701.037z M705.593,967.916h-0.48
	l-1.92-0.96l-6.24-4.32l-0.72-0.48l-3.12-3.6l1.439-1.68l8.64,6.72l1.92,1.68l0.72,0.72l0.48,1.2v0.48l-0.48,0.24H705.593z
	 M692.633,723.117l-1.44,0.72l-0.48-0.24l-0.48-2.16v-0.72l1.92-5.04l0.72-0.48l1.2-0.96l1.2,0.24h0.48l2.4,1.92l-0.48,1.2
	L692.633,723.117z M588.234,1099.916h-0.24l-0.72-0.24l-2.4-0.96l-0.72-0.72l-1.2-1.2l-0.48-1.68l5.04-2.64l1.68,0.48l1.2,0.48
	l0.24,0.72l-0.24,1.92l-0.24,0.72l-0.72,1.44L588.234,1099.916z M894.951,1192.315h-0.48l-0.96-0.72l-1.2-2.16l0.24-4.8l0.24-2.16
	l1.44-0.24l0.96,0.72l1.2,3.36l0.24,0.72v0.96l-0.72,3.36l-0.48,0.48L894.951,1192.315z M886.791,1134.956l-1.68,0.24l-0.96-0.24
	l-3.84-2.64l-0.72-0.48v-1.68l1.2-1.44l0.48-0.48l0.96,0.24l5.28,4.32l0.24,0.72l-0.24,1.2L886.791,1134.956z M458.635,1260.475
	h-0.24h-0.24l-0.96-1.2l-0.24-0.48v-3.84l0.24-0.96l0.24-0.72l2.16-0.48l1.44,1.44l0.48,0.96l-0.72,4.08l-0.72,0.72
	L458.635,1260.475z M709.913,931.196l-0.48,0.48l-1.92-1.92l-1.68-0.72l-2.88-1.44l-0.24-0.48l-0.72-1.44l4.56-0.24h1.2l2.16,2.88
	V931.196z M838.071,1092.716l-0.479,0.24l-0.24-0.24l-0.96-0.24l-1.68-1.44l-2.4-6.96l0.24-1.44l6,6.96v2.4L838.071,1092.716z
	 M623.514,1360.075l-1.2,0.48l-0.72-0.24l-2.64-0.72l3.6-5.76l0.72-0.72l1.68-0.48l0.24,0.72l-1.44,6.48L623.514,1360.075z"/>
<path fill="#0F73BA" d="M191.518,827.757l0.48,0.48v0.24L191.518,827.757z M243.598,820.557h0.24v-0.24l-0.72-0.48L243.598,820.557z
	 M223.918,804.477l0.24,0.24h0.24v-0.24l-0.24-0.24L223.918,804.477z M386.396,1130.155l0.24-0.24l0.72-0.24l-0.48-0.48h-0.48
	l-0.48,0.48l0.24,0.48H386.396z M311.997,1179.835l-0.24-0.24h-0.24v0.24v0.24h0.24h0.24V1179.835z M708.233,144.239l0.48,0.24
	l1.92,0.48l0.48,0.24l0.72-0.24l0.96-3.6l-0.72-1.2l-0.24-0.24l-1.68,0.24l-2.64,0.72l-0.24,0.24l-0.96,0.72l-0.48,0.24v0.72
	l0.96,0.72L708.233,144.239z M484.315,477.358l0.96-0.72l4.56-6.24l0.24-0.72l-0.48-0.48l-0.48-0.24l-0.72-0.24l-0.24,0.24
	l-3.12-0.96l-0.96-0.24l-0.48,0.48l-1.68,3.36l-1.44,5.76l2.16,0.72L484.315,477.358z M663.113,255.839h0.96l0.96-0.24l0.72-0.24
	l1.44-1.68l1.44-4.8l-1.2-0.96h-1.68l-3.84,3.36v1.44l0.48,0.48v1.92L663.113,255.839z M707.033,168l-2.16,0.48l-1.2,1.92v0.48v0.72
	l1.44-0.48l1.44,0.48l1.2,1.44l-0.24,0.24l0.24,0.96l1.92,0.48l0.48-0.72l0.24-0.96l-0.24-0.48L707.033,168z M707.513,163.199
	l-0.72-0.96l-1.2,0.48l-2.16,0.48h-3.84l-3.84-2.16l-2.16-1.2l-3.36-0.48l-2.16-0.48l-1.92-1.44l-0.96-1.2l-3.6-5.52l-0.96-1.92
	l-0.96-1.2l-3.36-3.36l-2.4-1.68l-2.16-0.96l-0.96-0.24l-2.64-0.24h-0.96l-1.2,0.24l-1.44,0.48l-2.88,1.68l-10.56,6.24l-2.64,1.92
	l0.48,1.44l-5.04-0.96l-2.64-1.44l-0.72-0.96l-0.96-1.92l-0.24-1.92l-1.2-3.84l-0.479-1.2l-0.96-0.48l-1.2-0.24l-0.96,0.48
	l-2.16,0.96l-4.56,3.12l-6.96,0.96l10.8-8.64l3.12-0.96h8.4l1.68,0.48l1.2,0.72l1.44,1.92l1.92,0.48l0.96-0.24l2.64-1.44l2.64-2.64
	v-1.68v-0.96l0.48-1.68l0.72-1.92l1.44-1.44l10.08-5.04l1.68-0.48l0.72-0.24l2.64-0.72l0.96-0.72l1.68-2.64l1.92-1.68l1.44-0.72
	l4.08-1.2l3.12-0.72l2.88-0.24h1.44l1.2,0.24l1.44,0.24h2.4l1.2-0.96l0.72-2.88l-0.24-2.64l-0.48-1.44l-2.88-6l-0.96-2.16l-1.2-2.16
	l-0.48-0.96l-1.44-2.16l-0.72-0.72l-0.96-1.2l-1.2-0.72l-1.68-1.2l-6.479-3.6l-3.84-2.88l-1.68-0.96l-2.64-4.56l-1.68-2.16l-6-4.32
	l-5.28-2.64l-1.2,0.24h-2.4l-0.96-0.24l-4.56-2.4l-1.2-0.96V62.4l0.72,0.96l1.44,0.72l0.96-2.88l-2.4-4.8l-1.44-0.96l-8.64-1.92
	l-2.88,0.24l-2.4,3.12l-4.56,1.68l-2.16,0.72h-1.92l-1.92-0.24l-1.44-0.48l-4.56-1.68l-4.8-2.64l-0.72-0.72l0.24-3.12l-2.64-1.92
	l-1.68-0.72l-0.24-1.92l1.2-1.68l-2.64-1.2l-1.44-1.2l-0.72,0.48l-1.2,1.68h-1.68l0.96-3.6l2.16-2.16l1.68-0.48l1.92-0.48l1.44,0.48
	l1.2,0.72l1.68,1.44l1.44,4.08l0.24,2.64l0.48,1.92l1.92,3.12l2.16,3.36l1.68,1.2l1.68,0.72l3.84,0.72h1.44h0.96l1.44-0.48l1.44-1.2
	l0.96-1.44l1.2-0.96l3.84-2.88l1.2-0.72l1.68-0.48l4.08,0.48l1.68,0.48l2.88,0.96l1.2,0.72l2.16,1.2l0.96,0.72l0.96,0.96l0.96,0.96
	l1.2,1.68l0.48,0.96l1.92,3.36l5.52,0.24l9.6-0.24l6,1.92l2.16,0.96l4.08,2.88l1.68,1.2l1.44,1.2l2.88,0.96l4.8,0.96h2.16l0.72-0.72
	l0.24-2.64l-0.24-0.96l-2.16-6.48l-0.48-1.44l-3.84-4.08l-1.44-1.2l-1.2-1.2l-0.72-0.48l-4.32-2.64l-1.68-0.72l-1.92,0.24h-1.44
	l-2.64-6.24l1.68-0.48l-0.24-6.24l-3.12-3.12l-1.68-1.44l-1.44-0.48l-3.6-1.44l-3.36-1.2l-7.2-3.84l-4.08-2.64l-0.24-0.96v-1.92
	l0.48-0.96l1.92-4.32l0.72-4.8l-0.24-4.08L653.945,0H0v545.086v14.352l2.16,1.2l0.72,0.96l5.52,0.48l6-4.56l4.8-4.08l3.12-2.16
	l1.92-0.24l0.96,0.72l0.48,1.92l-0.72,1.2l0.72,1.2l6.72-1.92l-1.44-1.92l-1.68-0.96l-0.24-0.24l0.24-0.48h1.2l2.64,1.2l3.12-0.96
	l3.36-1.44l1.44,2.16l-1.68,2.64l1.92-0.48l1.92-1.2l1.68-2.16l0.48-1.92v-2.88l0.96-0.479l5.04,2.16l-1.2,1.44l-1.68,1.68
	l0.24,1.92l0.48,0.24h3.12l2.4-1.439l2.64-4.8l-2.88-4.56l-1.92-5.28l0.72-2.16l0.96-1.44l6.48,1.92l1.2,1.44l-1.44,2.4l1.44,6.24
	l2.4,3.84l1.44,2.88v-0.72l2.64-1.2l1.44,0.96l1.44-0.24l-0.24-1.92l-0.48-1.68l1.2-3.12l-1.68-2.4l-0.72-0.72l0.96,0.24l2.64,0.96
	l2.16,2.4l-1.68,0.72l-0.96,0.96l-0.72,1.92l2.4,3.84l2.88,0.72l3.36-0.24l2.88,1.2l1.68,0.96l0.24,2.64l-0.48,1.2l-1.44,0.96
	l-0.96,0.24l-1.44,2.4l3.36,2.16l1.2-0.72l3.84-0.48l4.8-0.48h0.96l1.92,0.24h1.2l4.56-1.44l0.96-0.48l1.2-1.2l1.2-2.88l-3.12-5.52
	l3.6-1.92l-0.96,0.96l0.24,1.44l1.92,5.28l2.16,3.84l3.12,2.16l1.92-0.72l-0.48-1.44l-0.24-0.96l-0.24-2.16l0.24-0.24h0.96
	l0.96,2.16l0.24,1.44l0.96,2.88l2.16-0.96l2.88,0.48l0.72,1.44l-1.92,3.12l-2.64,1.2l-1.44,0.24l-2.88,0.72l-5.52,10.08l0.48,5.76
	l-0.96,1.92l-0.96,2.88v3.12l1.44,2.64l1.44,8.4l0.24,0.96l4.32,7.44l4.56,3.36h1.68l0.96,0.96v1.2l-1.68,2.4l-1.2-1.2l-3.36,0.72
	l1.44,6.72l1.92-1.92l0.96-0.72l3.12-0.24l0.96,0.96l2.4,2.4l1.68,0.24h0.96h5.28l1.68-0.48l4.8-1.92l1.92-1.68l3.84-4.32l0.96-2.88
	l-0.96-2.4l-1.44-2.16h-1.44l-1.44-0.72l-1.2-1.44l0.48-0.48l-3.36-1.68l-0.24-5.28l1.92-2.64v1.68l0.24,1.44l0.96,1.44l1.2-1.2
	l0.24-2.4l-0.24-1.44l-0.72-1.68l-2.64-0.96l-1.68,0.48l-2.16,0.48l-2.16-0.48l-1.92-0.48v-4.56l0.48-2.88l2.4-2.88l5.52-2.64
	l1.2-0.24l3.12-2.4l0.96-3.36l-1.2-2.64v-2.16l1.2-2.64l1.44,0.24l-0.24,1.44l-0.24,1.44l-0.24,2.64l0.48,2.4l0.96,0.48l1.44-0.48
	l2.4,0.72l5.04-0.96l-0.48-1.92l-0.24-1.2v-1.68l0.96-1.92l1.68-0.96l5.04-1.68l-0.96,1.2l-1.68,0.24l-0.96,0.24l-2.88,1.44
	l0.24,5.28l0.24,0.24l0.72-1.92l1.44-2.16l1.44-1.2l0.96-0.48l3.12-1.2l0.96,0.48l0.96,0.479h1.68l6.24-1.68l3.12-2.4l-2.16,0.48
	l-0.96,0.96h-0.96l0.96-3.6l1.68-0.48l2.16,1.44l0.96,1.92l2.4,0.24l7.2-1.2l4.08-1.2l4.56,1.2l8.4-0.24l1.68-2.64l1.2-1.44h2.4
	l1.68,0.24l-0.24-4.8l-0.96-1.2l-2.16-1.44l-1.2-1.44l5.52,2.64l1.44,0.96l0.24,1.92l1.2,0.48l1.44-0.24l4.08-3.36l0.24-0.96
	l-1.92-1.2l-0.96-0.96l-0.48-0.96l-0.24-1.2l0.24-3.36l1.2,0.24l1.44,3.12l5.52,3.84l8.16,4.8l1.68,0.24l2.64-0.72l1.2-0.48
	l1.2-0.72l4.8-2.64l4.08,2.4l1.2-0.24l0.96-0.48l0.96-0.48l2.16-2.88l1.2-1.68l2.88-2.64l3.6-1.2l0.96,0.96l0.72,2.64l1.2,2.16
	l2.4-0.48l1.92-1.2l1.2-2.16v-1.68l-0.24-1.92v-4.08l0.48-0.96l0.96-0.96l1.68-1.92l1.92-1.68l1.2-0.48l0.72,3.12l-0.72,3.12
	l4.8,2.88l1.68-0.96l-0.24-1.68l0.48-1.44l2.4-2.64h1.68l0.96,0.72l1.44-0.48l-1.2-2.64l-2.64-5.52l-2.64-4.56l-2.16-2.4l-1.2-0.96
	l-0.24-1.44l0.96-3.12l1.92,3.84l1.44,3.84l0.72,2.16l0.96,1.44l6.24,9.6l1.2,0.48l2.64-0.24l0.96-0.96v0.24l0.96,0.24l0.24-1.2
	l1.2-1.92l0.96-5.52l-0.96-0.48l-1.44-1.2l-0.24-1.68l1.44-2.88l0.48-3.6l-0.96-3.36l-1.68-3.36l-1.2-1.68l-1.44-1.44l2.64-1.68
	l-1.92-1.2l-3.84-4.8l0.72-1.44l2.16-0.72l2.64,0.72l1.2-4.56v-0.96l-0.72-1.44l10.08-4.56h1.44l4.008,1.908l-4.488-0.708l-4.56,1.2
	l-3.12,1.2l-1.2,1.2l-0.24,1.68l0.96,1.92l2.88-0.24l-0.96,5.52l0.48,2.4l6.72,4.8l1.92,4.8l1.44,5.04l0.96,4.56l3.12-1.68l1.2-0.48
	l2.4,0.24l1.44,0.48v0.24l-4.08,2.88l-2.64,1.92l0.24,1.92l1.2,0.72l4.56,0.48l8.16,2.16l4.32,3.36l0.72-1.44l-1.44-1.92l-0.48-1.92
	l1.44-0.96l1.68,0.24l2.64,0.48l0.48-2.88l-3.6-2.64l-3.6,2.16l-0.72-2.4l0.24-3.84l0.96-0.72l1.2-0.72l1.68-0.48l3.12-0.72h1.2
	l1.2,0.96l2.4,2.4l0.24,1.2l1.92,2.88l4.56-1.44l-0.72-1.68l-3.12-2.64l-0.96-3.6l0.96-2.16l1.92-1.68l6.24-2.16l4.32-1.44
	l1.68,1.68l-1.44,1.44l-1.92,0.24l-1.2,1.2l-0.24,0.96l-0.24,3.36l0.96,2.64l1.44,0.24h3.6l1.44,0.96l-0.24,1.92h0.24l0.96-0.48
	l2.16-5.28l-2.16-2.88l2.64-1.92l5.04-1.44l5.52-1.2l3.84-0.96l-0.96,2.16l6.96,5.76l7.44,1.44l1.2-0.96l-0.72-7.92l1.44-0.96
	l3.6-1.44l1.44,0.48l5.04,4.32l0.48,3.12l2.4-1.92l0.96-0.48l8.88-2.88l1.2,1.2l2.64-0.72l2.4-1.92l2.4-2.16l4.56-0.24l1.2,0.72
	h1.44l4.8-0.24l2.64-3.36v-1.44l-0.48-9.12l11.04-0.24l1.44,0.96l0.24-1.44l-1.92-4.32l-5.52-0.24l-1.44,0.48l-1.92-1.44l-0.96-1.44
	l-0.24-1.2l0.48-1.68l1.2,1.44l2.16,1.2l1.2,0.48l6,0.72l2.4-2.16l0.96-0.96l1.68-2.4l0.96-4.32v-2.4l2.16-2.88l5.52,0.24l0.96,1.2
	l3.12,2.4l2.4-1.2l0.96-0.48l2.88-1.92l0.72-3.12l1.68-1.44l2.88-1.68l5.52-2.16l6.48-0.96l1.68-3.6l2.88-5.28l2.64-0.96l1.44,2.88
	l-1.2,0.96l-2.16,2.16l0.24,2.16l1.44-0.72l5.04-6l4.56-5.76l3.12-2.4l4.8-2.64l-0.24-1.68l-0.96-2.64l-2.64-3.12l-4.8,0.48
	l-1.92,0.24l-2.64-1.92l-1.92-2.16l1.44-0.96l1.2-0.24l1.92,0.24l1.44,0.72l1.68,0.96l2.88,0.72l1.44-3.84l-0.96-0.72l-2.4-0.72
	l0.24-1.2l3.12-2.4l5.76-3.12l1.2,1.68v1.92l1.92,3.84l4.08-2.4l4.32-1.68l1.2-0.24l1.44,0.72l2.16,0.96l1.68,0.96l-0.24,1.68v1.68
	l1.92-0.72l1.2-0.72l1.68-1.68l4.56-7.44l0.72-1.44l-2.64-2.4l-2.64,0.96l-0.96,0.48l-2.4-5.76l4.56-3.12l1.68,0.72l0.72,2.4
	l-0.72,0.48l-0.72,1.2l1.2,0.48l12.48-3.84l1.2-0.96l-1.2-1.44l-5.28-3.84l-0.96-1.92l0.72-0.96h1.44h2.16l1.44-3.6l-2.4-2.16
	l-1.44-0.24l-0.24-1.2l3.12-1.2l2.4-0.48l3.12,0.48l0.24,3.36l-0.72,1.68l-1.2,0.48l0.24,1.92l2.64,1.2l2.4-0.72l6-2.4l3.84-4.08
	l-3.36-3.84h-1.68l-3.36-0.96l-2.88-2.88v-1.2l2.88-1.68l2.64-0.72l1.44-1.44l2.4-3.12l0.48-2.16l1.68,0.24l1.44,0.96l1.92,3.84
	l3.6,1.92l3.36,2.88l0.24,0.96l0.24,1.92l0.48,1.2h0.48h0.24l1.2-0.72l0.24-3.12l-4.08-7.68l-2.16,0.24l-1.2-0.72l-0.96-2.4
	l-0.24-1.68v-1.44l2.88-0.24l3.12,0.48l1.92-3.84l-0.96-2.64l-0.24-2.88l0.96-0.48l2.88-2.88l1.2-1.92l0.24-0.96l-0.96-1.2
	l-5.04-1.68h-2.4l-0.96,0.96l-0.48,1.44l-1.2,0.96l-0.72,0.72l-4.32,0.96l-4.56-1.44l-6.959-9.12l4.56,1.68l6.48,3.36l2.88,1.92
	l0.96,0.72l3.84-2.88l4.08-6l1.92-4.08l1.68-1.2l4.56-0.24l0.96,0.48l0.24-1.2l0.96-0.96h1.68l1.44,0.72l2.4-1.92l0.72-0.96l-6-2.64
	l-1.44,0.96l-1.44,1.68l-0.96,1.68l-2.16,0.48l-1.44-0.96l-4.08-5.52l0.72-1.44l3.36-0.96l3.6,3.12l1.44,1.44h0.96l1.68-1.68
	l-1.68-6.72l-1.92-1.92l-3.36-0.24l-2.16,1.2l-0.96,0.72l-1.92-2.4l-0.96-1.44l0.96-5.52l1.2-1.44l1.92-0.48l0.48,1.2v1.2l2.4,2.16
	l0.96,0.72l1.2-0.96l-0.96-0.72l-0.96-0.72l-0.48-1.68l0.48-1.92l4.56,0.96v5.28l3.36,2.16l1.2-0.96l0.24-1.44l1.44-4.56l1.92-0.24
	l4.8,0.48l-4.56,6.72l-1.2,1.2l-2.16,0.24l-2.16,1.44l-0.96,1.68v1.68l1.2,0.48l1.2-0.24l2.16-1.68l2.64-2.16l4.8-0.96l1.44-1.2
	l-0.96-7.44l-1.92-1.44h-1.2l-0.72-0.96l0.72-3.12l4.8-1.2l3.12,0.48l1.44-3.36v-2.4l0.24-1.44l0.72-3.6l1.2,1.2l2.4,0.48l2.4,0.24
	l1.68-2.64l-4.08-4.08l-3.36-1.44l-1.44,0.48l-0.96,1.2l-1.2-0.24l0.72-2.88l0.96-0.72l2.64-1.2l1.92,0.48l0.24,1.2l0.96,2.4
	l3.6,3.6l-0.24-1.92l0.24-0.24l1.44-0.24l0.48,0.96l0.48,1.2l1.44-1.44l0.96-1.2l0.96-2.64l0.24-2.16l1.68-3.12l2.16,0.96l1.44-4.08
	l-0.96-2.4l-1.44-0.48l-0.96-1.68l-0.24-0.96v-1.68l1.92-0.24l1.44-0.96l0.96-1.44l0.96-3.84l4.56-6.24l2.16-1.2v-4.08l-5.28-1.92
	l-4.8-1.68l-0.96-3.12l3.84,2.16l6.96,2.4l4.56,0.72l0.96-0.48l5.76-9.12l0.96-1.68l0.72-1.92l-0.72-2.4l2.88-4.56h0.96l1.2,1.2
	l1.68,4.32v1.2l0.48,2.4l0.96,1.2l2.64,2.16l1.44-2.64l0.72-2.4l0.96-3.36l2.16-1.68h1.92l1.2,0.24l2.16,1.68l0.24,1.2l2.64-3.6
	l-2.16-2.16l-2.88-5.52v-2.64l-0.72-3.12l-0.48-1.44l-0.48-1.44l-0.96-0.72l-2.4-0.48l-5.28-2.4l-5.76-3.6l-0.72-1.68l6.96,5.04
	l2.16,1.2l0.96,0.48l5.76,0.96l1.2-0.24l3.84-1.44l2.16-3.6v-1.68l-3.12-2.88l-2.4-0.48l-0.96-0.72l-0.96-1.2l0.48-0.96l1.68,0.24
	l2.16,0.72l4.08,0.96l1.44-1.68l-0.96-3.6l-2.64-4.08l-2.88-0.72h-1.2l-1.92,0.48l-1.2,0.48l-1.2-0.72l-0.72-0.96l-0.48-1.92
	l2.16-0.96l1.92-0.96l2.64-4.32l1.44,2.16l2.64,3.12l0.96,0.24l3.12-0.72l0.96-3.84v-4.56l1.44-0.48l0.479,5.04l-0.479,3.6
	l0.479,0.96l1.68,1.2l3.84-1.68l2.4-3.12l-0.96-1.2l-0.96,0.72l-1.44-0.24l-0.72-1.2l-0.24-4.8l0.96-1.68l2.88-8.4l-1.68-1.92
	l-1.44-0.48l-5.04,1.44l-2.4,2.64l2.88,0.48h0.96l1.2,0.72l-2.4,2.64l-2.16,0.24v-1.44l0.48-1.2l-2.16-0.48l-10.8,3.6l-1.2,2.16
	l-0.24-0.24l-0.24-2.16l0.96-2.4l0.96-1.2l1.44-0.48l0.72,1.44l5.76-1.68l1.92-0.48l4.56-5.52l3.12-4.8l4.08-2.4l1.2-0.48l1.92-0.72
	l1.44-0.48L707.513,163.199z M522.715,430.798l-3.6-1.2l-1.68,3.12l-0.24,1.68l0.24,0.48l0.48,0.24l0.72,0.48l0.72,0.24h0.96
	l0.72-0.24l2.16-2.88L522.715,430.798z M598.554,375.838l-1.2-0.24l-1.44,0.96l-1.44,1.92l-1.2,6l0.96,2.4l0.24,0.48l0.72,0.24
	l1.2,0.96h0.96l0.24-0.72l1.92-5.52l0.96-0.72h0.72l-0.72-2.16L598.554,375.838z M470.395,481.678l-6.48,1.44l-0.48,0.48l-0.48,0.72
	l0.48,0.72l3.6,0.96l3.36,0.24h0.72l0.48-2.4l-0.48-1.2v-0.24L470.395,481.678z M612.474,50.4l-2.4-9.36l-0.48-0.72l-0.48-0.48
	l-0.48-0.48l-0.96-0.24l-0.72-0.24h-0.48l-0.72,0.48l-0.72,0.48l-0.24,0.24l0.24,1.2l1.2,0.72l1.68,1.2l1.2,0.96l-1.44,3.12
	L612.474,50.4z M219.838,561.598h-3.36h-0.48l-0.72,0.24l-1.68,3.84l0.48,0.48l0.96-0.48l5.52-1.44l1.68-0.48h0.48l0.48-0.48
	l0.24-0.48l-0.24-1.2H219.838z M260.877,558.478l-2.4,2.16l-0.24,0.24l-1.2,1.68l0.96,3.6l1.2,1.68l0.48,0.48h0.96h0.24l0.96-3.84
	l3.12-4.8l0.24-0.72l-1.68-0.72L260.877,558.478z M165.838,644.157l-0.72-1.44l-1.44,0.24l-1.44,0.24h-0.96l-3.36-1.2l-2.88-3.36
	l-0.48-1.2l-1.68-2.16l-3.36,0.96l-1.44,0.96l-0.24,2.88l-2.88,0.72l-6.72-2.64l-10.56-1.2l-0.72,1.2l-0.72,1.2l-1.92,1.92
	l-3.84,0.96h-1.92l-1.92-2.4l-5.04,0.48l-2.4,0.24l-2.4-0.72l-0.72-1.44l-2.88-0.24l-2.4,0.24l-1.2,0.24l-3.12,1.92l-0.72,1.92v1.44
	l-2.64,2.4l-0.48-1.68l-7.44-3.6l-2.16,0.72l-4.56,4.56l-0.72,0.96v3.36l2.16-0.72l0.96-0.96l2.4-1.2l1.44,0.24l-0.48,1.2
	l-6.96,5.28l-3.84,1.68h-2.88l-0.96,0.48l-3.84,3.6l-9.12,6l-1.92,0.72l-1.44-0.48l-2.88,3.36l-0.96,1.44l-1.2,9.84l0.96,8.16
	l0.96,11.76l0.24,2.64l-0.24,1.68l-0.48,1.2l-0.96,2.16l0.48,3.12l0.96,0.72h1.68l1.44,0.48l1.44,0.72l1.2,0.72l0.96,0.72l5.04,3.36
	l4.8,1.68l8.16,4.08l3.12,0.24l2.16,0.24l5.04,1.44l1.44,0.48l1.68,1.2l2.16,1.92l0.72,2.88l1.92-1.92l1.44-0.96l2.4-0.24l1.2,2.16
	l0.24-0.24l0.72-0.72l0.96-1.44l-1.68-0.96l3.36-6.48l1.2-0.48l6.48-0.48l2.64,1.44l1.44,1.2l2.4-0.48l1.2-2.88l0.48-1.2l0.48-1.44
	l0.72-1.44l0.72-0.96l5.04-3.84l2.16-1.2l1.68-0.72l5.76-1.44l5.52-3.36l1.2-1.2l-0.72-2.88l-0.48-2.88l4.32-8.64l0.96-2.88
	l-1.92-0.24l-0.96,0.72l-1.2-0.48l-0.72-1.92l1.92,1.2l1.92-0.24h1.2l4.8-9.84l3.12-2.64l5.04-6.72l1.68,0.96l0.72-0.48l3.6-2.88
	l1.44-1.44l2.64-0.24l-1.68-13.2L165.838,644.157z M301.677,506.638l-2.88-3.6l-0.72-0.48l-2.4-0.48h-0.72l-1.2,0.72l1.44,2.16
	l1.2,1.44l0.48,0.24l4.08,3.6l0.48,0.24l0.72,0.24h0.48l0.96-0.48v-0.48l-0.24-0.24L301.677,506.638z M142.799,585.357h-2.4
	l-2.88,0.96l-1.44,1.44v2.16l0.24,0.48l0.96,0.24l0.72-0.24l0.96-0.48l1.2-0.72h0.48h3.12l1.92,0.48h0.48l0.72,0.48l0.48,0.96
	l0.72,0.96l0.96-0.72l1.68-3.12l0.24-1.2l-0.24-0.48l-1.44-0.72h-1.2l-1.68,0.96h-1.92L142.799,585.357z M680.873,69.84l-0.48-0.96
	l-0.48-0.72l-0.24-0.24l-1.44-1.2l-4.08-2.16l-0.72-0.24h-1.68l-1.68,0.24l-0.72,0.24l-0.72,0.48l0.48,1.92l3.6,4.8l0.72,0.72
	l1.44,1.44l0.48,0.24l0.72,0.72l0.96,0.72l6.24,3.36l6.96,2.88l1.92,0.72l1.44,0.24l1.44,0.48l0.72-0.24l1.44-1.68l0.24-0.72
	l0.24-0.48l-0.24-0.72l-0.24-0.48l-0.48-0.48l-1.68-0.96h-0.72l-0.48-0.24h-0.96l-0.72-0.24l-3.12-1.2l-2.88-1.2l-1.92-0.96
	l-3.12-1.92l-1.2-1.68l0.48-0.48H680.873z M148.319,580.078l0.72-0.24l-0.72-0.72l-1.44,0.24l-0.48,0.72l-0.24,1.44l4.32,3.36
	l0.96-0.24l0.48-0.48l2.64-3.84l-3.84-0.48l-1.2,0.48l-0.96,0.24l-1.2-0.24v-0.48L148.319,580.078z M709.673,151.199l-2.64-0.72
	l-2.64-0.48l-2.88-0.24l-0.72,0.24l0.24,3.84v0.48l1.68,2.64l1.68-0.24l0.48-0.24h0.48l4.8,0.96l2.64,1.2l0.48,0.48l0.48,0.48
	l0.72,1.2l0.72-0.24l1.44-3.84v-0.48l-1.68-2.4L709.673,151.199z M315.597,539.998h0.72l2.64-0.96l1.44-0.96v-1.44l1.68-1.92
	l1.2-1.2v-0.48l-7.2,2.16l-0.72,0.24l-2.16,1.44l-0.24,0.48l-0.48,0.48l-0.24,0.72l0.48,0.96l0.48,0.48H315.597z M330.237,540.958
	l0.96-1.92l0.96,1.68l0.48-2.16l-0.72-1.2l-1.68-1.44h-2.4l-1.2,0.48l1.2,1.44l1.92,0.72L330.237,540.958z M788.392,442.318
	l-5.04-1.44l-0.72-0.48h-0.48l-4.08,5.04l1.68,1.92l6.72,1.2h0.48l1.44-1.44l0.96-1.92l0.72-1.68l-0.48-0.72L788.392,442.318z
	 M1014.71,257.039h-0.48l-0.24,0.24l-1.44,0.24l-0.48,0.72v1.2l-0.24,1.2v0.72l0.96,4.8l1.2,1.92l0.96,0.48h0.48l1.44-1.2l0.96-1.44
	l0.48-0.96l0.48-1.44l-3.6-6.24L1014.71,257.039z M989.27,313.919l-0.96-1.44l-0.48-0.48l-0.72-0.24l-1.68,0.96l-5.52,6.48
	l-0.72,1.2l-0.24,0.48l0.24,0.72l-1.68,1.44l-1.92,0.72l-1.44-0.24l-0.24-0.48l-0.24-0.72l0.48-1.2l-1.68-0.72l-0.72,0.24
	l-1.68,0.24l-0.96,1.2l-0.24,2.16l0.24,0.72l1.44,0.48h1.44l0.96,0.72v0.72l-0.24,1.2l-7.2,5.52l-1.44,0.24l-2.16,0.48v0.96
	l0.48,1.44l0.48,1.92l0.48,1.92l-0.72,1.92l-2.4,2.16l-1.44,1.2l0.72,6.24l1.44,0.24h0.96l0.72-0.24l0.48-0.24l2.16-1.68l0.48-0.48
	l0.96-1.44l0.24-1.44l-0.24-0.48l-1.68-2.16l2.4-9.84l0.48-0.48l0.72-0.48h0.48l3.36-0.48l8.88-6.24l4.08-3.36l0.48-0.48l0.96-0.96
	l2.4-5.04l0.24-0.48l-0.24-1.68V313.919z M1070.389,1.68l1.44,1.2l1.2,1.44v3.6l-1.44,1.2l-4.32,3.12l-0.48,0.96l5.76-1.2l1.2,2.16
	l-0.24,4.56l-1.2,3.6l-0.48,0.72l-1.44,1.92l-2.16,3.36l-4.32,8.4l-0.96,2.4l-1.44,1.2l-0.72-0.48l-0.479-0.72h-2.4l-0.96,1.92
	l-0.48,4.08l1.92,5.52l-0.48,4.08v2.16l0.48,1.2l1.439,0.72l1.68,0.96l3.84,4.32l0.24,3.84l-0.48,2.88l-0.48,2.16l-1.44,1.92
	l-1.44,1.2l-1.2,3.12l1.44,4.56h1.2l3.6-0.24h5.28l1.2,0.24l1.2,1.68l0.48,1.68l2.88,0.24l2.16-1.68l0.72-1.68l0.24-2.4l-1.2-0.72
	l-1.44-0.48l-1.44-0.96l-0.72-0.96l-1.92-4.32l-0.48-1.44l0.24-1.68l0.24-2.64l0.96-3.36l1.92-4.32l0.48-0.96l0.96-0.96l1.44-0.72
	l4.08,0.48l1.68,1.2v2.16l-0.24,2.16l-0.96,1.2l-0.96,1.2h-1.2l-0.24-1.92l-1.68-1.2l-1.44,0.24l-1.92,1.68l0.24,1.2l1.2,0.72h1.68
	l5.04,7.2l1.44,4.08v3.36l-1.2,4.8l-1.2,2.4l-2.16,2.16v3.84l1.439-0.48l0.72-0.72l0.96-1.44l4.32-2.64l1.2-0.48l0.96-0.48
	l1.68-0.72l1.68-1.44l6.24-6.72l-1.2-2.64l-2.4-0.96h-1.2l-0.96-0.24l0.72-2.64l0.48-1.2l1.2-1.44l2.64-1.2l0.72,0.24h2.64l1.68,2.4
	l0.24,1.2l3.84,0.72l1.2-2.4l1.2-4.08l1.68-6.72l1.2-8.88l-0.96-1.68l-0.96-0.48l-0.48-2.64l0.96-4.32l2.4-8.64l0.96-5.52l1.2-5.28
	l1.2-2.88l2.16-3.6l-0.72-2.4l-0.48-1.2l0.72-1.68l2.4-4.32l2.16-1.92h1.2l0.96-2.64V2.64l0.72-2.64h-60L1070.389,1.68z
	 M857.751,421.198h-0.72h-1.44l-0.48-0.24l-0.96-1.2l-1.92-2.88l-0.24-0.72l-0.72-0.24l-0.48,7.44l0.24,0.48l0.72,0.24l1.44,0.24
	h0.72h1.2l4.56-0.96l0.24-0.48l-0.48-0.72L857.751,421.198z M807.352,431.758l-1.2,1.2l-1.92,3.12l-1.2,2.64l-1.2,0.48h-2.16
	l-2.4-0.24l-0.72,0.24v0.72l2.16,4.08l0.72,0.48l0.72,0.24h0.48h0.72l1.68-0.48l0.72-0.24l0.24-0.48l0.72-2.16v-0.72v-0.48
	l0.24-2.16l0.72-1.68l0.96-1.92l0.24-0.48l1.2-0.72v-0.96l-0.24-0.72L807.352,431.758z M997.19,10.8l-1.44-1.92h-0.96l-5.52,0.72
	l-0.48,0.48v0.96l0.24,2.16l0.24,0.72l-1.44,1.92l-0.72,2.4l0.48,0.24l1.2,0.24l1.44,0.24l3.12,0.24l6.72-3.12l-0.72-2.16
	L997.19,10.8z M1035.35,6.48l1.68-0.72l3.84,4.08l0.24,0.96l-2.16,3.6l-2.4,3.84l0.24-0.24l1.92-0.48l1.2-0.72l2.88-3.36l0.72-0.72
	l0.479-1.68l0.72-1.92l0.72-0.72l5.28-2.64h3.6l1.44,2.88l-0.48,1.2l-1.92,1.44l-0.24,2.16l1.92,2.16l1.68-0.72l5.28-3.36l0.96-3.6
	l0.24-2.16l-0.48-1.2l-1.44-2.16l-1.2-1.2l-1.68-0.24l-1.44,0.48l-0.96,0.72l-0.96,0.72l-1.2,0.48l-1.68-0.24l-1.44-0.96l0.48-0.96
	l2.16-1.2h-8.623l0.463,2.16l-0.72,0.96l-4.08,1.44l-2.16-1.68l-0.48-1.2l-0.24-1.44l0.048-0.24h-6.425l2.057,4.32L1035.35,6.48z
	 M1003.67,0.96l2.4,6l0.48-0.24l3.902-6.72h-5.63L1003.67,0.96z M1057.429,26.4l-0.421-2.812l1.382,1.612l5.28,0.96l0.48-0.24
	l0.48-0.72l0.72-1.92l1.68-4.32l-3.6-0.48l-1.44,0.24l-2.16,1.44l-1.439,1.68h-0.24l-0.48,0.24l-0.72,0.72v0.399l-0.24-1.599
	l-0.24-0.72l-0.96-2.16l-1.2-0.72h-1.92l-2.64,1.92l-0.72,0.72l-1.2,3.84l-0.24,0.72l-0.48,2.88l-0.48,5.76l1.68,1.92l0.48,0.72
	l1.2-0.48l1.68-0.96l0.24-0.24l0.72-0.96l4.8-5.28V26.4z M1082.629,125.28l-1.92-0.72l-2.16-0.72h-0.96l-0.24-0.48l-0.48-0.24h-0.96
	l-0.48,0.24l-3.84,3.36v0.72v0.72l0.48,0.72l2.64,5.04l2.16,0.24l1.44,0.24l1.68-0.24l1.68-0.48l1.92-2.16l0.48-0.96v-1.2l0.24-2.4
	v-0.48l-1.2-0.72L1082.629,125.28z M1038.692,0h-0.175l0.192,0.24L1038.692,0z M1100.149,102.24l-0.72-0.24l-0.479,0.48l-1.2,2.16
	l-2.4,5.76l0.24,2.88l0.48,1.2v0.96l-0.24,0.48l-0.48,1.44l-1.2,2.16l-0.72,1.2l-0.72,0.72v0.72v0.96v1.2l0.48,2.4l0.48,0.48h0.96
	l2.88-2.16l2.88-12.48l0.72-2.88v-0.72v-2.4v-2.88l-0.72-1.2L1100.149,102.24z M1047.35,226.079l-0.48-0.72l-0.24-0.24l-0.96,1.2
	l-2.16,1.44v-1.44l-1.92,0.96l-11.04,6.24l-3.12,1.68l-4.8,3.84l0.72,0.72l10.08,5.52l3.84-5.04l1.92-4.32l2.88-4.08l1.68-1.44
	l1.2-0.48h0.72l1.92-1.2l0.48-0.48l-0.24-0.72L1047.35,226.079z M299.277,540.718l-0.24-0.24l-0.24,0.48h0.48l0.24,0.24h0.72
	l-0.72-0.48H299.277z M464.155,1336.555l-0.72,0.24l-0.72,0.24l-2.88,0.24l-0.48,0.72l0.24,0.48l0.72,0.24l3.12,0.96l0.96-0.24h0.48
	l0.48-0.24l0.72-0.48l1.68-0.96l0.72-0.72l0.24-0.48l-0.24-0.96l-0.96-1.92l-1.2-0.96l-3.12,0.72l-0.48,0.48l0.24,0.72h0.96
	l0.72,0.24l0.48,0.72l-0.48,0.72L464.155,1336.555z M446.635,1314.955l0.48-0.72l0.48-0.72l1.2-0.96l1.44-0.72l0.48-0.24h0.72h0.96
	l3.12-0.24l1.2-2.4v-0.48l0.24-0.72l0.24-3.6l-0.24-0.72l-0.48-0.48l-2.4-0.48l-3.84,0.96l-2.64,1.92h-0.24l-0.96,0.48l-0.48,0.72
	l-0.48,5.04l0.72,3.36H446.635z M556.794,1403.995l-1.2-1.44l-0.96-0.96l-0.48-0.48l-0.48-0.48l-0.48-0.24h-0.72l-2.4,0.48
	l-0.72,0.48l-0.72,0.48l-0.96,0.48h-0.72h-0.48l-6.24-1.2l-7.68-5.04l-4.56-3.36l-1.68-1.68l-0.72-0.72l-3.36-2.64l-4.32-2.88
	l-0.96-0.48l-0.48-0.24l-1.2-0.72l-0.72-0.24l-2.88-1.44l-0.48-0.24l-5.28-0.72l-4.08,0.96l-0.72,0.48l-0.48,0.48l-1.44,4.8
	l-8.64,0.24l-1.92-3.6l-0.48-2.16l0.72-0.48l0.48-0.24l2.64,0.24l2.88,0.24l1.92-0.24l0.72-0.24l1.44-1.92l0.24-0.48l-2.64-5.76
	l-1.2-2.16l-0.48-0.96l-1.68-1.2l-0.96,0.24l-0.48,0.72l-1.68,1.44l-2.88,2.88l-0.48,0.24l-5.04,1.68l-11.76,0.72l-2.4,0.24
	l3.12-1.2l1.44-0.24l1.92-0.96l0.72-0.24l1.2-1.2l0.48-0.48v-0.96l-0.72-4.56l-0.24-0.96l-0.96-1.2l-1.68-2.4l-0.24-0.72l0.72-1.44
	l1.44-1.2l1.68-0.48l0.72,0.24h1.2l0.48-0.24l0.48-0.72l0.24-2.4l0.24-3.6l-0.72-1.92l-2.4-3.36l-1.44-1.2l-4.56-1.2l-4.08-0.24
	h-0.48l-0.72-0.24l-7.68-4.32l-0.72-0.72l-0.48-1.2l-1.2-5.28l-0.24-4.8l0.24-0.48v-0.72l0.24-2.16l-0.24-0.72l-3.6-2.4l-0.48-0.24
	l-1.2-0.48l-2.88,0.48l-0.48,0.24l-0.48,0.48l-1.92,2.16l-0.24,1.2l0.24,0.96l0.24,0.48l0.48,0.72l0.24,1.44l-0.24,0.96l-3.36,4.08
	l-6.24,7.44l-0.48,0.24l-0.48,0.24l-0.96,0.24l-1.2,0.24l-0.96-0.48l-0.24-0.96v-0.96l0.24-1.2l0.48-0.96l0.96-1.92l0.48-0.96
	l0.96-0.48l0.48-0.96l0.24-0.24l0.24-0.48l0.24-0.72v-1.2l-0.48-4.8l-0.48-2.64l-0.24-0.96l-3.36-2.88l-0.72,0.24l-0.48,0.48
	l-1.44,1.92l-2.88,5.76l-0.24,0.48l-0.72,3.84v0.48l0.24,0.96v0.48v0.96l-0.24,0.72l-0.24,0.48l-0.72,0.72l-3.36,3.6l-2.88,3.12
	l-0.24,0.48l0.24,1.2l-0.24,0.72l-0.48,0.72l-4.08,2.64l-2.88,1.92l-1.44,1.44l-11.28,11.76l-1.2,7.68l-1.92,3.84l0.24,2.4
	l-0.24,0.72l-0.72,0.72l-1.2,0.72l-1.2,0.72l-2.4,1.44l-0.96,0.48l-0.48,0.48l-0.24,0.48l-0.24,1.2l-0.24,1.92l-0.48,1.68
	l-0.48,0.72l-1.44,2.64l-0.48,0.72l-0.96,1.2l-0.72,0.24l-0.72,0.48h-0.48l-1.68,0.24h-0.48h-7.44h-3.84l-7.68,6l-0.48,0.72
	l-0.72,3.12v0.72l6.48,4.56l1.2,0.72l0.96,0.48h0.72l0.72-0.24l0.72,1.2l-0.24,2.64l-0.24,1.92v0.72l-0.24,0.48l-0.72,0.72
	l-0.96,0.48l-2.4,0.96l-0.96,1.2l-0.48,0.48l-3.12,3.36l-0.72,0.72l-0.72,0.24l-0.48,0.24l-1.44,0.24l-0.72-0.48l-1.44-1.2
	l-3.36-1.68l-0.48,0.24l-3.36,2.64l-0.48,2.16l-0.48,0.48l-3.36,2.4l-0.48,0.24l-0.72-0.48l-0.48-0.72l-0.24-2.88l-0.24-0.96
	l-1.92,0.24l0.48-0.72l2.64-3.12l3.36-3.6l-0.24-0.48l-0.96-0.24h-0.72h-0.72l-0.72,0.24l-1.44,0.48l-2.4,0.72l-0.48,0.24l-1.2,0.48
	l-0.96,0.48l-9.12,5.52l-0.96,0.72l-1.68,1.2l-0.96,0.96l-0.72,0.48l-0.96,0.96l-2.16,1.92l-0.72,0.72l-0.72,0.96l-0.48,0.72
	l-0.72,0.48l-0.72,0.48l-0.48,0.24l-8.459,3.6h23.099h11.75h12.409h155.27l-1.831-1.2l-2.64-2.88l-4.8-6v-0.72l0.24-0.48l0.24-0.48
	l3.36-3.6l6.72-3.6l0.72-0.24h2.16l0.96,0.24l0.48,0.48l1.2,1.2l5.04,2.16l7.92,0.72l0.48-0.24l1.92-0.72l1.44-0.72l1.92-0.72
	l5.04-1.68l1.2-0.48l1.92-0.48l0.96-0.24l1.92-0.48l1.92-0.48l2.88-1.2l2.16-0.96l1.2-0.48l1.2-0.72l0.48-0.72l0.96-1.2l0.48-0.96
	l0.48-0.48l0.48-0.96l0.24-6.24l-0.48-0.96L556.794,1403.995z M512.395,1439.034l-2.16,0.24l1.824,0.72h8.437l-3.78-1.44
	L512.395,1439.034z M436.316,1308.955l1.68-0.48l2.64-0.48l3.12-1.2v-2.16l-0.48-1.68l-0.48-0.48l-5.76,3.6l-0.48,0.24l-1.44,4.32
	l0.24,0.24L436.316,1308.955z M1338.707,1278.955v-0.72l-0.72-0.72l-0.479-0.24l-0.48,0.24l-0.24,0.48l0.24,0.48l0.72,0.96
	l0.24,0.72l0.24,1.2v0.72l-0.48,0.48l-0.48,0.24l-0.96,0.24h-0.72l-1.44,0.24l-0.48,0.24l-0.48,0.72l-2.88,8.16l2.16,4.08l0.48,0.24
	l1.44-0.96l3.36-6.24l0.96-4.56l0.24-1.2v-2.16v-0.72L1338.707,1278.955z M1328.867,1298.155l3.12,1.2l0.24-2.16l-3.12-0.72
	L1328.867,1298.155z M534.955,436.318l0.24-1.68l-0.48-1.68l-1.44-1.44l-0.48,0.24l-3.12,2.64l-1.44,1.44l-0.24,0.72l-0.72,0.72
	l0.24,0.72l6.24-0.24L534.955,436.318z M690.473,404.158l-2.4-0.72l-2.4-1.44l-2.16-2.4l-0.72-1.68l-0.48-0.48l-0.48-0.48
	l-0.72-0.48l-0.96-0.48l-2.16,0.24l-1.68,0.48l-1.68,1.44l-0.24,0.24l-1.92,2.4v0.48l2.16,2.4v0.24l-1.2-0.96l-0.24-0.48h-0.96
	l-0.72,0.24l-0.48,0.48l-1.2,0.48l-1.2,0.24l-1.68,0.48h-2.4l-1.44,0.24l-6.24,3.12l-2.4,1.92l-0.24,0.48l-2.16,3.36l-0.24,0.48
	l-1.44,2.4l-0.96,1.92l-1.44,5.04h-0.48l-5.28,4.56l-2.64,2.4l-1.44,3.36l-0.24,0.96l-0.48,0.96l-0.24,0.72l-0.72,0.72l-1.68,1.92
	l-0.72,0.72l-0.24,0.48l-0.72,0.72l-0.72,1.2l-1.68,3.84l-1.44,3.84l-0.24,0.96l-2.16,2.16l-0.24,0.48l-2.88,4.56l-2.4,4.8
	l-1.44,2.64l-0.24,0.48l-1.92,3.12l-0.72,0.48l-1.44,1.68l-3.84,7.68l-0.24,0.72l0.24,2.4l0.24,2.88v0.24l0.24,0.72l0.24,1.44
	l0.48,3.6l-0.24,3.84l-0.48,0.24l-1.2,1.44l-0.48,0.96l-0.72,1.92l-1.2,3.6v0.72l0.24,0.24l0.96,0.24l0.24,0.48l0.24,1.92
	l-0.48,0.48h-0.96l-0.48,0.24l-0.24,0.48l0.24,0.96l0.48,0.48l1.92,1.2l1.2-0.48l1.44,3.6v2.16l0.24,1.44l1.2,4.8l0.24,0.72
	l0.96,1.92l1.2,2.64l-0.72,1.2v0.48l0.24,0.48l0.48,0.72l0.72,0.72l1.2,0.72l0.72,1.44l0.48,0.72l0.48,0.96l-0.24,0.72l-1.2-1.44
	l0.24,0.48l0.96,1.2l0.72,0.72l1.68,1.2l0.48,0.24l1.2-0.24l0.48,0.72l0.96,0.72l1.44,1.2l0.48,0.24l0.96,0.24l2.16,2.16l0.96,0.96
	l1.68,2.64l0.48,0.72l0.24,0.96l2.16,4.8l0.24,0.48l0.48,2.88v0.72l-0.24,2.4l0.48,5.76l0.479,0.479l0.48,0.24h5.04l2.64-5.28
	l0.24-3.12v-6.96l-0.48-2.16v-0.72v-1.44l0.48-1.2l3.6-9.84l0.72-1.44l2.16-3.36l0.72-1.2l2.4-2.64l1.44-0.72h0.48l0.48-0.24
	l0.48-0.24l1.44-1.44l4.32-6.96l4.56-9.36l4.8-12.24l0.96-3.6v-0.72v-0.48l1.2-3.12l1.92-10.8l2.88-10.08l0.72-4.32l0.24-2.64
	l-0.24-0.24l-0.48-0.96l0.24-1.2l2.64-5.04l0.72-1.2l3.12-4.08l0.48-0.24l0.96-0.48l-0.72-1.44l0.96-4.32l0.24-0.48l0.72-1.2
	l0.24-0.24l0.72-0.48l0.48-0.24l0.48-0.48l0.72-2.88v-1.44l-0.24-1.44l-0.24-0.72l-0.72-0.48l-0.24-0.48l-0.24-0.72l-0.72-5.28
	v-0.72l0.24-1.68l0.48-2.16l0.24-0.96l0.48-0.72l2.4-3.12l1.44-1.68l1.68-0.72l0.96-0.48h0.48l0.72-0.48l0.24-0.48l-5.52-5.52
	L690.473,404.158z M3.12,569.998l0.48-0.96l1.44-0.24l2.4-1.44l0.96-0.72l0.24-0.48l-4.08-0.96l-2.16-2.64l-1.44,1.68L0,565.944
	v6.49l0.96-0.517L3.12,569.998z M66.239,1001.756l-0.72-0.72l-1.2-1.92l-2.88-4.8l-0.48-1.68l-2.88-14.16l0.24-1.68l0.72-2.4
	l0.96-3.36l-0.96-4.56l0.24-2.88l-0.24-1.2l-0.24-0.96l0.96-1.44l-0.96-2.64l1.68-3.6l0.72,3.6v3.36l1.68,0.24l0.48-3.84v-2.16
	l-1.92-8.4l-1.92-5.04l-0.24-6.24l-0.72-2.64l-1.2-2.16l-1.44-4.08l-1.92-7.68l0.48-4.8l0.48-1.44l-0.48-2.88l-2.88-5.04l-0.48-0.96
	l-0.72-1.68l-0.72-1.68l-0.96-2.88l-0.72-2.64l-1.44-6.96v-7.68l-2.16-7.44l-1.44-0.48l-2.16,1.44l-1.44-0.72l-5.04-4.08l-4.56-8.4
	l-4.56-9.12l-5.28-7.92l-0.96-1.44l-0.72-3.12v-1.44v-1.92l2.16-0.48l1.92-0.96l-0.48-1.2l-4.32-0.48l-0.72,1.2v3.12l-0.24,2.16
	l-1.68,1.44l1.2-2.88l-4.08-4.08l0.48-1.44l1.2-1.2l1.2-0.72l-4.8-3.12l-1.92-3.36l-0.96-0.72l-2.88-0.72l-1.92,1.2l-1.44,1.2
	L0,824.589v279.407h0.72l13.2-7.2l0.96-1.44l1.2-1.2l2.88-1.44l4.08-0.24l5.28-4.56l2.64-1.68l2.16-0.72l0.72-0.24l1.92,0.96
	l1.44,0.72l1.44-0.24l3.12-2.4v-1.68v-2.64l0.48-3.6l0.96-3.36l0.72-0.72l1.2,0.72l3.12,0.96l2.4-3.12l1.68-3.84l0.72-2.64
	l-1.2-1.92l-3.6-3.12l0.24-0.72l0.72-1.68l1.2-0.24l1.44-1.2l0.72-0.96l0.48-1.92l-0.24-1.92l-0.96-1.44l0.24-3.84l1.92,7.2
	l-0.24,2.4l2.16,2.4l-2.64-11.04l0.72-9.12l0.24-2.4l-1.92-4.08l-1.2-1.68l1.68-1.2l2.16,1.44l1.2,1.68l1.2,1.92l1.44,0.96l1.92-1.2
	l0.48-1.2l-2.16-3.6l-2.4-2.16l-2.16-2.4l-0.48-1.68l0.24-2.88l1.68-2.64l7.68-6.72l2.4-2.16l0.72,1.2l1.68-0.96l0.24-1.92
	l-1.44-2.88L66.239,1001.756z"/>
</svg>
