<?xml version="1.0" encoding="UTF-8" standalone="no"?>
<!-- Created with Inkscape (http://www.inkscape.org/) -->

<svg
   xmlns:dc="http://purl.org/dc/elements/1.1/"
   xmlns:cc="http://creativecommons.org/ns#"
   xmlns:rdf="http://www.w3.org/1999/02/22-rdf-syntax-ns#"
   xmlns:svg="http://www.w3.org/2000/svg"
   xmlns="http://www.w3.org/2000/svg"
   xmlns:sodipodi="http://sodipodi.sourceforge.net/DTD/sodipodi-0.dtd"
   xmlns:inkscape="http://www.inkscape.org/namespaces/inkscape"
   width="73mm"
   height="67mm"
   viewBox="0 0 258.66141 237.40158"
   id="svg2"
   version="1.1"
   inkscape:version="0.91 r13725"
   sodipodi:docname="fa_print.svg">
  <defs
     id="defs4" />
  <sodipodi:namedview
     id="base"
     pagecolor="#ffffff"
     bordercolor="#666666"
     borderopacity="1.0"
     inkscape:pageopacity="0.0"
     inkscape:pageshadow="2"
     inkscape:zoom="1.4"
     inkscape:cx="120.22595"
     inkscape:cy="165.63089"
     inkscape:document-units="px"
     inkscape:current-layer="layer1"
     showgrid="false"
     inkscape:window-width="1366"
     inkscape:window-height="715"
     inkscape:window-x="-8"
     inkscape:window-y="-8"
     inkscape:window-maximized="1" />
  <metadata
     id="metadata7">
    <rdf:RDF>
      <cc:Work
         rdf:about="">
        <dc:format>image/svg+xml</dc:format>
        <dc:type
           rdf:resource="http://purl.org/dc/dcmitype/StillImage" />
        <dc:title></dc:title>
      </cc:Work>
    </rdf:RDF>
  </metadata>
  <g
     inkscape:label="Calque 1"
     inkscape:groupmode="layer"
     id="layer1"
     transform="translate(0,-814.96063)">
    <path
       style="opacity:0.95999995;fill:#222222;fill-opacity:1;stroke:none;stroke-width:1;stroke-miterlimit:4;stroke-dasharray:none;stroke-opacity:1"
       d="m 50.459919,1051.4132 c -6.612162,-2.7564 -8.646091,-8.4359 -8.646091,-24.1431 l 0,-14.275 -18.943023,0 -18.9430137,0 -1.3299832,-7.1487 C 1.8663124,1001.9147 1.6305133,984.32687 2.073818,966.76251 2.7353485,940.55107 3.5156165,933.84884 6.4272097,929.36804 11.203547,922.0175 21.380085,916.03722 29.127716,916.028 c 13.233675,-0.0158 12.686112,2.02963 12.686112,-47.38775 0,-43.10875 0.170733,-45.0834 4.217458,-48.77625 3.940731,-3.59613 7.983261,-3.84866 61.609414,-3.84866 31.56558,0 60.04335,0.7427 63.28393,1.65045 7.35338,2.05981 38.24235,32.11272 43.38498,42.2107 3.09802,6.08323 3.81733,11.84807 3.81733,30.59351 0,25.30787 0.11682,25.54304 12.68611,25.558 7.54827,0.009 17.8937,5.94261 22.36889,12.82969 3.7756,5.81047 6.51235,53.56524 4.15844,72.56281 l -1.43416,11.5746 -18.88965,0 -18.88963,0 0,14.9285 c 0,11.685 -0.83175,15.9647 -3.82827,19.698 l -3.82826,4.7695 -77.81673,0.4233 c -42.853362,0.2332 -79.783349,-0.3964 -82.193761,-1.4012 z m 149.635011,-37.4079 0,-21.21326 -70.12454,0 -70.124545,0 0,21.21326 0,21.2132 70.124545,0 70.12454,0 0,-21.2132 z m 37.30384,-64.73258 c 2.70334,-4.16031 2.89977,-6.09834 1.03614,-10.22277 -1.9515,-4.31887 -3.42961,-4.99444 -9.76462,-4.46293 -6.05531,0.50805 -7.82467,1.66394 -9.36962,6.12098 -3.99706,11.5313 11.42732,18.83071 18.0981,8.56472 z m -37.30384,-45.16019 0,-30.09065 -15.93909,-0.72988 c -9.42948,-0.4318 -16.99841,-1.79464 -18.53292,-3.337 -1.50158,-1.50927 -3.01567,-9.58671 -3.5956,-19.18201 l -1.00178,-16.5749 -50.58985,-0.53977 -50.589845,-0.53976 0,50.54231 0,50.54232 70.124545,0 70.12454,0 0,-30.09066 z"
       id="path4149"
       inkscape:connector-curvature="0" />
  </g>
</svg>
